%TF.GenerationSoftware,KiCad,Pcbnew,6.0.9-8da3e8f707~117~ubuntu22.04.1*%
%TF.CreationDate,2022-12-19T08:44:55+01:00*%
%TF.ProjectId,rpi-dev-board,7270692d-6465-4762-9d62-6f6172642e6b,rev?*%
%TF.SameCoordinates,Original*%
%TF.FileFunction,Other,User*%
%FSLAX46Y46*%
G04 Gerber Fmt 4.6, Leading zero omitted, Abs format (unit mm)*
G04 Created by KiCad (PCBNEW 6.0.9-8da3e8f707~117~ubuntu22.04.1) date 2022-12-19 08:44:55*
%MOMM*%
%LPD*%
G01*
G04 APERTURE LIST*
%ADD10C,0.050000*%
G04 APERTURE END LIST*
D10*
%TO.C,J7*%
X107420000Y-67850000D02*
X111020000Y-67850000D01*
X107420000Y-61700000D02*
X107420000Y-67850000D01*
X111020000Y-61700000D02*
X107420000Y-61700000D01*
X111020000Y-67850000D02*
X111020000Y-61700000D01*
%TO.C,J6*%
X114830000Y-94520000D02*
X114830000Y-88370000D01*
X106180000Y-94520000D02*
X114830000Y-94520000D01*
X106180000Y-88370000D02*
X106180000Y-94520000D01*
X114830000Y-88370000D02*
X106180000Y-88370000D01*
%TO.C,J9*%
X121180000Y-113560000D02*
X121180000Y-109960000D01*
X109980000Y-113560000D02*
X121180000Y-113560000D01*
X109980000Y-109960000D02*
X109980000Y-113560000D01*
X121180000Y-109960000D02*
X109980000Y-109960000D01*
%TO.C,J8*%
X115040000Y-61700000D02*
X115040000Y-67850000D01*
X118640000Y-61700000D02*
X115040000Y-61700000D01*
X115040000Y-67850000D02*
X118640000Y-67850000D01*
X118640000Y-67850000D02*
X118640000Y-61700000D01*
%TO.C,J4*%
X117580000Y-79480000D02*
X117580000Y-88130000D01*
X121180000Y-79480000D02*
X117580000Y-79480000D01*
X117580000Y-88130000D02*
X121180000Y-88130000D01*
X121180000Y-88130000D02*
X121180000Y-79480000D01*
%TO.C,J11*%
X137670000Y-107410000D02*
X126470000Y-107410000D01*
X126470000Y-107410000D02*
X126470000Y-113560000D01*
X137670000Y-113560000D02*
X137670000Y-107410000D01*
X126470000Y-113560000D02*
X137670000Y-113560000D01*
%TO.C,J5*%
X109960000Y-105940000D02*
X121160000Y-105940000D01*
X121160000Y-102340000D02*
X109960000Y-102340000D01*
X121160000Y-105940000D02*
X121160000Y-102340000D01*
X109960000Y-102340000D02*
X109960000Y-105940000D01*
%TO.C,J2*%
X118610000Y-75460000D02*
X118610000Y-71860000D01*
X109960000Y-75460000D02*
X118610000Y-75460000D01*
X118610000Y-71860000D02*
X109960000Y-71860000D01*
X109960000Y-71860000D02*
X109960000Y-75460000D01*
%TO.C,J0*%
X100870000Y-61700000D02*
X94720000Y-61700000D01*
X94720000Y-113550000D02*
X100870000Y-113550000D01*
X100870000Y-113550000D02*
X100870000Y-61700000D01*
X94720000Y-61700000D02*
X94720000Y-113550000D01*
%TO.C,J3*%
X117580000Y-99560000D02*
X121180000Y-99560000D01*
X121180000Y-99560000D02*
X121180000Y-90910000D01*
X117580000Y-90910000D02*
X117580000Y-99560000D01*
X121180000Y-90910000D02*
X117580000Y-90910000D01*
%TO.C,J1*%
X136430000Y-95770000D02*
X136430000Y-69320000D01*
X136430000Y-69320000D02*
X130280000Y-69320000D01*
X130280000Y-69320000D02*
X130280000Y-95770000D01*
X130280000Y-95770000D02*
X136430000Y-95770000D01*
%TD*%
M02*
