%TF.GenerationSoftware,KiCad,Pcbnew,6.0.9-8da3e8f707~117~ubuntu22.04.1*%
%TF.CreationDate,2022-12-19T08:44:55+01:00*%
%TF.ProjectId,rpi-dev-board,7270692d-6465-4762-9d62-6f6172642e6b,rev?*%
%TF.SameCoordinates,Original*%
%TF.FileFunction,Copper,L1,Top*%
%TF.FilePolarity,Positive*%
%FSLAX46Y46*%
G04 Gerber Fmt 4.6, Leading zero omitted, Abs format (unit mm)*
G04 Created by KiCad (PCBNEW 6.0.9-8da3e8f707~117~ubuntu22.04.1) date 2022-12-19 08:44:55*
%MOMM*%
%LPD*%
G01*
G04 APERTURE LIST*
%TA.AperFunction,ComponentPad*%
%ADD10R,1.700000X1.700000*%
%TD*%
%TA.AperFunction,ComponentPad*%
%ADD11O,1.700000X1.700000*%
%TD*%
%TA.AperFunction,ViaPad*%
%ADD12C,0.800000*%
%TD*%
%TA.AperFunction,Conductor*%
%ADD13C,0.250000*%
%TD*%
G04 APERTURE END LIST*
D10*
%TO.P,J7,1,Pin_1*%
%TO.N,Net-(J0-Pad2)*%
X109220000Y-63500000D03*
D11*
%TO.P,J7,2,Pin_2*%
%TO.N,Net-(J0-Pad4)*%
X109220000Y-66040000D03*
%TD*%
D10*
%TO.P,J6,1,Pin_1*%
%TO.N,GND*%
X113030000Y-90170000D03*
D11*
%TO.P,J6,2,Pin_2*%
%TO.N,Net-(J0-Pad26)*%
X113030000Y-92710000D03*
%TO.P,J6,3,Pin_3*%
%TO.N,Net-(J0-Pad24)*%
X110490000Y-90170000D03*
%TO.P,J6,4,Pin_4*%
%TO.N,Net-(J0-Pad21)*%
X110490000Y-92710000D03*
%TO.P,J6,5,Pin_5*%
%TO.N,Net-(J0-Pad19)*%
X107950000Y-90170000D03*
%TO.P,J6,6,Pin_6*%
%TO.N,Net-(J0-Pad23)*%
X107950000Y-92710000D03*
%TD*%
D10*
%TO.P,J9,1,Pin_1*%
%TO.N,GND*%
X119380000Y-111760000D03*
D11*
%TO.P,J9,2,Pin_2*%
X116840000Y-111760000D03*
%TO.P,J9,3,Pin_3*%
X114300000Y-111760000D03*
%TO.P,J9,4,Pin_4*%
X111760000Y-111760000D03*
%TD*%
D10*
%TO.P,J8,1,Pin_1*%
%TO.N,Net-(J0-Pad17)*%
X116840000Y-63500000D03*
D11*
%TO.P,J8,2,Pin_2*%
%TO.N,Net-(J0-Pad1)*%
X116840000Y-66040000D03*
%TD*%
D10*
%TO.P,J4,1,Pin_1*%
%TO.N,GND*%
X119380000Y-81280000D03*
D11*
%TO.P,J4,2,Pin_2*%
%TO.N,Net-(J0-Pad3)*%
X119380000Y-83820000D03*
%TO.P,J4,3,Pin_3*%
%TO.N,Net-(J0-Pad5)*%
X119380000Y-86360000D03*
%TD*%
D10*
%TO.P,J11,1,Pin_1*%
%TO.N,Net-(J0-Pad33)*%
X128270000Y-111760000D03*
D11*
%TO.P,J11,2,Pin_2*%
%TO.N,Net-(J11-Pad2)*%
X128270000Y-109220000D03*
%TO.P,J11,3,Pin_3*%
%TO.N,Net-(J0-Pad31)*%
X130810000Y-111760000D03*
%TO.P,J11,4,Pin_4*%
%TO.N,Net-(J0-Pad32)*%
X130810000Y-109220000D03*
%TO.P,J11,5,Pin_5*%
%TO.N,Net-(J0-Pad11)*%
X133350000Y-111760000D03*
%TO.P,J11,6,Pin_6*%
%TO.N,Net-(J0-Pad36)*%
X133350000Y-109220000D03*
%TO.P,J11,7,Pin_7*%
%TO.N,Net-(J0-Pad7)*%
X135890000Y-111760000D03*
%TO.P,J11,8,Pin_8*%
%TO.N,Net-(J0-Pad12)*%
X135890000Y-109220000D03*
%TD*%
D10*
%TO.P,J5,1,Pin_1*%
%TO.N,GND*%
X111760000Y-104140000D03*
D11*
%TO.P,J5,2,Pin_2*%
%TO.N,Net-(J0-Pad35)*%
X114300000Y-104140000D03*
%TO.P,J5,3,Pin_3*%
%TO.N,Net-(J0-Pad38)*%
X116840000Y-104140000D03*
%TO.P,J5,4,Pin_4*%
%TO.N,Net-(J0-Pad40)*%
X119380000Y-104140000D03*
%TD*%
D10*
%TO.P,J2,1,Pin_1*%
%TO.N,GND*%
X111760000Y-73660000D03*
D11*
%TO.P,J2,2,Pin_2*%
%TO.N,Net-(J0-Pad10)*%
X114300000Y-73660000D03*
%TO.P,J2,3,Pin_3*%
%TO.N,Net-(J0-Pad8)*%
X116840000Y-73660000D03*
%TD*%
D10*
%TO.P,J0,1,3V3*%
%TO.N,Net-(J0-Pad1)*%
X96520000Y-63500000D03*
D11*
%TO.P,J0,2,5V*%
%TO.N,Net-(J0-Pad2)*%
X99060000Y-63500000D03*
%TO.P,J0,3,SDA/GPIO2*%
%TO.N,Net-(J0-Pad3)*%
X96520000Y-66040000D03*
%TO.P,J0,4,5V*%
%TO.N,Net-(J0-Pad4)*%
X99060000Y-66040000D03*
%TO.P,J0,5,SCL/GPIO3*%
%TO.N,Net-(J0-Pad5)*%
X96520000Y-68580000D03*
%TO.P,J0,6,GND*%
%TO.N,GND*%
X99060000Y-68580000D03*
%TO.P,J0,7,GCLK0/GPIO4*%
%TO.N,Net-(J0-Pad7)*%
X96520000Y-71120000D03*
%TO.P,J0,8,GPIO14/TXD*%
%TO.N,Net-(J0-Pad8)*%
X99060000Y-71120000D03*
%TO.P,J0,9,GND*%
%TO.N,GND*%
X96520000Y-73660000D03*
%TO.P,J0,10,GPIO15/RXD*%
%TO.N,Net-(J0-Pad10)*%
X99060000Y-73660000D03*
%TO.P,J0,11,GPIO17*%
%TO.N,Net-(J0-Pad11)*%
X96520000Y-76200000D03*
%TO.P,J0,12,GPIO18/PWM0*%
%TO.N,Net-(J0-Pad12)*%
X99060000Y-76200000D03*
%TO.P,J0,13,GPIO27*%
%TO.N,Net-(J0-Pad13)*%
X96520000Y-78740000D03*
%TO.P,J0,14,GND*%
%TO.N,GND*%
X99060000Y-78740000D03*
%TO.P,J0,15,GPIO22*%
%TO.N,Net-(J0-Pad15)*%
X96520000Y-81280000D03*
%TO.P,J0,16,GPIO23*%
%TO.N,Net-(J0-Pad16)*%
X99060000Y-81280000D03*
%TO.P,J0,17,3V3*%
%TO.N,Net-(J0-Pad17)*%
X96520000Y-83820000D03*
%TO.P,J0,18,GPIO24*%
%TO.N,Net-(J0-Pad18)*%
X99060000Y-83820000D03*
%TO.P,J0,19,MOSI0/GPIO10*%
%TO.N,Net-(J0-Pad19)*%
X96520000Y-86360000D03*
%TO.P,J0,20,GND*%
%TO.N,GND*%
X99060000Y-86360000D03*
%TO.P,J0,21,MISO0/GPIO9*%
%TO.N,Net-(J0-Pad21)*%
X96520000Y-88900000D03*
%TO.P,J0,22,GPIO25*%
%TO.N,Net-(J0-Pad22)*%
X99060000Y-88900000D03*
%TO.P,J0,23,SCLK0/GPIO11*%
%TO.N,Net-(J0-Pad23)*%
X96520000Y-91440000D03*
%TO.P,J0,24,~{CE0}/GPIO8*%
%TO.N,Net-(J0-Pad24)*%
X99060000Y-91440000D03*
%TO.P,J0,25,GND*%
%TO.N,GND*%
X96520000Y-93980000D03*
%TO.P,J0,26,~{CE1}/GPIO7*%
%TO.N,Net-(J0-Pad26)*%
X99060000Y-93980000D03*
%TO.P,J0,27,ID_SD/GPIO0*%
%TO.N,Net-(J0-Pad27)*%
X96520000Y-96520000D03*
%TO.P,J0,28,ID_SC/GPIO1*%
%TO.N,Net-(J0-Pad28)*%
X99060000Y-96520000D03*
%TO.P,J0,29,GCLK1/GPIO5*%
%TO.N,Net-(J11-Pad2)*%
X96520000Y-99060000D03*
%TO.P,J0,30,GND*%
%TO.N,GND*%
X99060000Y-99060000D03*
%TO.P,J0,31,GCLK2/GPIO6*%
%TO.N,Net-(J0-Pad31)*%
X96520000Y-101600000D03*
%TO.P,J0,32,PWM0/GPIO12*%
%TO.N,Net-(J0-Pad32)*%
X99060000Y-101600000D03*
%TO.P,J0,33,PWM1/GPIO13*%
%TO.N,Net-(J0-Pad33)*%
X96520000Y-104140000D03*
%TO.P,J0,34,GND*%
%TO.N,GND*%
X99060000Y-104140000D03*
%TO.P,J0,35,GPIO19/MISO1*%
%TO.N,Net-(J0-Pad35)*%
X96520000Y-106680000D03*
%TO.P,J0,36,GPIO16*%
%TO.N,Net-(J0-Pad36)*%
X99060000Y-106680000D03*
%TO.P,J0,37,GPIO26*%
%TO.N,Net-(J0-Pad37)*%
X96520000Y-109220000D03*
%TO.P,J0,38,GPIO20/MOSI1*%
%TO.N,Net-(J0-Pad38)*%
X99060000Y-109220000D03*
%TO.P,J0,39,GND*%
%TO.N,GND*%
X96520000Y-111760000D03*
%TO.P,J0,40,GPIO21/SCLK1*%
%TO.N,Net-(J0-Pad40)*%
X99060000Y-111760000D03*
%TD*%
D10*
%TO.P,J3,1,Pin_1*%
%TO.N,GND*%
X119380000Y-92710000D03*
D11*
%TO.P,J3,2,Pin_2*%
%TO.N,Net-(J0-Pad27)*%
X119380000Y-95250000D03*
%TO.P,J3,3,Pin_3*%
%TO.N,Net-(J0-Pad28)*%
X119380000Y-97790000D03*
%TD*%
D10*
%TO.P,J1,1,VTREF*%
%TO.N,unconnected-(J1-Pad1)*%
X132080000Y-71120000D03*
D11*
%TO.P,J1,2,VCC/NC*%
%TO.N,unconnected-(J1-Pad2)*%
X134620000Y-71120000D03*
%TO.P,J1,3,~{TRST}*%
%TO.N,Net-(J0-Pad15)*%
X132080000Y-73660000D03*
%TO.P,J1,4,GND*%
%TO.N,GND*%
X134620000Y-73660000D03*
%TO.P,J1,5,TDI*%
%TO.N,Net-(J0-Pad37)*%
X132080000Y-76200000D03*
%TO.P,J1,6,GND*%
%TO.N,GND*%
X134620000Y-76200000D03*
%TO.P,J1,7,TMS/SWDIO*%
%TO.N,Net-(J0-Pad13)*%
X132080000Y-78740000D03*
%TO.P,J1,8,GND*%
%TO.N,GND*%
X134620000Y-78740000D03*
%TO.P,J1,9,TCK/SWDCLK*%
%TO.N,Net-(J0-Pad22)*%
X132080000Y-81280000D03*
%TO.P,J1,10,GND*%
%TO.N,GND*%
X134620000Y-81280000D03*
%TO.P,J1,11,RTCK*%
%TO.N,Net-(J0-Pad16)*%
X132080000Y-83820000D03*
%TO.P,J1,12,GND*%
%TO.N,GND*%
X134620000Y-83820000D03*
%TO.P,J1,13,TDO/SWO*%
%TO.N,Net-(J0-Pad18)*%
X132080000Y-86360000D03*
%TO.P,J1,14,GND*%
%TO.N,GND*%
X134620000Y-86360000D03*
%TO.P,J1,15,~{SRST}*%
%TO.N,unconnected-(J1-Pad15)*%
X132080000Y-88900000D03*
%TO.P,J1,16,GND*%
%TO.N,GND*%
X134620000Y-88900000D03*
%TO.P,J1,17,DBGRQ/NC*%
%TO.N,unconnected-(J1-Pad17)*%
X132080000Y-91440000D03*
%TO.P,J1,18,GND*%
%TO.N,GND*%
X134620000Y-91440000D03*
%TO.P,J1,19,DBGACK/NC*%
%TO.N,unconnected-(J1-Pad19)*%
X132080000Y-93980000D03*
%TO.P,J1,20,GND*%
%TO.N,GND*%
X134620000Y-93980000D03*
%TD*%
D12*
%TO.N,Net-(J0-Pad13)*%
X125730000Y-80010000D03*
X123190000Y-82550000D03*
X123190000Y-82550000D03*
X123190000Y-82550000D03*
%TO.N,Net-(J0-Pad17)*%
X92710000Y-82550000D03*
X92710000Y-82550000D03*
%TO.N,Net-(J0-Pad37)*%
X124460000Y-87630000D03*
X104140000Y-100330000D03*
X104140000Y-100330000D03*
X104140000Y-100330000D03*
%TO.N,Net-(J11-Pad2)*%
X121920000Y-102870000D03*
X121920000Y-102870000D03*
%TD*%
D13*
%TO.N,Net-(J0-Pad1)*%
X99060000Y-60960000D02*
X96520000Y-63500000D01*
X111760000Y-60960000D02*
X99060000Y-60960000D01*
X116840000Y-66040000D02*
X111760000Y-60960000D01*
%TO.N,Net-(J0-Pad2)*%
X99060000Y-63500000D02*
X109220000Y-63500000D01*
%TO.N,Net-(J0-Pad4)*%
X99060000Y-66040000D02*
X109220000Y-66040000D01*
%TO.N,Net-(J0-Pad7)*%
X128270000Y-119380000D02*
X95250000Y-119380000D01*
X135890000Y-111760000D02*
X128270000Y-119380000D01*
X90170000Y-77470000D02*
X96520000Y-71120000D01*
X95250000Y-119380000D02*
X90170000Y-114300000D01*
X90170000Y-114300000D02*
X90170000Y-77470000D01*
%TO.N,Net-(J0-Pad8)*%
X113030000Y-69850000D02*
X116840000Y-73660000D01*
X99060000Y-71120000D02*
X101600000Y-71120000D01*
X101600000Y-71120000D02*
X102870000Y-69850000D01*
X102870000Y-69850000D02*
X113030000Y-69850000D01*
%TO.N,Net-(J0-Pad10)*%
X101600000Y-73660000D02*
X99060000Y-73660000D01*
X111760000Y-71120000D02*
X104140000Y-71120000D01*
X104140000Y-71120000D02*
X101600000Y-73660000D01*
X114300000Y-73660000D02*
X111760000Y-71120000D01*
%TO.N,Net-(J0-Pad11)*%
X95250000Y-118110000D02*
X91440000Y-114300000D01*
X127000000Y-118110000D02*
X95250000Y-118110000D01*
X133350000Y-111760000D02*
X127000000Y-118110000D01*
X91440000Y-114300000D02*
X91440000Y-81280000D01*
X91440000Y-81280000D02*
X96520000Y-76200000D01*
%TO.N,Net-(J0-Pad13)*%
X97695000Y-81576701D02*
X97695000Y-79915000D01*
X98763299Y-82645000D02*
X97695000Y-81576701D01*
X100721701Y-83820000D02*
X99546701Y-82645000D01*
X116840000Y-88900000D02*
X111760000Y-83820000D01*
X99546701Y-82645000D02*
X98763299Y-82645000D01*
X111760000Y-83820000D02*
X100721701Y-83820000D01*
X123190000Y-82550000D02*
X123190000Y-86360000D01*
X127000000Y-78740000D02*
X125730000Y-80010000D01*
X120650000Y-88900000D02*
X116840000Y-88900000D01*
X97695000Y-79915000D02*
X96520000Y-78740000D01*
X123190000Y-86360000D02*
X120650000Y-88900000D01*
X132080000Y-78740000D02*
X127000000Y-78740000D01*
%TO.N,Net-(J0-Pad15)*%
X128270000Y-77470000D02*
X95886396Y-77470000D01*
X132080000Y-73660000D02*
X128270000Y-77470000D01*
X95250000Y-80010000D02*
X96520000Y-81280000D01*
X95250000Y-78106396D02*
X95250000Y-80010000D01*
X95886396Y-77470000D02*
X95250000Y-78106396D01*
%TO.N,Net-(J0-Pad16)*%
X101600000Y-78740000D02*
X99060000Y-81280000D01*
X121920000Y-78740000D02*
X101600000Y-78740000D01*
X127000000Y-83820000D02*
X121920000Y-78740000D01*
X132080000Y-83820000D02*
X127000000Y-83820000D01*
%TO.N,Net-(J0-Pad17)*%
X96520000Y-83820000D02*
X93980000Y-83820000D01*
X93980000Y-83820000D02*
X92710000Y-82550000D01*
%TO.N,Net-(J0-Pad19)*%
X107950000Y-90170000D02*
X102870000Y-90170000D01*
X97790000Y-87630000D02*
X96520000Y-86360000D01*
X102870000Y-90170000D02*
X100330000Y-87630000D01*
X100330000Y-87630000D02*
X97790000Y-87630000D01*
%TO.N,Net-(J0-Pad23)*%
X107950000Y-92710000D02*
X97790000Y-92710000D01*
X97790000Y-92710000D02*
X96520000Y-91440000D01*
%TO.N,Net-(J0-Pad24)*%
X109220000Y-91440000D02*
X99060000Y-91440000D01*
X110490000Y-90170000D02*
X109220000Y-91440000D01*
%TO.N,Net-(J0-Pad26)*%
X113030000Y-92710000D02*
X111760000Y-93980000D01*
X111760000Y-93980000D02*
X99060000Y-93980000D01*
%TO.N,Net-(J0-Pad27)*%
X97790000Y-95250000D02*
X96520000Y-96520000D01*
X119380000Y-95250000D02*
X97790000Y-95250000D01*
%TO.N,Net-(J0-Pad28)*%
X115570000Y-96520000D02*
X99060000Y-96520000D01*
X119380000Y-97790000D02*
X116840000Y-97790000D01*
X116840000Y-97790000D02*
X115570000Y-96520000D01*
%TO.N,Net-(J0-Pad31)*%
X92710000Y-114300000D02*
X92710000Y-105410000D01*
X125730000Y-116840000D02*
X95250000Y-116840000D01*
X95250000Y-116840000D02*
X92710000Y-114300000D01*
X130810000Y-111760000D02*
X125730000Y-116840000D01*
X92710000Y-105410000D02*
X96520000Y-101600000D01*
%TO.N,Net-(J0-Pad32)*%
X130810000Y-109220000D02*
X123190000Y-101600000D01*
X123190000Y-101600000D02*
X99060000Y-101600000D01*
%TO.N,Net-(J0-Pad33)*%
X93980000Y-114300000D02*
X93980000Y-106680000D01*
X93980000Y-106680000D02*
X96520000Y-104140000D01*
X124460000Y-115570000D02*
X95250000Y-115570000D01*
X95250000Y-115570000D02*
X93980000Y-114300000D01*
X128270000Y-111760000D02*
X124460000Y-115570000D01*
%TO.N,Net-(J0-Pad35)*%
X105410000Y-107950000D02*
X106680000Y-106680000D01*
X114300000Y-104140000D02*
X113030000Y-105410000D01*
X102870000Y-107950000D02*
X105410000Y-107950000D01*
X96520000Y-106680000D02*
X97790000Y-107950000D01*
X107950000Y-105410000D02*
X106680000Y-106680000D01*
X113030000Y-105410000D02*
X107950000Y-105410000D01*
X97790000Y-107950000D02*
X102870000Y-107950000D01*
%TO.N,Net-(J0-Pad37)*%
X124460000Y-87630000D02*
X124460000Y-94371701D01*
X118501701Y-100330000D02*
X104140000Y-100330000D01*
X124460000Y-94371701D02*
X118501701Y-100330000D01*
%TO.N,Net-(J0-Pad38)*%
X109220000Y-106680000D02*
X106680000Y-109220000D01*
X116840000Y-104140000D02*
X114300000Y-106680000D01*
X114300000Y-106680000D02*
X109220000Y-106680000D01*
X106680000Y-109220000D02*
X99060000Y-109220000D01*
%TO.N,Net-(J0-Pad40)*%
X106680000Y-111760000D02*
X99060000Y-111760000D01*
X115570000Y-107950000D02*
X110490000Y-107950000D01*
X119380000Y-104140000D02*
X115570000Y-107950000D01*
X110490000Y-107950000D02*
X106680000Y-111760000D01*
%TO.N,Net-(J11-Pad2)*%
X128270000Y-109220000D02*
X121920000Y-102870000D01*
%TD*%
%TA.AperFunction,Conductor*%
%TO.N,GND*%
G36*
X139133621Y-58948502D02*
G01*
X139180114Y-59002158D01*
X139191500Y-59054500D01*
X139191500Y-120015500D01*
X139171498Y-120083621D01*
X139117842Y-120130114D01*
X139065500Y-120141500D01*
X128687449Y-120141500D01*
X128619328Y-120121498D01*
X128572835Y-120067842D01*
X128562731Y-119997568D01*
X128592225Y-119932988D01*
X128623309Y-119907047D01*
X128654534Y-119888580D01*
X128661362Y-119884542D01*
X128675683Y-119870221D01*
X128690717Y-119857380D01*
X128700694Y-119850131D01*
X128707107Y-119845472D01*
X128735298Y-119811395D01*
X128743288Y-119802616D01*
X130482065Y-118063839D01*
X135397173Y-118063839D01*
X135398893Y-118099647D01*
X135409713Y-118324908D01*
X135460704Y-118581256D01*
X135549026Y-118827252D01*
X135551242Y-118831376D01*
X135615753Y-118951437D01*
X135672737Y-119057491D01*
X135675532Y-119061234D01*
X135675534Y-119061237D01*
X135826330Y-119263177D01*
X135826335Y-119263183D01*
X135829122Y-119266915D01*
X135832431Y-119270195D01*
X135832436Y-119270201D01*
X136011426Y-119447635D01*
X136014743Y-119450923D01*
X136018505Y-119453681D01*
X136018508Y-119453684D01*
X136221750Y-119602707D01*
X136225524Y-119605474D01*
X136229667Y-119607654D01*
X136229669Y-119607655D01*
X136452684Y-119724989D01*
X136452689Y-119724991D01*
X136456834Y-119727172D01*
X136703590Y-119813344D01*
X136708183Y-119814216D01*
X136955785Y-119861224D01*
X136955788Y-119861224D01*
X136960374Y-119862095D01*
X137090958Y-119867226D01*
X137216875Y-119872174D01*
X137216881Y-119872174D01*
X137221543Y-119872357D01*
X137305090Y-119863207D01*
X137476707Y-119844412D01*
X137476712Y-119844411D01*
X137481360Y-119843902D01*
X137498589Y-119839366D01*
X137729594Y-119778548D01*
X137729596Y-119778547D01*
X137734117Y-119777357D01*
X137974262Y-119674182D01*
X138196519Y-119536646D01*
X138200082Y-119533629D01*
X138200087Y-119533626D01*
X138392439Y-119370787D01*
X138392440Y-119370786D01*
X138396005Y-119367768D01*
X138487729Y-119263177D01*
X138565257Y-119174774D01*
X138565261Y-119174769D01*
X138568339Y-119171259D01*
X138709733Y-118951437D01*
X138817083Y-118713129D01*
X138888030Y-118461572D01*
X138904832Y-118329496D01*
X138920616Y-118205421D01*
X138920616Y-118205417D01*
X138921014Y-118202291D01*
X138923431Y-118110000D01*
X138904061Y-117849348D01*
X138892725Y-117799248D01*
X138847408Y-117598980D01*
X138846377Y-117594423D01*
X138822149Y-117532121D01*
X138753340Y-117355176D01*
X138753339Y-117355173D01*
X138751647Y-117350823D01*
X138741214Y-117332568D01*
X138624270Y-117127960D01*
X138621951Y-117123902D01*
X138460138Y-116918643D01*
X138269763Y-116739557D01*
X138055009Y-116590576D01*
X138050816Y-116588508D01*
X137824781Y-116477040D01*
X137824778Y-116477039D01*
X137820593Y-116474975D01*
X137774449Y-116460204D01*
X137576123Y-116396720D01*
X137571665Y-116395293D01*
X137313693Y-116353279D01*
X137199942Y-116351790D01*
X137057022Y-116349919D01*
X137057019Y-116349919D01*
X137052345Y-116349858D01*
X136793362Y-116385104D01*
X136542433Y-116458243D01*
X136538180Y-116460203D01*
X136538179Y-116460204D01*
X136501659Y-116477040D01*
X136305072Y-116567668D01*
X136266067Y-116593241D01*
X136090404Y-116708410D01*
X136090399Y-116708414D01*
X136086491Y-116710976D01*
X135891494Y-116885018D01*
X135724363Y-117085970D01*
X135721934Y-117089973D01*
X135617907Y-117261405D01*
X135588771Y-117309419D01*
X135487697Y-117550455D01*
X135423359Y-117803783D01*
X135397173Y-118063839D01*
X130482065Y-118063839D01*
X135434549Y-113111355D01*
X135496861Y-113077329D01*
X135548762Y-113076979D01*
X135728597Y-113113567D01*
X135733772Y-113113757D01*
X135733774Y-113113757D01*
X135946673Y-113121564D01*
X135946677Y-113121564D01*
X135951837Y-113121753D01*
X135956957Y-113121097D01*
X135956959Y-113121097D01*
X136168288Y-113094025D01*
X136168289Y-113094025D01*
X136173416Y-113093368D01*
X136178366Y-113091883D01*
X136382429Y-113030661D01*
X136382434Y-113030659D01*
X136387384Y-113029174D01*
X136587994Y-112930896D01*
X136769860Y-112801173D01*
X136928096Y-112643489D01*
X137058453Y-112462077D01*
X137062145Y-112454608D01*
X137155136Y-112266453D01*
X137155137Y-112266451D01*
X137157430Y-112261811D01*
X137222370Y-112048069D01*
X137251529Y-111826590D01*
X137253156Y-111760000D01*
X137234852Y-111537361D01*
X137180431Y-111320702D01*
X137091354Y-111115840D01*
X136970014Y-110928277D01*
X136819670Y-110763051D01*
X136815619Y-110759852D01*
X136815615Y-110759848D01*
X136648414Y-110627800D01*
X136648410Y-110627798D01*
X136644359Y-110624598D01*
X136603053Y-110601796D01*
X136553084Y-110551364D01*
X136538312Y-110481921D01*
X136563428Y-110415516D01*
X136590780Y-110388909D01*
X136634603Y-110357650D01*
X136769860Y-110261173D01*
X136928096Y-110103489D01*
X136987594Y-110020689D01*
X137055435Y-109926277D01*
X137058453Y-109922077D01*
X137062145Y-109914608D01*
X137155136Y-109726453D01*
X137155137Y-109726451D01*
X137157430Y-109721811D01*
X137222370Y-109508069D01*
X137251529Y-109286590D01*
X137253156Y-109220000D01*
X137234852Y-108997361D01*
X137180431Y-108780702D01*
X137091354Y-108575840D01*
X137009253Y-108448931D01*
X136972822Y-108392617D01*
X136972820Y-108392614D01*
X136970014Y-108388277D01*
X136819670Y-108223051D01*
X136815619Y-108219852D01*
X136815615Y-108219848D01*
X136648414Y-108087800D01*
X136648410Y-108087798D01*
X136644359Y-108084598D01*
X136448789Y-107976638D01*
X136443920Y-107974914D01*
X136443916Y-107974912D01*
X136243087Y-107903795D01*
X136243083Y-107903794D01*
X136238212Y-107902069D01*
X136233119Y-107901162D01*
X136233116Y-107901161D01*
X136023373Y-107863800D01*
X136023367Y-107863799D01*
X136018284Y-107862894D01*
X135944452Y-107861992D01*
X135800081Y-107860228D01*
X135800079Y-107860228D01*
X135794911Y-107860165D01*
X135574091Y-107893955D01*
X135361756Y-107963357D01*
X135163607Y-108066507D01*
X135159474Y-108069610D01*
X135159471Y-108069612D01*
X135135247Y-108087800D01*
X134984965Y-108200635D01*
X134830629Y-108362138D01*
X134723201Y-108519621D01*
X134668293Y-108564621D01*
X134597768Y-108572792D01*
X134534021Y-108541538D01*
X134513324Y-108517054D01*
X134432822Y-108392617D01*
X134432820Y-108392614D01*
X134430014Y-108388277D01*
X134279670Y-108223051D01*
X134275619Y-108219852D01*
X134275615Y-108219848D01*
X134108414Y-108087800D01*
X134108410Y-108087798D01*
X134104359Y-108084598D01*
X133908789Y-107976638D01*
X133903920Y-107974914D01*
X133903916Y-107974912D01*
X133703087Y-107903795D01*
X133703083Y-107903794D01*
X133698212Y-107902069D01*
X133693119Y-107901162D01*
X133693116Y-107901161D01*
X133483373Y-107863800D01*
X133483367Y-107863799D01*
X133478284Y-107862894D01*
X133404452Y-107861992D01*
X133260081Y-107860228D01*
X133260079Y-107860228D01*
X133254911Y-107860165D01*
X133034091Y-107893955D01*
X132821756Y-107963357D01*
X132623607Y-108066507D01*
X132619474Y-108069610D01*
X132619471Y-108069612D01*
X132595247Y-108087800D01*
X132444965Y-108200635D01*
X132290629Y-108362138D01*
X132183201Y-108519621D01*
X132128293Y-108564621D01*
X132057768Y-108572792D01*
X131994021Y-108541538D01*
X131973324Y-108517054D01*
X131892822Y-108392617D01*
X131892820Y-108392614D01*
X131890014Y-108388277D01*
X131739670Y-108223051D01*
X131735619Y-108219852D01*
X131735615Y-108219848D01*
X131568414Y-108087800D01*
X131568410Y-108087798D01*
X131564359Y-108084598D01*
X131368789Y-107976638D01*
X131363920Y-107974914D01*
X131363916Y-107974912D01*
X131163087Y-107903795D01*
X131163083Y-107903794D01*
X131158212Y-107902069D01*
X131153119Y-107901162D01*
X131153116Y-107901161D01*
X130943373Y-107863800D01*
X130943367Y-107863799D01*
X130938284Y-107862894D01*
X130864452Y-107861992D01*
X130720081Y-107860228D01*
X130720079Y-107860228D01*
X130714911Y-107860165D01*
X130494091Y-107893955D01*
X130481532Y-107898060D01*
X130410568Y-107900210D01*
X130353294Y-107867389D01*
X123693652Y-101207747D01*
X123686112Y-101199461D01*
X123682000Y-101192982D01*
X123632348Y-101146356D01*
X123629507Y-101143602D01*
X123609770Y-101123865D01*
X123606573Y-101121385D01*
X123597551Y-101113680D01*
X123565321Y-101083414D01*
X123558375Y-101079595D01*
X123558372Y-101079593D01*
X123547566Y-101073652D01*
X123531047Y-101062801D01*
X123530583Y-101062441D01*
X123515041Y-101050386D01*
X123507772Y-101047241D01*
X123507768Y-101047238D01*
X123474463Y-101032826D01*
X123463813Y-101027609D01*
X123425060Y-101006305D01*
X123405437Y-101001267D01*
X123386734Y-100994863D01*
X123375420Y-100989967D01*
X123375419Y-100989967D01*
X123368145Y-100986819D01*
X123360322Y-100985580D01*
X123360312Y-100985577D01*
X123324476Y-100979901D01*
X123312856Y-100977495D01*
X123277711Y-100968472D01*
X123277710Y-100968472D01*
X123270030Y-100966500D01*
X123249776Y-100966500D01*
X123230065Y-100964949D01*
X123217886Y-100963020D01*
X123210057Y-100961780D01*
X123202165Y-100962526D01*
X123166039Y-100965941D01*
X123154181Y-100966500D01*
X119065295Y-100966500D01*
X118997174Y-100946498D01*
X118950681Y-100892842D01*
X118940577Y-100822568D01*
X118970071Y-100757988D01*
X118976200Y-100751405D01*
X124852247Y-94875358D01*
X124860537Y-94867814D01*
X124867018Y-94863701D01*
X124913659Y-94814033D01*
X124916413Y-94811192D01*
X124936134Y-94791471D01*
X124938612Y-94788276D01*
X124946318Y-94779254D01*
X124971158Y-94752802D01*
X124976586Y-94747022D01*
X124986346Y-94729269D01*
X124997199Y-94712746D01*
X125004753Y-94703007D01*
X125009613Y-94696742D01*
X125027176Y-94656158D01*
X125032383Y-94645528D01*
X125053695Y-94606761D01*
X125055666Y-94599084D01*
X125055668Y-94599079D01*
X125058732Y-94587143D01*
X125065138Y-94568431D01*
X125066183Y-94566018D01*
X125073181Y-94549846D01*
X125074421Y-94542018D01*
X125074423Y-94542011D01*
X125080099Y-94506177D01*
X125082505Y-94494557D01*
X125091528Y-94459412D01*
X125091528Y-94459411D01*
X125093500Y-94451731D01*
X125093500Y-94431477D01*
X125095051Y-94411766D01*
X125096980Y-94399587D01*
X125098220Y-94391758D01*
X125094059Y-94347739D01*
X125093500Y-94335882D01*
X125093500Y-88332524D01*
X125113502Y-88264403D01*
X125125858Y-88248221D01*
X125199040Y-88166944D01*
X125273072Y-88038717D01*
X125291223Y-88007279D01*
X125291224Y-88007278D01*
X125294527Y-88001556D01*
X125353542Y-87819928D01*
X125358977Y-87768222D01*
X125372814Y-87636565D01*
X125373504Y-87630000D01*
X125353542Y-87440072D01*
X125294527Y-87258444D01*
X125199040Y-87093056D01*
X125184798Y-87077238D01*
X125075675Y-86956045D01*
X125075674Y-86956044D01*
X125071253Y-86951134D01*
X124942252Y-86857409D01*
X124922094Y-86842763D01*
X124922093Y-86842762D01*
X124916752Y-86838882D01*
X124910724Y-86836198D01*
X124910722Y-86836197D01*
X124748319Y-86763891D01*
X124748318Y-86763891D01*
X124742288Y-86761206D01*
X124647702Y-86741101D01*
X124561944Y-86722872D01*
X124561939Y-86722872D01*
X124555487Y-86721500D01*
X124364513Y-86721500D01*
X124358061Y-86722872D01*
X124358056Y-86722872D01*
X124272298Y-86741101D01*
X124177712Y-86761206D01*
X124171682Y-86763891D01*
X124171681Y-86763891D01*
X124009278Y-86836197D01*
X124009276Y-86836198D01*
X124003248Y-86838882D01*
X123997907Y-86842762D01*
X123997906Y-86842763D01*
X123977748Y-86857409D01*
X123848747Y-86951134D01*
X123847258Y-86952787D01*
X123841437Y-86955581D01*
X123829229Y-86972811D01*
X123735203Y-87077238D01*
X123720960Y-87093056D01*
X123625473Y-87258444D01*
X123566458Y-87440072D01*
X123546496Y-87630000D01*
X123547186Y-87636565D01*
X123561024Y-87768222D01*
X123566458Y-87819928D01*
X123625473Y-88001556D01*
X123628776Y-88007278D01*
X123628777Y-88007279D01*
X123646928Y-88038717D01*
X123720960Y-88166944D01*
X123794137Y-88248215D01*
X123824853Y-88312221D01*
X123826500Y-88332524D01*
X123826500Y-94057106D01*
X123806498Y-94125227D01*
X123789595Y-94146201D01*
X120773515Y-97162281D01*
X120711203Y-97196307D01*
X120640388Y-97191242D01*
X120583552Y-97148695D01*
X120578628Y-97141626D01*
X120462822Y-96962617D01*
X120462820Y-96962614D01*
X120460014Y-96958277D01*
X120309670Y-96793051D01*
X120305619Y-96789852D01*
X120305615Y-96789848D01*
X120138414Y-96657800D01*
X120138410Y-96657798D01*
X120134359Y-96654598D01*
X120093053Y-96631796D01*
X120043084Y-96581364D01*
X120028312Y-96511921D01*
X120053428Y-96445516D01*
X120080780Y-96418909D01*
X120124603Y-96387650D01*
X120259860Y-96291173D01*
X120418096Y-96133489D01*
X120426710Y-96121502D01*
X120545435Y-95956277D01*
X120548453Y-95952077D01*
X120552611Y-95943665D01*
X120645136Y-95756453D01*
X120645137Y-95756451D01*
X120647430Y-95751811D01*
X120712370Y-95538069D01*
X120741529Y-95316590D01*
X120741611Y-95313240D01*
X120743074Y-95253365D01*
X120743074Y-95253361D01*
X120743156Y-95250000D01*
X120724852Y-95027361D01*
X120670431Y-94810702D01*
X120581354Y-94605840D01*
X120501116Y-94481811D01*
X120462822Y-94422617D01*
X120462820Y-94422614D01*
X120460014Y-94418277D01*
X120456540Y-94414459D01*
X120456533Y-94414450D01*
X120312435Y-94256088D01*
X120281383Y-94192242D01*
X120289779Y-94121744D01*
X120334956Y-94066976D01*
X120361400Y-94053307D01*
X120468052Y-94013325D01*
X120483649Y-94004786D01*
X120585724Y-93928285D01*
X120598285Y-93915724D01*
X120674786Y-93813649D01*
X120683324Y-93798054D01*
X120728478Y-93677606D01*
X120732105Y-93662351D01*
X120737631Y-93611486D01*
X120738000Y-93604672D01*
X120738000Y-92982115D01*
X120733525Y-92966876D01*
X120732135Y-92965671D01*
X120724452Y-92964000D01*
X118040116Y-92964000D01*
X118024877Y-92968475D01*
X118023672Y-92969865D01*
X118022001Y-92977548D01*
X118022001Y-93604669D01*
X118022371Y-93611490D01*
X118027895Y-93662352D01*
X118031521Y-93677604D01*
X118076676Y-93798054D01*
X118085214Y-93813649D01*
X118161715Y-93915724D01*
X118174276Y-93928285D01*
X118276351Y-94004786D01*
X118291946Y-94013324D01*
X118400827Y-94054142D01*
X118457591Y-94096784D01*
X118482291Y-94163345D01*
X118467083Y-94232694D01*
X118447691Y-94259175D01*
X118328534Y-94383866D01*
X118320629Y-94392138D01*
X118317715Y-94396410D01*
X118317714Y-94396411D01*
X118205095Y-94561504D01*
X118150184Y-94606507D01*
X118101007Y-94616500D01*
X112323594Y-94616500D01*
X112255473Y-94596498D01*
X112208980Y-94542842D01*
X112198876Y-94472568D01*
X112228370Y-94407988D01*
X112234499Y-94401405D01*
X112574549Y-94061355D01*
X112636861Y-94027329D01*
X112688762Y-94026979D01*
X112868597Y-94063567D01*
X112873772Y-94063757D01*
X112873774Y-94063757D01*
X113086673Y-94071564D01*
X113086677Y-94071564D01*
X113091837Y-94071753D01*
X113096957Y-94071097D01*
X113096959Y-94071097D01*
X113308288Y-94044025D01*
X113308289Y-94044025D01*
X113313416Y-94043368D01*
X113318366Y-94041883D01*
X113522429Y-93980661D01*
X113522434Y-93980659D01*
X113527384Y-93979174D01*
X113727994Y-93880896D01*
X113909860Y-93751173D01*
X113946980Y-93714183D01*
X114064435Y-93597137D01*
X114068096Y-93593489D01*
X114198453Y-93412077D01*
X114236132Y-93335840D01*
X114295136Y-93216453D01*
X114295137Y-93216451D01*
X114297430Y-93211811D01*
X114362370Y-92998069D01*
X114391529Y-92776590D01*
X114391657Y-92771364D01*
X114393074Y-92713365D01*
X114393074Y-92713361D01*
X114393156Y-92710000D01*
X114374852Y-92487361D01*
X114362424Y-92437885D01*
X118022000Y-92437885D01*
X118026475Y-92453124D01*
X118027865Y-92454329D01*
X118035548Y-92456000D01*
X119107885Y-92456000D01*
X119123124Y-92451525D01*
X119124329Y-92450135D01*
X119126000Y-92442452D01*
X119126000Y-92437885D01*
X119634000Y-92437885D01*
X119638475Y-92453124D01*
X119639865Y-92454329D01*
X119647548Y-92456000D01*
X120719884Y-92456000D01*
X120735123Y-92451525D01*
X120736328Y-92450135D01*
X120737999Y-92442452D01*
X120737999Y-91815331D01*
X120737629Y-91808510D01*
X120732105Y-91757648D01*
X120728479Y-91742396D01*
X120683324Y-91621946D01*
X120674786Y-91606351D01*
X120598285Y-91504276D01*
X120585724Y-91491715D01*
X120483649Y-91415214D01*
X120468054Y-91406676D01*
X120347606Y-91361522D01*
X120332351Y-91357895D01*
X120281486Y-91352369D01*
X120274672Y-91352000D01*
X119652115Y-91352000D01*
X119636876Y-91356475D01*
X119635671Y-91357865D01*
X119634000Y-91365548D01*
X119634000Y-92437885D01*
X119126000Y-92437885D01*
X119126000Y-91370116D01*
X119121525Y-91354877D01*
X119120135Y-91353672D01*
X119112452Y-91352001D01*
X118485331Y-91352001D01*
X118478510Y-91352371D01*
X118427648Y-91357895D01*
X118412396Y-91361521D01*
X118291946Y-91406676D01*
X118276351Y-91415214D01*
X118174276Y-91491715D01*
X118161715Y-91504276D01*
X118085214Y-91606351D01*
X118076676Y-91621946D01*
X118031522Y-91742394D01*
X118027895Y-91757649D01*
X118022369Y-91808514D01*
X118022000Y-91815328D01*
X118022000Y-92437885D01*
X114362424Y-92437885D01*
X114320431Y-92270702D01*
X114231354Y-92065840D01*
X114151116Y-91941811D01*
X114112822Y-91882617D01*
X114112820Y-91882614D01*
X114110014Y-91878277D01*
X114106538Y-91874457D01*
X114106533Y-91874450D01*
X113962435Y-91716088D01*
X113931383Y-91652242D01*
X113939779Y-91581744D01*
X113984956Y-91526976D01*
X114011400Y-91513307D01*
X114118052Y-91473325D01*
X114133649Y-91464786D01*
X114235724Y-91388285D01*
X114248285Y-91375724D01*
X114324786Y-91273649D01*
X114333324Y-91258054D01*
X114378478Y-91137606D01*
X114382105Y-91122351D01*
X114387631Y-91071486D01*
X114388000Y-91064672D01*
X114388000Y-90442115D01*
X114383525Y-90426876D01*
X114382135Y-90425671D01*
X114374452Y-90424000D01*
X112902000Y-90424000D01*
X112833879Y-90403998D01*
X112787386Y-90350342D01*
X112776000Y-90298000D01*
X112776000Y-89897885D01*
X113284000Y-89897885D01*
X113288475Y-89913124D01*
X113289865Y-89914329D01*
X113297548Y-89916000D01*
X114369884Y-89916000D01*
X114385123Y-89911525D01*
X114386328Y-89910135D01*
X114387999Y-89902452D01*
X114387999Y-89275331D01*
X114387629Y-89268510D01*
X114382105Y-89217648D01*
X114378479Y-89202396D01*
X114333324Y-89081946D01*
X114324786Y-89066351D01*
X114248285Y-88964276D01*
X114235724Y-88951715D01*
X114133649Y-88875214D01*
X114118054Y-88866676D01*
X113997606Y-88821522D01*
X113982351Y-88817895D01*
X113931486Y-88812369D01*
X113924672Y-88812000D01*
X113302115Y-88812000D01*
X113286876Y-88816475D01*
X113285671Y-88817865D01*
X113284000Y-88825548D01*
X113284000Y-89897885D01*
X112776000Y-89897885D01*
X112776000Y-88830116D01*
X112771525Y-88814877D01*
X112770135Y-88813672D01*
X112762452Y-88812001D01*
X112135331Y-88812001D01*
X112128510Y-88812371D01*
X112077648Y-88817895D01*
X112062396Y-88821521D01*
X111941946Y-88866676D01*
X111926351Y-88875214D01*
X111824276Y-88951715D01*
X111811715Y-88964276D01*
X111735214Y-89066351D01*
X111726676Y-89081946D01*
X111685297Y-89192322D01*
X111642655Y-89249087D01*
X111576093Y-89273786D01*
X111506744Y-89258578D01*
X111474121Y-89232891D01*
X111423151Y-89176876D01*
X111423145Y-89176870D01*
X111419670Y-89173051D01*
X111415619Y-89169852D01*
X111415615Y-89169848D01*
X111248414Y-89037800D01*
X111248410Y-89037798D01*
X111244359Y-89034598D01*
X111048789Y-88926638D01*
X111043920Y-88924914D01*
X111043916Y-88924912D01*
X110843087Y-88853795D01*
X110843083Y-88853794D01*
X110838212Y-88852069D01*
X110833119Y-88851162D01*
X110833116Y-88851161D01*
X110623373Y-88813800D01*
X110623367Y-88813799D01*
X110618284Y-88812894D01*
X110544452Y-88811992D01*
X110400081Y-88810228D01*
X110400079Y-88810228D01*
X110394911Y-88810165D01*
X110174091Y-88843955D01*
X109961756Y-88913357D01*
X109931443Y-88929137D01*
X109859497Y-88966590D01*
X109763607Y-89016507D01*
X109759474Y-89019610D01*
X109759471Y-89019612D01*
X109659374Y-89094767D01*
X109584965Y-89150635D01*
X109554192Y-89182837D01*
X109439748Y-89302596D01*
X109430629Y-89312138D01*
X109323201Y-89469621D01*
X109268293Y-89514621D01*
X109197768Y-89522792D01*
X109134021Y-89491538D01*
X109113324Y-89467054D01*
X109032822Y-89342617D01*
X109032820Y-89342614D01*
X109030014Y-89338277D01*
X108879670Y-89173051D01*
X108875619Y-89169852D01*
X108875615Y-89169848D01*
X108708414Y-89037800D01*
X108708410Y-89037798D01*
X108704359Y-89034598D01*
X108508789Y-88926638D01*
X108503920Y-88924914D01*
X108503916Y-88924912D01*
X108303087Y-88853795D01*
X108303083Y-88853794D01*
X108298212Y-88852069D01*
X108293119Y-88851162D01*
X108293116Y-88851161D01*
X108083373Y-88813800D01*
X108083367Y-88813799D01*
X108078284Y-88812894D01*
X108004452Y-88811992D01*
X107860081Y-88810228D01*
X107860079Y-88810228D01*
X107854911Y-88810165D01*
X107634091Y-88843955D01*
X107421756Y-88913357D01*
X107391443Y-88929137D01*
X107319497Y-88966590D01*
X107223607Y-89016507D01*
X107219474Y-89019610D01*
X107219471Y-89019612D01*
X107119374Y-89094767D01*
X107044965Y-89150635D01*
X107014192Y-89182837D01*
X106899748Y-89302596D01*
X106890629Y-89312138D01*
X106887720Y-89316403D01*
X106887714Y-89316411D01*
X106775095Y-89481504D01*
X106720184Y-89526507D01*
X106671007Y-89536500D01*
X103184595Y-89536500D01*
X103116474Y-89516498D01*
X103095500Y-89499595D01*
X100833652Y-87237747D01*
X100826112Y-87229461D01*
X100822000Y-87222982D01*
X100772348Y-87176356D01*
X100769507Y-87173602D01*
X100749770Y-87153865D01*
X100746573Y-87151385D01*
X100737551Y-87143680D01*
X100711100Y-87118841D01*
X100705321Y-87113414D01*
X100698375Y-87109595D01*
X100698372Y-87109593D01*
X100687566Y-87103652D01*
X100671047Y-87092801D01*
X100665048Y-87088148D01*
X100655041Y-87080386D01*
X100647772Y-87077241D01*
X100647768Y-87077238D01*
X100614463Y-87062826D01*
X100603813Y-87057609D01*
X100565060Y-87036305D01*
X100545437Y-87031267D01*
X100526734Y-87024863D01*
X100515420Y-87019967D01*
X100515419Y-87019967D01*
X100508145Y-87016819D01*
X100500322Y-87015580D01*
X100500312Y-87015577D01*
X100464476Y-87009901D01*
X100452858Y-87007495D01*
X100422452Y-86999689D01*
X100361444Y-86963377D01*
X100329754Y-86899845D01*
X100333225Y-86841018D01*
X100390377Y-86652910D01*
X100392555Y-86642837D01*
X100393986Y-86631962D01*
X100391775Y-86617778D01*
X100378617Y-86614000D01*
X98932000Y-86614000D01*
X98863879Y-86593998D01*
X98817386Y-86540342D01*
X98806000Y-86488000D01*
X98806000Y-86232000D01*
X98826002Y-86163879D01*
X98879658Y-86117386D01*
X98932000Y-86106000D01*
X100378344Y-86106000D01*
X100391875Y-86102027D01*
X100393180Y-86092947D01*
X100351214Y-85925875D01*
X100347894Y-85916124D01*
X100262972Y-85720814D01*
X100258105Y-85711739D01*
X100142426Y-85532926D01*
X100136136Y-85524757D01*
X99992806Y-85367240D01*
X99985273Y-85360215D01*
X99818139Y-85228222D01*
X99809556Y-85222520D01*
X99772602Y-85202120D01*
X99722631Y-85151687D01*
X99707859Y-85082245D01*
X99732975Y-85015839D01*
X99760327Y-84989232D01*
X99783797Y-84972491D01*
X99939860Y-84861173D01*
X100098096Y-84703489D01*
X100157594Y-84620689D01*
X100225435Y-84526277D01*
X100228453Y-84522077D01*
X100267095Y-84443891D01*
X100315207Y-84391685D01*
X100383908Y-84373778D01*
X100430081Y-84384077D01*
X100433817Y-84385693D01*
X100437235Y-84387172D01*
X100447887Y-84392390D01*
X100486641Y-84413695D01*
X100494316Y-84415666D01*
X100494317Y-84415666D01*
X100506263Y-84418733D01*
X100524967Y-84425137D01*
X100524970Y-84425138D01*
X100543556Y-84433181D01*
X100551379Y-84434420D01*
X100551389Y-84434423D01*
X100587225Y-84440099D01*
X100598845Y-84442505D01*
X100633990Y-84451528D01*
X100641671Y-84453500D01*
X100661925Y-84453500D01*
X100681635Y-84455051D01*
X100701644Y-84458220D01*
X100709536Y-84457474D01*
X100745662Y-84454059D01*
X100757520Y-84453500D01*
X111445406Y-84453500D01*
X111513527Y-84473502D01*
X111534501Y-84490405D01*
X116336348Y-89292253D01*
X116343888Y-89300539D01*
X116348000Y-89307018D01*
X116353777Y-89312443D01*
X116397651Y-89353643D01*
X116400493Y-89356398D01*
X116420230Y-89376135D01*
X116423427Y-89378615D01*
X116432447Y-89386318D01*
X116464679Y-89416586D01*
X116471625Y-89420405D01*
X116471628Y-89420407D01*
X116482434Y-89426348D01*
X116498953Y-89437199D01*
X116514959Y-89449614D01*
X116522228Y-89452759D01*
X116522232Y-89452762D01*
X116555537Y-89467174D01*
X116566187Y-89472391D01*
X116604940Y-89493695D01*
X116612615Y-89495666D01*
X116612616Y-89495666D01*
X116624562Y-89498733D01*
X116643267Y-89505137D01*
X116661855Y-89513181D01*
X116669678Y-89514420D01*
X116669688Y-89514423D01*
X116705524Y-89520099D01*
X116717144Y-89522505D01*
X116748959Y-89530673D01*
X116759970Y-89533500D01*
X116780224Y-89533500D01*
X116799934Y-89535051D01*
X116819943Y-89538220D01*
X116827835Y-89537474D01*
X116846580Y-89535702D01*
X116863962Y-89534059D01*
X116875819Y-89533500D01*
X120571233Y-89533500D01*
X120582416Y-89534027D01*
X120589909Y-89535702D01*
X120597835Y-89535453D01*
X120597836Y-89535453D01*
X120657986Y-89533562D01*
X120661945Y-89533500D01*
X120689856Y-89533500D01*
X120693791Y-89533003D01*
X120693856Y-89532995D01*
X120705693Y-89532062D01*
X120737951Y-89531048D01*
X120741970Y-89530922D01*
X120749889Y-89530673D01*
X120769343Y-89525021D01*
X120788700Y-89521013D01*
X120800930Y-89519468D01*
X120800931Y-89519468D01*
X120808797Y-89518474D01*
X120816168Y-89515555D01*
X120816170Y-89515555D01*
X120849912Y-89502196D01*
X120861142Y-89498351D01*
X120895983Y-89488229D01*
X120895984Y-89488229D01*
X120903593Y-89486018D01*
X120910412Y-89481985D01*
X120910417Y-89481983D01*
X120921028Y-89475707D01*
X120938776Y-89467012D01*
X120957617Y-89459552D01*
X120993387Y-89433564D01*
X121003307Y-89427048D01*
X121034535Y-89408580D01*
X121034538Y-89408578D01*
X121041362Y-89404542D01*
X121055683Y-89390221D01*
X121070717Y-89377380D01*
X121080694Y-89370131D01*
X121087107Y-89365472D01*
X121115298Y-89331395D01*
X121123288Y-89322616D01*
X123582247Y-86863657D01*
X123590537Y-86856113D01*
X123597018Y-86852000D01*
X123643659Y-86802332D01*
X123646413Y-86799491D01*
X123646498Y-86799406D01*
X123656740Y-86793813D01*
X123657137Y-86792359D01*
X123666342Y-86779928D01*
X123666135Y-86779768D01*
X123668612Y-86776575D01*
X123676318Y-86767553D01*
X123701158Y-86741101D01*
X123706586Y-86735321D01*
X123716346Y-86717568D01*
X123727199Y-86701045D01*
X123734753Y-86691306D01*
X123739613Y-86685041D01*
X123757176Y-86644457D01*
X123762383Y-86633827D01*
X123783695Y-86595060D01*
X123785666Y-86587383D01*
X123785668Y-86587378D01*
X123788732Y-86575442D01*
X123795138Y-86556730D01*
X123800034Y-86545417D01*
X123803181Y-86538145D01*
X123810097Y-86494481D01*
X123812504Y-86482860D01*
X123821528Y-86447711D01*
X123821528Y-86447710D01*
X123823500Y-86440030D01*
X123823500Y-86419769D01*
X123825051Y-86400058D01*
X123826979Y-86387885D01*
X123828219Y-86380057D01*
X123824059Y-86336046D01*
X123823500Y-86324189D01*
X123823500Y-83252524D01*
X123843502Y-83184403D01*
X123855858Y-83168221D01*
X123929040Y-83086944D01*
X124003072Y-82958717D01*
X124021223Y-82927279D01*
X124021224Y-82927278D01*
X124024527Y-82921556D01*
X124083542Y-82739928D01*
X124088977Y-82688222D01*
X124102814Y-82556565D01*
X124103504Y-82550000D01*
X124083542Y-82360072D01*
X124024527Y-82178444D01*
X124011730Y-82156278D01*
X123932341Y-82018774D01*
X123929040Y-82013056D01*
X123904697Y-81986020D01*
X123820776Y-81892816D01*
X123814266Y-81879250D01*
X123814159Y-81879227D01*
X123800488Y-81870578D01*
X123678311Y-81781811D01*
X123652094Y-81762763D01*
X123652093Y-81762762D01*
X123646752Y-81758882D01*
X123640724Y-81756198D01*
X123640722Y-81756197D01*
X123478319Y-81683891D01*
X123478318Y-81683891D01*
X123472288Y-81681206D01*
X123378888Y-81661353D01*
X123291944Y-81642872D01*
X123291939Y-81642872D01*
X123285487Y-81641500D01*
X123094513Y-81641500D01*
X123088061Y-81642872D01*
X123088056Y-81642872D01*
X123001112Y-81661353D01*
X122907712Y-81681206D01*
X122901682Y-81683891D01*
X122901681Y-81683891D01*
X122739278Y-81756197D01*
X122739276Y-81756198D01*
X122733248Y-81758882D01*
X122727907Y-81762762D01*
X122727906Y-81762763D01*
X122701689Y-81781811D01*
X122578747Y-81871134D01*
X122574326Y-81876044D01*
X122574325Y-81876045D01*
X122478086Y-81982930D01*
X122450960Y-82013056D01*
X122447659Y-82018774D01*
X122368271Y-82156278D01*
X122355473Y-82178444D01*
X122296458Y-82360072D01*
X122276496Y-82550000D01*
X122277186Y-82556565D01*
X122291024Y-82688222D01*
X122296458Y-82739928D01*
X122355473Y-82921556D01*
X122358776Y-82927278D01*
X122358777Y-82927279D01*
X122376928Y-82958717D01*
X122450960Y-83086944D01*
X122524137Y-83168215D01*
X122554853Y-83232221D01*
X122556500Y-83252524D01*
X122556500Y-86045405D01*
X122536498Y-86113526D01*
X122519595Y-86134500D01*
X120424500Y-88229595D01*
X120362188Y-88263621D01*
X120335405Y-88266500D01*
X117154594Y-88266500D01*
X117086473Y-88246498D01*
X117065499Y-88229595D01*
X115162599Y-86326695D01*
X118017251Y-86326695D01*
X118017548Y-86331848D01*
X118017548Y-86331851D01*
X118026255Y-86482860D01*
X118030110Y-86549715D01*
X118031247Y-86554761D01*
X118031248Y-86554767D01*
X118050235Y-86639017D01*
X118079222Y-86767639D01*
X118163266Y-86974616D01*
X118197982Y-87031267D01*
X118273110Y-87153865D01*
X118279987Y-87165088D01*
X118426250Y-87333938D01*
X118598126Y-87476632D01*
X118791000Y-87589338D01*
X118999692Y-87669030D01*
X119004760Y-87670061D01*
X119004763Y-87670062D01*
X119109466Y-87691364D01*
X119218597Y-87713567D01*
X119223772Y-87713757D01*
X119223774Y-87713757D01*
X119436673Y-87721564D01*
X119436677Y-87721564D01*
X119441837Y-87721753D01*
X119446957Y-87721097D01*
X119446959Y-87721097D01*
X119658288Y-87694025D01*
X119658289Y-87694025D01*
X119663416Y-87693368D01*
X119668366Y-87691883D01*
X119872429Y-87630661D01*
X119872434Y-87630659D01*
X119877384Y-87629174D01*
X120077994Y-87530896D01*
X120259860Y-87401173D01*
X120418096Y-87243489D01*
X120426710Y-87231502D01*
X120545435Y-87066277D01*
X120548453Y-87062077D01*
X120559305Y-87040121D01*
X120645136Y-86866453D01*
X120645137Y-86866451D01*
X120647430Y-86861811D01*
X120712370Y-86648069D01*
X120741529Y-86426590D01*
X120743156Y-86360000D01*
X120724852Y-86137361D01*
X120670431Y-85920702D01*
X120581354Y-85715840D01*
X120460014Y-85528277D01*
X120309670Y-85363051D01*
X120305619Y-85359852D01*
X120305615Y-85359848D01*
X120138414Y-85227800D01*
X120138410Y-85227798D01*
X120134359Y-85224598D01*
X120093053Y-85201796D01*
X120043084Y-85151364D01*
X120028312Y-85081921D01*
X120053428Y-85015516D01*
X120080780Y-84988909D01*
X120124603Y-84957650D01*
X120259860Y-84861173D01*
X120418096Y-84703489D01*
X120477594Y-84620689D01*
X120545435Y-84526277D01*
X120548453Y-84522077D01*
X120552611Y-84513665D01*
X120645136Y-84326453D01*
X120645137Y-84326451D01*
X120647430Y-84321811D01*
X120712370Y-84108069D01*
X120741529Y-83886590D01*
X120743156Y-83820000D01*
X120724852Y-83597361D01*
X120670431Y-83380702D01*
X120581354Y-83175840D01*
X120541906Y-83114862D01*
X120462822Y-82992617D01*
X120462820Y-82992614D01*
X120460014Y-82988277D01*
X120456538Y-82984457D01*
X120456533Y-82984450D01*
X120312435Y-82826088D01*
X120281383Y-82762242D01*
X120289779Y-82691744D01*
X120334956Y-82636976D01*
X120361400Y-82623307D01*
X120468052Y-82583325D01*
X120483649Y-82574786D01*
X120585724Y-82498285D01*
X120598285Y-82485724D01*
X120674786Y-82383649D01*
X120683324Y-82368054D01*
X120728478Y-82247606D01*
X120732105Y-82232351D01*
X120737631Y-82181486D01*
X120738000Y-82174672D01*
X120738000Y-81552115D01*
X120733525Y-81536876D01*
X120732135Y-81535671D01*
X120724452Y-81534000D01*
X118040116Y-81534000D01*
X118024877Y-81538475D01*
X118023672Y-81539865D01*
X118022001Y-81547548D01*
X118022001Y-82174669D01*
X118022371Y-82181490D01*
X118027895Y-82232352D01*
X118031521Y-82247604D01*
X118076676Y-82368054D01*
X118085214Y-82383649D01*
X118161715Y-82485724D01*
X118174276Y-82498285D01*
X118276351Y-82574786D01*
X118291946Y-82583324D01*
X118400827Y-82624142D01*
X118457591Y-82666784D01*
X118482291Y-82733345D01*
X118467083Y-82802694D01*
X118447691Y-82829175D01*
X118365416Y-82915271D01*
X118320629Y-82962138D01*
X118194743Y-83146680D01*
X118156594Y-83228866D01*
X118119471Y-83308841D01*
X118100688Y-83349305D01*
X118040989Y-83564570D01*
X118017251Y-83786695D01*
X118017548Y-83791848D01*
X118017548Y-83791851D01*
X118023011Y-83886590D01*
X118030110Y-84009715D01*
X118031247Y-84014761D01*
X118031248Y-84014767D01*
X118044597Y-84074000D01*
X118079222Y-84227639D01*
X118138150Y-84372762D01*
X118156817Y-84418733D01*
X118163266Y-84434616D01*
X118211707Y-84513665D01*
X118277291Y-84620688D01*
X118279987Y-84625088D01*
X118426250Y-84793938D01*
X118598126Y-84936632D01*
X118668595Y-84977811D01*
X118671445Y-84979476D01*
X118720169Y-85031114D01*
X118733240Y-85100897D01*
X118706509Y-85166669D01*
X118666055Y-85200027D01*
X118653607Y-85206507D01*
X118649474Y-85209610D01*
X118649471Y-85209612D01*
X118625247Y-85227800D01*
X118474965Y-85340635D01*
X118320629Y-85502138D01*
X118194743Y-85686680D01*
X118100688Y-85889305D01*
X118040989Y-86104570D01*
X118017251Y-86326695D01*
X115162599Y-86326695D01*
X112263652Y-83427747D01*
X112256112Y-83419461D01*
X112252000Y-83412982D01*
X112202348Y-83366356D01*
X112199507Y-83363602D01*
X112179770Y-83343865D01*
X112176573Y-83341385D01*
X112167551Y-83333680D01*
X112135321Y-83303414D01*
X112128375Y-83299595D01*
X112128372Y-83299593D01*
X112117566Y-83293652D01*
X112101047Y-83282801D01*
X112100583Y-83282441D01*
X112085041Y-83270386D01*
X112077772Y-83267241D01*
X112077768Y-83267238D01*
X112044463Y-83252826D01*
X112033813Y-83247609D01*
X111995060Y-83226305D01*
X111975437Y-83221267D01*
X111956734Y-83214863D01*
X111945420Y-83209967D01*
X111945419Y-83209967D01*
X111938145Y-83206819D01*
X111930322Y-83205580D01*
X111930312Y-83205577D01*
X111894476Y-83199901D01*
X111882856Y-83197495D01*
X111847711Y-83188472D01*
X111847710Y-83188472D01*
X111840030Y-83186500D01*
X111819776Y-83186500D01*
X111800065Y-83184949D01*
X111787886Y-83183020D01*
X111780057Y-83181780D01*
X111772165Y-83182526D01*
X111736039Y-83185941D01*
X111724181Y-83186500D01*
X101036296Y-83186500D01*
X100968175Y-83166498D01*
X100947200Y-83149595D01*
X100116505Y-82318899D01*
X100082480Y-82256587D01*
X100087545Y-82185771D01*
X100103278Y-82156278D01*
X100225435Y-81986277D01*
X100228453Y-81982077D01*
X100241995Y-81954678D01*
X100325136Y-81786453D01*
X100325137Y-81786451D01*
X100327430Y-81781811D01*
X100392370Y-81568069D01*
X100421529Y-81346590D01*
X100423156Y-81280000D01*
X100404852Y-81057361D01*
X100392424Y-81007885D01*
X118022000Y-81007885D01*
X118026475Y-81023124D01*
X118027865Y-81024329D01*
X118035548Y-81026000D01*
X119107885Y-81026000D01*
X119123124Y-81021525D01*
X119124329Y-81020135D01*
X119126000Y-81012452D01*
X119126000Y-81007885D01*
X119634000Y-81007885D01*
X119638475Y-81023124D01*
X119639865Y-81024329D01*
X119647548Y-81026000D01*
X120719884Y-81026000D01*
X120735123Y-81021525D01*
X120736328Y-81020135D01*
X120737999Y-81012452D01*
X120737999Y-80385331D01*
X120737629Y-80378510D01*
X120732105Y-80327648D01*
X120728479Y-80312396D01*
X120683324Y-80191946D01*
X120674786Y-80176351D01*
X120598285Y-80074276D01*
X120585724Y-80061715D01*
X120483649Y-79985214D01*
X120468054Y-79976676D01*
X120347606Y-79931522D01*
X120332351Y-79927895D01*
X120281486Y-79922369D01*
X120274672Y-79922000D01*
X119652115Y-79922000D01*
X119636876Y-79926475D01*
X119635671Y-79927865D01*
X119634000Y-79935548D01*
X119634000Y-81007885D01*
X119126000Y-81007885D01*
X119126000Y-79940116D01*
X119121525Y-79924877D01*
X119120135Y-79923672D01*
X119112452Y-79922001D01*
X118485331Y-79922001D01*
X118478510Y-79922371D01*
X118427648Y-79927895D01*
X118412396Y-79931521D01*
X118291946Y-79976676D01*
X118276351Y-79985214D01*
X118174276Y-80061715D01*
X118161715Y-80074276D01*
X118085214Y-80176351D01*
X118076676Y-80191946D01*
X118031522Y-80312394D01*
X118027895Y-80327649D01*
X118022369Y-80378514D01*
X118022000Y-80385328D01*
X118022000Y-81007885D01*
X100392424Y-81007885D01*
X100376821Y-80945765D01*
X100379625Y-80874823D01*
X100409930Y-80825974D01*
X101825499Y-79410405D01*
X101887811Y-79376379D01*
X101914594Y-79373500D01*
X121605406Y-79373500D01*
X121673527Y-79393502D01*
X121694501Y-79410405D01*
X123963639Y-81679544D01*
X123974601Y-81699619D01*
X123980503Y-81701231D01*
X124003505Y-81719409D01*
X125250498Y-82966403D01*
X126496348Y-84212253D01*
X126503888Y-84220539D01*
X126508000Y-84227018D01*
X126513777Y-84232443D01*
X126557651Y-84273643D01*
X126560493Y-84276398D01*
X126580230Y-84296135D01*
X126583427Y-84298615D01*
X126592447Y-84306318D01*
X126624679Y-84336586D01*
X126631625Y-84340405D01*
X126631628Y-84340407D01*
X126642434Y-84346348D01*
X126658953Y-84357199D01*
X126674959Y-84369614D01*
X126682228Y-84372759D01*
X126682232Y-84372762D01*
X126715537Y-84387174D01*
X126726186Y-84392390D01*
X126764940Y-84413695D01*
X126772615Y-84415666D01*
X126772616Y-84415666D01*
X126784562Y-84418733D01*
X126803266Y-84425137D01*
X126803269Y-84425138D01*
X126821855Y-84433181D01*
X126829678Y-84434420D01*
X126829688Y-84434423D01*
X126865524Y-84440099D01*
X126877144Y-84442505D01*
X126912289Y-84451528D01*
X126919970Y-84453500D01*
X126940224Y-84453500D01*
X126959934Y-84455051D01*
X126979943Y-84458220D01*
X126987835Y-84457474D01*
X127023961Y-84454059D01*
X127035819Y-84453500D01*
X130804274Y-84453500D01*
X130872395Y-84473502D01*
X130911707Y-84513665D01*
X130979987Y-84625088D01*
X131126250Y-84793938D01*
X131298126Y-84936632D01*
X131368595Y-84977811D01*
X131371445Y-84979476D01*
X131420169Y-85031114D01*
X131433240Y-85100897D01*
X131406509Y-85166669D01*
X131366055Y-85200027D01*
X131353607Y-85206507D01*
X131349474Y-85209610D01*
X131349471Y-85209612D01*
X131325247Y-85227800D01*
X131174965Y-85340635D01*
X131020629Y-85502138D01*
X130894743Y-85686680D01*
X130800688Y-85889305D01*
X130740989Y-86104570D01*
X130717251Y-86326695D01*
X130717548Y-86331848D01*
X130717548Y-86331851D01*
X130726255Y-86482860D01*
X130730110Y-86549715D01*
X130731247Y-86554761D01*
X130731248Y-86554767D01*
X130750235Y-86639017D01*
X130779222Y-86767639D01*
X130863266Y-86974616D01*
X130897982Y-87031267D01*
X130973110Y-87153865D01*
X130979987Y-87165088D01*
X131126250Y-87333938D01*
X131298126Y-87476632D01*
X131368595Y-87517811D01*
X131371445Y-87519476D01*
X131420169Y-87571114D01*
X131433240Y-87640897D01*
X131406509Y-87706669D01*
X131366055Y-87740027D01*
X131353607Y-87746507D01*
X131349474Y-87749610D01*
X131349471Y-87749612D01*
X131179100Y-87877530D01*
X131174965Y-87880635D01*
X131020629Y-88042138D01*
X130894743Y-88226680D01*
X130800688Y-88429305D01*
X130740989Y-88644570D01*
X130717251Y-88866695D01*
X130717548Y-88871848D01*
X130717548Y-88871851D01*
X130722877Y-88964276D01*
X130730110Y-89089715D01*
X130731247Y-89094761D01*
X130731248Y-89094767D01*
X130749753Y-89176876D01*
X130779222Y-89307639D01*
X130834900Y-89444758D01*
X130857167Y-89499595D01*
X130863266Y-89514616D01*
X130913863Y-89597183D01*
X130977291Y-89700688D01*
X130979987Y-89705088D01*
X131126250Y-89873938D01*
X131298126Y-90016632D01*
X131368595Y-90057811D01*
X131371445Y-90059476D01*
X131420169Y-90111114D01*
X131433240Y-90180897D01*
X131406509Y-90246669D01*
X131366055Y-90280027D01*
X131353607Y-90286507D01*
X131349474Y-90289610D01*
X131349471Y-90289612D01*
X131197123Y-90403998D01*
X131174965Y-90420635D01*
X131169001Y-90426876D01*
X131033667Y-90568495D01*
X131020629Y-90582138D01*
X131017720Y-90586403D01*
X131017714Y-90586411D01*
X130959458Y-90671811D01*
X130894743Y-90766680D01*
X130800688Y-90969305D01*
X130740989Y-91184570D01*
X130717251Y-91406695D01*
X130717548Y-91411848D01*
X130717548Y-91411851D01*
X130719171Y-91440000D01*
X130730110Y-91629715D01*
X130731247Y-91634761D01*
X130731248Y-91634767D01*
X130750271Y-91719175D01*
X130779222Y-91847639D01*
X130863266Y-92054616D01*
X130883200Y-92087145D01*
X130965475Y-92221406D01*
X130979987Y-92245088D01*
X131126250Y-92413938D01*
X131298126Y-92556632D01*
X131368595Y-92597811D01*
X131371445Y-92599476D01*
X131420169Y-92651114D01*
X131433240Y-92720897D01*
X131406509Y-92786669D01*
X131366055Y-92820027D01*
X131353607Y-92826507D01*
X131349474Y-92829610D01*
X131349471Y-92829612D01*
X131325247Y-92847800D01*
X131174965Y-92960635D01*
X131169001Y-92966876D01*
X131033667Y-93108495D01*
X131020629Y-93122138D01*
X131017715Y-93126410D01*
X131017714Y-93126411D01*
X130969098Y-93197680D01*
X130894743Y-93306680D01*
X130800688Y-93509305D01*
X130740989Y-93724570D01*
X130717251Y-93946695D01*
X130717548Y-93951848D01*
X130717548Y-93951851D01*
X130724186Y-94066976D01*
X130730110Y-94169715D01*
X130731247Y-94174761D01*
X130731248Y-94174767D01*
X130742031Y-94222614D01*
X130779222Y-94387639D01*
X130827355Y-94506177D01*
X130860232Y-94587143D01*
X130863266Y-94594616D01*
X130890686Y-94639362D01*
X130968778Y-94766796D01*
X130979987Y-94785088D01*
X131126250Y-94953938D01*
X131298126Y-95096632D01*
X131491000Y-95209338D01*
X131699692Y-95289030D01*
X131704760Y-95290061D01*
X131704763Y-95290062D01*
X131799862Y-95309410D01*
X131918597Y-95333567D01*
X131923772Y-95333757D01*
X131923774Y-95333757D01*
X132136673Y-95341564D01*
X132136677Y-95341564D01*
X132141837Y-95341753D01*
X132146957Y-95341097D01*
X132146959Y-95341097D01*
X132358288Y-95314025D01*
X132358289Y-95314025D01*
X132363416Y-95313368D01*
X132368366Y-95311883D01*
X132572429Y-95250661D01*
X132572434Y-95250659D01*
X132577384Y-95249174D01*
X132777994Y-95150896D01*
X132959860Y-95021173D01*
X133118096Y-94863489D01*
X133167833Y-94794273D01*
X133248453Y-94682077D01*
X133249640Y-94682930D01*
X133296960Y-94639362D01*
X133366897Y-94627145D01*
X133432338Y-94654678D01*
X133460166Y-94686511D01*
X133517694Y-94780388D01*
X133523777Y-94788699D01*
X133663213Y-94949667D01*
X133670580Y-94956883D01*
X133834434Y-95092916D01*
X133842881Y-95098831D01*
X134026756Y-95206279D01*
X134036042Y-95210729D01*
X134235001Y-95286703D01*
X134244899Y-95289579D01*
X134348250Y-95310606D01*
X134362299Y-95309410D01*
X134366000Y-95299065D01*
X134366000Y-95298517D01*
X134874000Y-95298517D01*
X134878064Y-95312359D01*
X134891478Y-95314393D01*
X134898184Y-95313534D01*
X134908262Y-95311392D01*
X135112255Y-95250191D01*
X135121842Y-95246433D01*
X135313095Y-95152739D01*
X135321945Y-95147464D01*
X135495328Y-95023792D01*
X135503200Y-95017139D01*
X135654052Y-94866812D01*
X135660730Y-94858965D01*
X135785003Y-94686020D01*
X135790313Y-94677183D01*
X135884670Y-94486267D01*
X135888469Y-94476672D01*
X135950377Y-94272910D01*
X135952555Y-94262837D01*
X135953986Y-94251962D01*
X135951775Y-94237778D01*
X135938617Y-94234000D01*
X134892115Y-94234000D01*
X134876876Y-94238475D01*
X134875671Y-94239865D01*
X134874000Y-94247548D01*
X134874000Y-95298517D01*
X134366000Y-95298517D01*
X134366000Y-93707885D01*
X134874000Y-93707885D01*
X134878475Y-93723124D01*
X134879865Y-93724329D01*
X134887548Y-93726000D01*
X135938344Y-93726000D01*
X135951875Y-93722027D01*
X135953180Y-93712947D01*
X135911214Y-93545875D01*
X135907894Y-93536124D01*
X135822972Y-93340814D01*
X135818105Y-93331739D01*
X135702426Y-93152926D01*
X135696136Y-93144757D01*
X135552806Y-92987240D01*
X135545273Y-92980215D01*
X135378139Y-92848222D01*
X135369552Y-92842517D01*
X135332116Y-92821851D01*
X135282146Y-92771419D01*
X135267374Y-92701976D01*
X135292490Y-92635571D01*
X135319842Y-92608964D01*
X135495327Y-92483792D01*
X135503200Y-92477139D01*
X135654052Y-92326812D01*
X135660730Y-92318965D01*
X135785003Y-92146020D01*
X135790313Y-92137183D01*
X135884670Y-91946267D01*
X135888469Y-91936672D01*
X135950377Y-91732910D01*
X135952555Y-91722837D01*
X135953986Y-91711962D01*
X135951775Y-91697778D01*
X135938617Y-91694000D01*
X134892115Y-91694000D01*
X134876876Y-91698475D01*
X134875671Y-91699865D01*
X134874000Y-91707548D01*
X134874000Y-93707885D01*
X134366000Y-93707885D01*
X134366000Y-91167885D01*
X134874000Y-91167885D01*
X134878475Y-91183124D01*
X134879865Y-91184329D01*
X134887548Y-91186000D01*
X135938344Y-91186000D01*
X135951875Y-91182027D01*
X135953180Y-91172947D01*
X135911214Y-91005875D01*
X135907894Y-90996124D01*
X135822972Y-90800814D01*
X135818105Y-90791739D01*
X135702426Y-90612926D01*
X135696136Y-90604757D01*
X135552806Y-90447240D01*
X135545273Y-90440215D01*
X135378139Y-90308222D01*
X135369552Y-90302517D01*
X135332116Y-90281851D01*
X135282146Y-90231419D01*
X135267374Y-90161976D01*
X135292490Y-90095571D01*
X135319842Y-90068964D01*
X135495327Y-89943792D01*
X135503200Y-89937139D01*
X135654052Y-89786812D01*
X135660730Y-89778965D01*
X135785003Y-89606020D01*
X135790313Y-89597183D01*
X135884670Y-89406267D01*
X135888469Y-89396672D01*
X135950377Y-89192910D01*
X135952555Y-89182837D01*
X135953986Y-89171962D01*
X135951775Y-89157778D01*
X135938617Y-89154000D01*
X134892115Y-89154000D01*
X134876876Y-89158475D01*
X134875671Y-89159865D01*
X134874000Y-89167548D01*
X134874000Y-91167885D01*
X134366000Y-91167885D01*
X134366000Y-88627885D01*
X134874000Y-88627885D01*
X134878475Y-88643124D01*
X134879865Y-88644329D01*
X134887548Y-88646000D01*
X135938344Y-88646000D01*
X135951875Y-88642027D01*
X135953180Y-88632947D01*
X135911214Y-88465875D01*
X135907894Y-88456124D01*
X135822972Y-88260814D01*
X135818105Y-88251739D01*
X135702426Y-88072926D01*
X135696136Y-88064757D01*
X135552806Y-87907240D01*
X135545273Y-87900215D01*
X135378139Y-87768222D01*
X135369552Y-87762517D01*
X135332116Y-87741851D01*
X135282146Y-87691419D01*
X135267374Y-87621976D01*
X135292490Y-87555571D01*
X135319842Y-87528964D01*
X135495327Y-87403792D01*
X135503200Y-87397139D01*
X135654052Y-87246812D01*
X135660730Y-87238965D01*
X135785003Y-87066020D01*
X135790313Y-87057183D01*
X135884670Y-86866267D01*
X135888469Y-86856672D01*
X135950377Y-86652910D01*
X135952555Y-86642837D01*
X135953986Y-86631962D01*
X135951775Y-86617778D01*
X135938617Y-86614000D01*
X134892115Y-86614000D01*
X134876876Y-86618475D01*
X134875671Y-86619865D01*
X134874000Y-86627548D01*
X134874000Y-88627885D01*
X134366000Y-88627885D01*
X134366000Y-86087885D01*
X134874000Y-86087885D01*
X134878475Y-86103124D01*
X134879865Y-86104329D01*
X134887548Y-86106000D01*
X135938344Y-86106000D01*
X135951875Y-86102027D01*
X135953180Y-86092947D01*
X135911214Y-85925875D01*
X135907894Y-85916124D01*
X135822972Y-85720814D01*
X135818105Y-85711739D01*
X135702426Y-85532926D01*
X135696136Y-85524757D01*
X135552806Y-85367240D01*
X135545273Y-85360215D01*
X135378139Y-85228222D01*
X135369552Y-85222517D01*
X135332116Y-85201851D01*
X135282146Y-85151419D01*
X135267374Y-85081976D01*
X135292490Y-85015571D01*
X135319842Y-84988964D01*
X135495327Y-84863792D01*
X135503200Y-84857139D01*
X135654052Y-84706812D01*
X135660730Y-84698965D01*
X135785003Y-84526020D01*
X135790313Y-84517183D01*
X135884670Y-84326267D01*
X135888469Y-84316672D01*
X135950377Y-84112910D01*
X135952555Y-84102837D01*
X135953986Y-84091962D01*
X135951775Y-84077778D01*
X135938617Y-84074000D01*
X134892115Y-84074000D01*
X134876876Y-84078475D01*
X134875671Y-84079865D01*
X134874000Y-84087548D01*
X134874000Y-86087885D01*
X134366000Y-86087885D01*
X134366000Y-83547885D01*
X134874000Y-83547885D01*
X134878475Y-83563124D01*
X134879865Y-83564329D01*
X134887548Y-83566000D01*
X135938344Y-83566000D01*
X135951875Y-83562027D01*
X135953180Y-83552947D01*
X135911214Y-83385875D01*
X135907894Y-83376124D01*
X135822972Y-83180814D01*
X135818105Y-83171739D01*
X135702426Y-82992926D01*
X135696136Y-82984757D01*
X135552806Y-82827240D01*
X135545273Y-82820215D01*
X135378139Y-82688222D01*
X135369552Y-82682517D01*
X135332116Y-82661851D01*
X135282146Y-82611419D01*
X135267374Y-82541976D01*
X135292490Y-82475571D01*
X135319842Y-82448964D01*
X135495327Y-82323792D01*
X135503200Y-82317139D01*
X135654052Y-82166812D01*
X135660730Y-82158965D01*
X135785003Y-81986020D01*
X135790313Y-81977183D01*
X135884670Y-81786267D01*
X135888469Y-81776672D01*
X135950377Y-81572910D01*
X135952555Y-81562837D01*
X135953986Y-81551962D01*
X135951775Y-81537778D01*
X135938617Y-81534000D01*
X134892115Y-81534000D01*
X134876876Y-81538475D01*
X134875671Y-81539865D01*
X134874000Y-81547548D01*
X134874000Y-83547885D01*
X134366000Y-83547885D01*
X134366000Y-81007885D01*
X134874000Y-81007885D01*
X134878475Y-81023124D01*
X134879865Y-81024329D01*
X134887548Y-81026000D01*
X135938344Y-81026000D01*
X135951875Y-81022027D01*
X135953180Y-81012947D01*
X135911214Y-80845875D01*
X135907894Y-80836124D01*
X135822972Y-80640814D01*
X135818105Y-80631739D01*
X135702426Y-80452926D01*
X135696136Y-80444757D01*
X135552806Y-80287240D01*
X135545273Y-80280215D01*
X135378139Y-80148222D01*
X135369552Y-80142517D01*
X135332116Y-80121851D01*
X135282146Y-80071419D01*
X135267374Y-80001976D01*
X135292490Y-79935571D01*
X135319842Y-79908964D01*
X135495327Y-79783792D01*
X135503200Y-79777139D01*
X135654052Y-79626812D01*
X135660730Y-79618965D01*
X135785003Y-79446020D01*
X135790313Y-79437183D01*
X135884670Y-79246267D01*
X135888469Y-79236672D01*
X135950377Y-79032910D01*
X135952555Y-79022837D01*
X135953986Y-79011962D01*
X135951775Y-78997778D01*
X135938617Y-78994000D01*
X134892115Y-78994000D01*
X134876876Y-78998475D01*
X134875671Y-78999865D01*
X134874000Y-79007548D01*
X134874000Y-81007885D01*
X134366000Y-81007885D01*
X134366000Y-78467885D01*
X134874000Y-78467885D01*
X134878475Y-78483124D01*
X134879865Y-78484329D01*
X134887548Y-78486000D01*
X135938344Y-78486000D01*
X135951875Y-78482027D01*
X135953180Y-78472947D01*
X135911214Y-78305875D01*
X135907894Y-78296124D01*
X135822972Y-78100814D01*
X135818105Y-78091739D01*
X135702426Y-77912926D01*
X135696136Y-77904757D01*
X135552806Y-77747240D01*
X135545273Y-77740215D01*
X135378139Y-77608222D01*
X135369552Y-77602517D01*
X135332116Y-77581851D01*
X135282146Y-77531419D01*
X135267374Y-77461976D01*
X135292490Y-77395571D01*
X135319842Y-77368964D01*
X135495327Y-77243792D01*
X135503200Y-77237139D01*
X135654052Y-77086812D01*
X135660730Y-77078965D01*
X135785003Y-76906020D01*
X135790313Y-76897183D01*
X135884670Y-76706267D01*
X135888469Y-76696672D01*
X135950377Y-76492910D01*
X135952555Y-76482837D01*
X135953986Y-76471962D01*
X135951775Y-76457778D01*
X135938617Y-76454000D01*
X134892115Y-76454000D01*
X134876876Y-76458475D01*
X134875671Y-76459865D01*
X134874000Y-76467548D01*
X134874000Y-78467885D01*
X134366000Y-78467885D01*
X134366000Y-75927885D01*
X134874000Y-75927885D01*
X134878475Y-75943124D01*
X134879865Y-75944329D01*
X134887548Y-75946000D01*
X135938344Y-75946000D01*
X135951875Y-75942027D01*
X135953180Y-75932947D01*
X135911214Y-75765875D01*
X135907894Y-75756124D01*
X135822972Y-75560814D01*
X135818105Y-75551739D01*
X135702426Y-75372926D01*
X135696136Y-75364757D01*
X135552806Y-75207240D01*
X135545273Y-75200215D01*
X135378139Y-75068222D01*
X135369552Y-75062517D01*
X135332116Y-75041851D01*
X135282146Y-74991419D01*
X135267374Y-74921976D01*
X135292490Y-74855571D01*
X135319842Y-74828964D01*
X135495327Y-74703792D01*
X135503200Y-74697139D01*
X135654052Y-74546812D01*
X135660730Y-74538965D01*
X135785003Y-74366020D01*
X135790313Y-74357183D01*
X135884670Y-74166267D01*
X135888469Y-74156672D01*
X135950377Y-73952910D01*
X135952555Y-73942837D01*
X135953986Y-73931962D01*
X135951775Y-73917778D01*
X135938617Y-73914000D01*
X134892115Y-73914000D01*
X134876876Y-73918475D01*
X134875671Y-73919865D01*
X134874000Y-73927548D01*
X134874000Y-75927885D01*
X134366000Y-75927885D01*
X134366000Y-73532000D01*
X134386002Y-73463879D01*
X134439658Y-73417386D01*
X134492000Y-73406000D01*
X135938344Y-73406000D01*
X135951875Y-73402027D01*
X135953180Y-73392947D01*
X135911214Y-73225875D01*
X135907894Y-73216124D01*
X135822972Y-73020814D01*
X135818105Y-73011739D01*
X135702426Y-72832926D01*
X135696136Y-72824757D01*
X135552806Y-72667240D01*
X135545273Y-72660215D01*
X135378139Y-72528222D01*
X135369556Y-72522520D01*
X135332602Y-72502120D01*
X135282631Y-72451687D01*
X135267859Y-72382245D01*
X135292975Y-72315839D01*
X135320327Y-72289232D01*
X135343797Y-72272491D01*
X135499860Y-72161173D01*
X135658096Y-72003489D01*
X135788453Y-71822077D01*
X135792145Y-71814608D01*
X135885136Y-71626453D01*
X135885137Y-71626451D01*
X135887430Y-71621811D01*
X135952370Y-71408069D01*
X135981529Y-71186590D01*
X135983156Y-71120000D01*
X135964852Y-70897361D01*
X135910431Y-70680702D01*
X135821354Y-70475840D01*
X135700014Y-70288277D01*
X135549670Y-70123051D01*
X135545619Y-70119852D01*
X135545615Y-70119848D01*
X135378414Y-69987800D01*
X135378410Y-69987798D01*
X135374359Y-69984598D01*
X135178789Y-69876638D01*
X135173920Y-69874914D01*
X135173916Y-69874912D01*
X134973087Y-69803795D01*
X134973083Y-69803794D01*
X134968212Y-69802069D01*
X134963119Y-69801162D01*
X134963116Y-69801161D01*
X134753373Y-69763800D01*
X134753367Y-69763799D01*
X134748284Y-69762894D01*
X134674452Y-69761992D01*
X134530081Y-69760228D01*
X134530079Y-69760228D01*
X134524911Y-69760165D01*
X134304091Y-69793955D01*
X134091756Y-69863357D01*
X134061443Y-69879137D01*
X133903170Y-69961529D01*
X133893607Y-69966507D01*
X133889474Y-69969610D01*
X133889471Y-69969612D01*
X133719100Y-70097530D01*
X133714965Y-70100635D01*
X133658537Y-70159684D01*
X133634283Y-70185064D01*
X133572759Y-70220494D01*
X133501846Y-70217037D01*
X133444060Y-70175791D01*
X133425207Y-70142243D01*
X133383767Y-70031703D01*
X133380615Y-70023295D01*
X133293261Y-69906739D01*
X133176705Y-69819385D01*
X133040316Y-69768255D01*
X132978134Y-69761500D01*
X131181866Y-69761500D01*
X131119684Y-69768255D01*
X130983295Y-69819385D01*
X130866739Y-69906739D01*
X130779385Y-70023295D01*
X130728255Y-70159684D01*
X130721500Y-70221866D01*
X130721500Y-72018134D01*
X130728255Y-72080316D01*
X130779385Y-72216705D01*
X130866739Y-72333261D01*
X130983295Y-72420615D01*
X130991704Y-72423767D01*
X130991705Y-72423768D01*
X131100451Y-72464535D01*
X131157216Y-72507176D01*
X131181916Y-72573738D01*
X131166709Y-72643087D01*
X131147316Y-72669568D01*
X131020629Y-72802138D01*
X130894743Y-72986680D01*
X130800688Y-73189305D01*
X130740989Y-73404570D01*
X130717251Y-73626695D01*
X130717548Y-73631848D01*
X130717548Y-73631851D01*
X130723011Y-73726590D01*
X130730110Y-73849715D01*
X130731247Y-73854761D01*
X130731248Y-73854767D01*
X130763453Y-73997668D01*
X130758917Y-74068520D01*
X130729631Y-74114464D01*
X128044500Y-76799595D01*
X127982188Y-76833621D01*
X127955405Y-76836500D01*
X100456477Y-76836500D01*
X100388356Y-76816498D01*
X100341863Y-76762842D01*
X100331759Y-76692568D01*
X100335917Y-76673879D01*
X100392370Y-76488069D01*
X100421529Y-76266590D01*
X100423156Y-76200000D01*
X100404852Y-75977361D01*
X100350431Y-75760702D01*
X100261354Y-75555840D01*
X100140014Y-75368277D01*
X99989670Y-75203051D01*
X99985619Y-75199852D01*
X99985615Y-75199848D01*
X99818414Y-75067800D01*
X99818410Y-75067798D01*
X99814359Y-75064598D01*
X99773053Y-75041796D01*
X99723084Y-74991364D01*
X99708312Y-74921921D01*
X99733428Y-74855516D01*
X99760780Y-74828909D01*
X99804603Y-74797650D01*
X99939860Y-74701173D01*
X100086877Y-74554669D01*
X110402001Y-74554669D01*
X110402371Y-74561490D01*
X110407895Y-74612352D01*
X110411521Y-74627604D01*
X110456676Y-74748054D01*
X110465214Y-74763649D01*
X110541715Y-74865724D01*
X110554276Y-74878285D01*
X110656351Y-74954786D01*
X110671946Y-74963324D01*
X110792394Y-75008478D01*
X110807649Y-75012105D01*
X110858514Y-75017631D01*
X110865328Y-75018000D01*
X111487885Y-75018000D01*
X111503124Y-75013525D01*
X111504329Y-75012135D01*
X111506000Y-75004452D01*
X111506000Y-73932115D01*
X111501525Y-73916876D01*
X111500135Y-73915671D01*
X111492452Y-73914000D01*
X110420116Y-73914000D01*
X110404877Y-73918475D01*
X110403672Y-73919865D01*
X110402001Y-73927548D01*
X110402001Y-74554669D01*
X100086877Y-74554669D01*
X100098096Y-74543489D01*
X100228453Y-74362077D01*
X100230746Y-74357437D01*
X100232446Y-74354608D01*
X100284674Y-74306518D01*
X100340451Y-74293500D01*
X101521233Y-74293500D01*
X101532416Y-74294027D01*
X101539909Y-74295702D01*
X101547835Y-74295453D01*
X101547836Y-74295453D01*
X101607986Y-74293562D01*
X101611945Y-74293500D01*
X101639856Y-74293500D01*
X101643791Y-74293003D01*
X101643856Y-74292995D01*
X101655693Y-74292062D01*
X101687951Y-74291048D01*
X101691970Y-74290922D01*
X101699889Y-74290673D01*
X101719343Y-74285021D01*
X101738700Y-74281013D01*
X101750930Y-74279468D01*
X101750931Y-74279468D01*
X101758797Y-74278474D01*
X101766168Y-74275555D01*
X101766170Y-74275555D01*
X101799912Y-74262196D01*
X101811142Y-74258351D01*
X101845983Y-74248229D01*
X101845984Y-74248229D01*
X101853593Y-74246018D01*
X101860412Y-74241985D01*
X101860417Y-74241983D01*
X101871028Y-74235707D01*
X101888776Y-74227012D01*
X101907617Y-74219552D01*
X101943387Y-74193564D01*
X101953307Y-74187048D01*
X101984535Y-74168580D01*
X101984538Y-74168578D01*
X101991362Y-74164542D01*
X102005683Y-74150221D01*
X102020717Y-74137380D01*
X102030694Y-74130131D01*
X102037107Y-74125472D01*
X102065298Y-74091395D01*
X102073288Y-74082616D01*
X102768019Y-73387885D01*
X110402000Y-73387885D01*
X110406475Y-73403124D01*
X110407865Y-73404329D01*
X110415548Y-73406000D01*
X111487885Y-73406000D01*
X111503124Y-73401525D01*
X111504329Y-73400135D01*
X111506000Y-73392452D01*
X111506000Y-72320116D01*
X111501525Y-72304877D01*
X111500135Y-72303672D01*
X111492452Y-72302001D01*
X110865331Y-72302001D01*
X110858510Y-72302371D01*
X110807648Y-72307895D01*
X110792396Y-72311521D01*
X110671946Y-72356676D01*
X110656351Y-72365214D01*
X110554276Y-72441715D01*
X110541715Y-72454276D01*
X110465214Y-72556351D01*
X110456676Y-72571946D01*
X110411522Y-72692394D01*
X110407895Y-72707649D01*
X110402369Y-72758514D01*
X110402000Y-72765328D01*
X110402000Y-73387885D01*
X102768019Y-73387885D01*
X104365499Y-71790405D01*
X104427811Y-71756379D01*
X104454594Y-71753500D01*
X111445406Y-71753500D01*
X111513527Y-71773502D01*
X111534501Y-71790405D01*
X111977095Y-72232999D01*
X112011121Y-72295311D01*
X112014000Y-72322094D01*
X112014000Y-74999884D01*
X112018475Y-75015123D01*
X112019865Y-75016328D01*
X112027548Y-75017999D01*
X112654669Y-75017999D01*
X112661490Y-75017629D01*
X112712352Y-75012105D01*
X112727604Y-75008479D01*
X112848054Y-74963324D01*
X112863649Y-74954786D01*
X112965724Y-74878285D01*
X112978285Y-74865724D01*
X113054786Y-74763649D01*
X113063324Y-74748054D01*
X113104225Y-74638952D01*
X113146867Y-74582188D01*
X113213428Y-74557488D01*
X113282777Y-74572696D01*
X113317444Y-74600684D01*
X113342865Y-74630031D01*
X113342869Y-74630035D01*
X113346250Y-74633938D01*
X113518126Y-74776632D01*
X113711000Y-74889338D01*
X113919692Y-74969030D01*
X113924760Y-74970061D01*
X113924763Y-74970062D01*
X114028154Y-74991097D01*
X114138597Y-75013567D01*
X114143772Y-75013757D01*
X114143774Y-75013757D01*
X114356673Y-75021564D01*
X114356677Y-75021564D01*
X114361837Y-75021753D01*
X114366957Y-75021097D01*
X114366959Y-75021097D01*
X114578288Y-74994025D01*
X114578289Y-74994025D01*
X114583416Y-74993368D01*
X114588366Y-74991883D01*
X114792429Y-74930661D01*
X114792434Y-74930659D01*
X114797384Y-74929174D01*
X114997994Y-74830896D01*
X115179860Y-74701173D01*
X115338096Y-74543489D01*
X115468453Y-74362077D01*
X115469776Y-74363028D01*
X115516645Y-74319857D01*
X115586580Y-74307625D01*
X115652026Y-74335144D01*
X115679875Y-74366994D01*
X115739987Y-74465088D01*
X115886250Y-74633938D01*
X116058126Y-74776632D01*
X116251000Y-74889338D01*
X116459692Y-74969030D01*
X116464760Y-74970061D01*
X116464763Y-74970062D01*
X116568154Y-74991097D01*
X116678597Y-75013567D01*
X116683772Y-75013757D01*
X116683774Y-75013757D01*
X116896673Y-75021564D01*
X116896677Y-75021564D01*
X116901837Y-75021753D01*
X116906957Y-75021097D01*
X116906959Y-75021097D01*
X117118288Y-74994025D01*
X117118289Y-74994025D01*
X117123416Y-74993368D01*
X117128366Y-74991883D01*
X117332429Y-74930661D01*
X117332434Y-74930659D01*
X117337384Y-74929174D01*
X117537994Y-74830896D01*
X117719860Y-74701173D01*
X117878096Y-74543489D01*
X118008453Y-74362077D01*
X118012145Y-74354608D01*
X118105136Y-74166453D01*
X118105137Y-74166451D01*
X118107430Y-74161811D01*
X118172370Y-73948069D01*
X118201529Y-73726590D01*
X118203156Y-73660000D01*
X118184852Y-73437361D01*
X118130431Y-73220702D01*
X118041354Y-73015840D01*
X117920014Y-72828277D01*
X117769670Y-72663051D01*
X117765619Y-72659852D01*
X117765615Y-72659848D01*
X117598414Y-72527800D01*
X117598410Y-72527798D01*
X117594359Y-72524598D01*
X117398789Y-72416638D01*
X117393920Y-72414914D01*
X117393916Y-72414912D01*
X117193087Y-72343795D01*
X117193083Y-72343794D01*
X117188212Y-72342069D01*
X117183119Y-72341162D01*
X117183116Y-72341161D01*
X116973373Y-72303800D01*
X116973367Y-72303799D01*
X116968284Y-72302894D01*
X116894452Y-72301992D01*
X116750081Y-72300228D01*
X116750079Y-72300228D01*
X116744911Y-72300165D01*
X116524091Y-72333955D01*
X116511532Y-72338060D01*
X116440568Y-72340210D01*
X116383294Y-72307389D01*
X113533652Y-69457747D01*
X113526112Y-69449461D01*
X113522000Y-69442982D01*
X113472348Y-69396356D01*
X113469507Y-69393602D01*
X113449770Y-69373865D01*
X113446573Y-69371385D01*
X113437551Y-69363680D01*
X113424116Y-69351064D01*
X113405321Y-69333414D01*
X113398375Y-69329595D01*
X113398372Y-69329593D01*
X113387566Y-69323652D01*
X113371047Y-69312801D01*
X113370583Y-69312441D01*
X113355041Y-69300386D01*
X113347772Y-69297241D01*
X113347768Y-69297238D01*
X113314463Y-69282826D01*
X113303813Y-69277609D01*
X113265060Y-69256305D01*
X113245437Y-69251267D01*
X113226734Y-69244863D01*
X113215420Y-69239967D01*
X113215419Y-69239967D01*
X113208145Y-69236819D01*
X113200322Y-69235580D01*
X113200312Y-69235577D01*
X113164476Y-69229901D01*
X113152856Y-69227495D01*
X113117711Y-69218472D01*
X113117710Y-69218472D01*
X113110030Y-69216500D01*
X113089776Y-69216500D01*
X113070065Y-69214949D01*
X113057886Y-69213020D01*
X113050057Y-69211780D01*
X113020786Y-69214547D01*
X113006039Y-69215941D01*
X112994181Y-69216500D01*
X102948767Y-69216500D01*
X102937584Y-69215973D01*
X102930091Y-69214298D01*
X102922165Y-69214547D01*
X102922164Y-69214547D01*
X102862014Y-69216438D01*
X102858055Y-69216500D01*
X102830144Y-69216500D01*
X102826210Y-69216997D01*
X102826209Y-69216997D01*
X102826144Y-69217005D01*
X102814307Y-69217938D01*
X102782490Y-69218938D01*
X102778029Y-69219078D01*
X102770110Y-69219327D01*
X102752454Y-69224456D01*
X102750658Y-69224978D01*
X102731306Y-69228986D01*
X102724235Y-69229880D01*
X102711203Y-69231526D01*
X102703834Y-69234443D01*
X102703832Y-69234444D01*
X102670097Y-69247800D01*
X102658869Y-69251645D01*
X102616407Y-69263982D01*
X102609585Y-69268016D01*
X102609579Y-69268019D01*
X102598968Y-69274294D01*
X102581218Y-69282990D01*
X102569756Y-69287528D01*
X102569751Y-69287531D01*
X102562383Y-69290448D01*
X102544970Y-69303099D01*
X102526625Y-69316427D01*
X102516707Y-69322943D01*
X102505463Y-69329593D01*
X102478637Y-69345458D01*
X102464313Y-69359782D01*
X102449281Y-69372621D01*
X102432893Y-69384528D01*
X102404712Y-69418593D01*
X102396722Y-69427373D01*
X101374500Y-70449595D01*
X101312188Y-70483621D01*
X101285405Y-70486500D01*
X100336805Y-70486500D01*
X100268684Y-70466498D01*
X100231013Y-70428940D01*
X100142822Y-70292617D01*
X100142820Y-70292614D01*
X100140014Y-70288277D01*
X99989670Y-70123051D01*
X99985619Y-70119852D01*
X99985615Y-70119848D01*
X99818414Y-69987800D01*
X99818410Y-69987798D01*
X99814359Y-69984598D01*
X99772569Y-69961529D01*
X99722598Y-69911097D01*
X99707826Y-69841654D01*
X99732942Y-69775248D01*
X99760294Y-69748641D01*
X99935328Y-69623792D01*
X99943200Y-69617139D01*
X100094052Y-69466812D01*
X100100730Y-69458965D01*
X100225003Y-69286020D01*
X100230313Y-69277183D01*
X100324670Y-69086267D01*
X100328469Y-69076672D01*
X100390377Y-68872910D01*
X100392555Y-68862837D01*
X100393986Y-68851962D01*
X100391775Y-68837778D01*
X100378617Y-68834000D01*
X98932000Y-68834000D01*
X98863879Y-68813998D01*
X98817386Y-68760342D01*
X98806000Y-68708000D01*
X98806000Y-68452000D01*
X98826002Y-68383879D01*
X98879658Y-68337386D01*
X98932000Y-68326000D01*
X100378344Y-68326000D01*
X100391875Y-68322027D01*
X100393180Y-68312947D01*
X100351214Y-68145875D01*
X100347894Y-68136124D01*
X100262972Y-67940814D01*
X100258105Y-67931739D01*
X100142426Y-67752926D01*
X100136136Y-67744757D01*
X99992806Y-67587240D01*
X99985273Y-67580215D01*
X99818139Y-67448222D01*
X99809556Y-67442520D01*
X99772602Y-67422120D01*
X99722631Y-67371687D01*
X99707859Y-67302245D01*
X99732975Y-67235839D01*
X99760327Y-67209232D01*
X99783797Y-67192491D01*
X99939860Y-67081173D01*
X100098096Y-66923489D01*
X100157594Y-66840689D01*
X100225435Y-66746277D01*
X100228453Y-66742077D01*
X100230746Y-66737437D01*
X100232446Y-66734608D01*
X100284674Y-66686518D01*
X100340451Y-66673500D01*
X107944274Y-66673500D01*
X108012395Y-66693502D01*
X108051707Y-66733665D01*
X108119987Y-66845088D01*
X108266250Y-67013938D01*
X108438126Y-67156632D01*
X108631000Y-67269338D01*
X108839692Y-67349030D01*
X108844760Y-67350061D01*
X108844763Y-67350062D01*
X108949466Y-67371364D01*
X109058597Y-67393567D01*
X109063772Y-67393757D01*
X109063774Y-67393757D01*
X109276673Y-67401564D01*
X109276677Y-67401564D01*
X109281837Y-67401753D01*
X109286957Y-67401097D01*
X109286959Y-67401097D01*
X109498288Y-67374025D01*
X109498289Y-67374025D01*
X109503416Y-67373368D01*
X109510096Y-67371364D01*
X109712429Y-67310661D01*
X109712434Y-67310659D01*
X109717384Y-67309174D01*
X109917994Y-67210896D01*
X110099860Y-67081173D01*
X110258096Y-66923489D01*
X110317594Y-66840689D01*
X110385435Y-66746277D01*
X110388453Y-66742077D01*
X110392145Y-66734608D01*
X110485136Y-66546453D01*
X110485137Y-66546451D01*
X110487430Y-66541811D01*
X110552370Y-66328069D01*
X110581529Y-66106590D01*
X110583156Y-66040000D01*
X110564852Y-65817361D01*
X110510431Y-65600702D01*
X110421354Y-65395840D01*
X110300014Y-65208277D01*
X110296532Y-65204450D01*
X110152798Y-65046488D01*
X110121746Y-64982642D01*
X110130141Y-64912143D01*
X110175317Y-64857375D01*
X110201761Y-64843706D01*
X110308297Y-64803767D01*
X110316705Y-64800615D01*
X110433261Y-64713261D01*
X110520615Y-64596705D01*
X110571745Y-64460316D01*
X110578500Y-64398134D01*
X110578500Y-62601866D01*
X110571745Y-62539684D01*
X110520615Y-62403295D01*
X110433261Y-62286739D01*
X110316705Y-62199385D01*
X110180316Y-62148255D01*
X110118134Y-62141500D01*
X108321866Y-62141500D01*
X108259684Y-62148255D01*
X108123295Y-62199385D01*
X108006739Y-62286739D01*
X107919385Y-62403295D01*
X107868255Y-62539684D01*
X107861500Y-62601866D01*
X107861500Y-62740500D01*
X107841498Y-62808621D01*
X107787842Y-62855114D01*
X107735500Y-62866500D01*
X100336805Y-62866500D01*
X100268684Y-62846498D01*
X100231013Y-62808940D01*
X100142822Y-62672617D01*
X100142820Y-62672614D01*
X100140014Y-62668277D01*
X99989670Y-62503051D01*
X99985619Y-62499852D01*
X99985615Y-62499848D01*
X99818414Y-62367800D01*
X99818410Y-62367798D01*
X99814359Y-62364598D01*
X99618789Y-62256638D01*
X99613920Y-62254914D01*
X99613916Y-62254912D01*
X99413087Y-62183795D01*
X99413083Y-62183794D01*
X99408212Y-62182069D01*
X99403119Y-62181162D01*
X99403116Y-62181161D01*
X99193373Y-62143800D01*
X99193367Y-62143799D01*
X99188284Y-62142894D01*
X99077009Y-62141535D01*
X99009140Y-62120702D01*
X98963306Y-62066483D01*
X98954061Y-61996091D01*
X98984340Y-61931875D01*
X98989455Y-61926449D01*
X99285499Y-61630405D01*
X99347811Y-61596379D01*
X99374594Y-61593500D01*
X111445406Y-61593500D01*
X111513527Y-61613502D01*
X111534501Y-61630405D01*
X115489777Y-65585682D01*
X115523803Y-65647994D01*
X115522100Y-65708446D01*
X115500989Y-65784570D01*
X115477251Y-66006695D01*
X115477548Y-66011848D01*
X115477548Y-66011851D01*
X115483011Y-66106590D01*
X115490110Y-66229715D01*
X115491247Y-66234761D01*
X115491248Y-66234767D01*
X115511119Y-66322939D01*
X115539222Y-66447639D01*
X115623266Y-66654616D01*
X115671707Y-66733665D01*
X115737291Y-66840688D01*
X115739987Y-66845088D01*
X115886250Y-67013938D01*
X116058126Y-67156632D01*
X116251000Y-67269338D01*
X116459692Y-67349030D01*
X116464760Y-67350061D01*
X116464763Y-67350062D01*
X116569466Y-67371364D01*
X116678597Y-67393567D01*
X116683772Y-67393757D01*
X116683774Y-67393757D01*
X116896673Y-67401564D01*
X116896677Y-67401564D01*
X116901837Y-67401753D01*
X116906957Y-67401097D01*
X116906959Y-67401097D01*
X117118288Y-67374025D01*
X117118289Y-67374025D01*
X117123416Y-67373368D01*
X117130096Y-67371364D01*
X117332429Y-67310661D01*
X117332434Y-67310659D01*
X117337384Y-67309174D01*
X117537994Y-67210896D01*
X117719860Y-67081173D01*
X117878096Y-66923489D01*
X117937594Y-66840689D01*
X118005435Y-66746277D01*
X118008453Y-66742077D01*
X118012145Y-66734608D01*
X118105136Y-66546453D01*
X118105137Y-66546451D01*
X118107430Y-66541811D01*
X118172370Y-66328069D01*
X118201529Y-66106590D01*
X118203156Y-66040000D01*
X118184852Y-65817361D01*
X118130431Y-65600702D01*
X118041354Y-65395840D01*
X117920014Y-65208277D01*
X117916532Y-65204450D01*
X117772798Y-65046488D01*
X117741746Y-64982642D01*
X117750141Y-64912143D01*
X117795317Y-64857375D01*
X117821761Y-64843706D01*
X117928297Y-64803767D01*
X117936705Y-64800615D01*
X118053261Y-64713261D01*
X118140615Y-64596705D01*
X118191745Y-64460316D01*
X118198500Y-64398134D01*
X118198500Y-62601866D01*
X118191745Y-62539684D01*
X118140615Y-62403295D01*
X118053261Y-62286739D01*
X117936705Y-62199385D01*
X117800316Y-62148255D01*
X117738134Y-62141500D01*
X115941866Y-62141500D01*
X115879684Y-62148255D01*
X115743295Y-62199385D01*
X115626739Y-62286739D01*
X115539385Y-62403295D01*
X115488255Y-62539684D01*
X115481500Y-62601866D01*
X115481500Y-63481406D01*
X115461498Y-63549527D01*
X115407842Y-63596020D01*
X115337568Y-63606124D01*
X115272988Y-63576630D01*
X115266405Y-63570501D01*
X113846934Y-62151029D01*
X112609744Y-60913839D01*
X135397173Y-60913839D01*
X135398893Y-60949647D01*
X135409713Y-61174908D01*
X135460704Y-61431256D01*
X135549026Y-61677252D01*
X135551242Y-61681376D01*
X135615753Y-61801437D01*
X135672737Y-61907491D01*
X135675532Y-61911234D01*
X135675534Y-61911237D01*
X135826330Y-62113177D01*
X135826335Y-62113183D01*
X135829122Y-62116915D01*
X135832431Y-62120195D01*
X135832436Y-62120201D01*
X136011426Y-62297635D01*
X136014743Y-62300923D01*
X136018505Y-62303681D01*
X136018508Y-62303684D01*
X136165828Y-62411703D01*
X136225524Y-62455474D01*
X136229667Y-62457654D01*
X136229669Y-62457655D01*
X136452684Y-62574989D01*
X136452689Y-62574991D01*
X136456834Y-62577172D01*
X136703590Y-62663344D01*
X136708183Y-62664216D01*
X136955785Y-62711224D01*
X136955788Y-62711224D01*
X136960374Y-62712095D01*
X137090959Y-62717226D01*
X137216875Y-62722174D01*
X137216881Y-62722174D01*
X137221543Y-62722357D01*
X137300977Y-62713657D01*
X137476707Y-62694412D01*
X137476712Y-62694411D01*
X137481360Y-62693902D01*
X137562207Y-62672617D01*
X137729594Y-62628548D01*
X137729596Y-62628547D01*
X137734117Y-62627357D01*
X137785496Y-62605283D01*
X137969972Y-62526025D01*
X137974262Y-62524182D01*
X138196519Y-62386646D01*
X138200082Y-62383629D01*
X138200087Y-62383626D01*
X138392439Y-62220787D01*
X138392440Y-62220786D01*
X138396005Y-62217768D01*
X138454534Y-62151029D01*
X138565257Y-62024774D01*
X138565261Y-62024769D01*
X138568339Y-62021259D01*
X138709733Y-61801437D01*
X138817083Y-61563129D01*
X138888030Y-61311572D01*
X138904832Y-61179496D01*
X138920616Y-61055421D01*
X138920616Y-61055417D01*
X138921014Y-61052291D01*
X138923431Y-60960000D01*
X138904061Y-60699348D01*
X138892725Y-60649248D01*
X138847408Y-60448980D01*
X138846377Y-60444423D01*
X138844499Y-60439593D01*
X138753340Y-60205176D01*
X138753339Y-60205173D01*
X138751647Y-60200823D01*
X138621951Y-59973902D01*
X138460138Y-59768643D01*
X138269763Y-59589557D01*
X138055009Y-59440576D01*
X138050816Y-59438508D01*
X137824781Y-59327040D01*
X137824778Y-59327039D01*
X137820593Y-59324975D01*
X137774449Y-59310204D01*
X137576123Y-59246720D01*
X137571665Y-59245293D01*
X137313693Y-59203279D01*
X137199942Y-59201790D01*
X137057022Y-59199919D01*
X137057019Y-59199919D01*
X137052345Y-59199858D01*
X136793362Y-59235104D01*
X136542433Y-59308243D01*
X136538180Y-59310203D01*
X136538179Y-59310204D01*
X136501659Y-59327040D01*
X136305072Y-59417668D01*
X136266067Y-59443241D01*
X136090404Y-59558410D01*
X136090399Y-59558414D01*
X136086491Y-59560976D01*
X135891494Y-59735018D01*
X135724363Y-59935970D01*
X135588771Y-60159419D01*
X135487697Y-60400455D01*
X135423359Y-60653783D01*
X135397173Y-60913839D01*
X112609744Y-60913839D01*
X112263652Y-60567747D01*
X112256112Y-60559461D01*
X112252000Y-60552982D01*
X112202348Y-60506356D01*
X112199507Y-60503602D01*
X112179770Y-60483865D01*
X112176573Y-60481385D01*
X112167551Y-60473680D01*
X112154116Y-60461064D01*
X112135321Y-60443414D01*
X112128375Y-60439595D01*
X112128372Y-60439593D01*
X112117566Y-60433652D01*
X112101047Y-60422801D01*
X112100583Y-60422441D01*
X112085041Y-60410386D01*
X112077772Y-60407241D01*
X112077768Y-60407238D01*
X112044463Y-60392826D01*
X112033813Y-60387609D01*
X111995060Y-60366305D01*
X111975437Y-60361267D01*
X111956734Y-60354863D01*
X111945420Y-60349967D01*
X111945419Y-60349967D01*
X111938145Y-60346819D01*
X111930322Y-60345580D01*
X111930312Y-60345577D01*
X111894476Y-60339901D01*
X111882856Y-60337495D01*
X111847711Y-60328472D01*
X111847710Y-60328472D01*
X111840030Y-60326500D01*
X111819776Y-60326500D01*
X111800065Y-60324949D01*
X111797534Y-60324548D01*
X111780057Y-60321780D01*
X111772165Y-60322526D01*
X111736039Y-60325941D01*
X111724181Y-60326500D01*
X99138763Y-60326500D01*
X99127579Y-60325973D01*
X99120091Y-60324299D01*
X99112168Y-60324548D01*
X99052033Y-60326438D01*
X99048075Y-60326500D01*
X99020144Y-60326500D01*
X99016229Y-60326995D01*
X99016225Y-60326995D01*
X99016167Y-60327003D01*
X99016138Y-60327006D01*
X99004296Y-60327939D01*
X98960110Y-60329327D01*
X98942744Y-60334372D01*
X98940658Y-60334978D01*
X98921306Y-60338986D01*
X98909068Y-60340532D01*
X98909066Y-60340533D01*
X98901203Y-60341526D01*
X98860086Y-60357806D01*
X98848885Y-60361641D01*
X98806406Y-60373982D01*
X98799587Y-60378015D01*
X98799582Y-60378017D01*
X98788971Y-60384293D01*
X98771221Y-60392990D01*
X98752383Y-60400448D01*
X98745967Y-60405109D01*
X98745966Y-60405110D01*
X98716625Y-60426428D01*
X98706701Y-60432947D01*
X98675460Y-60451422D01*
X98675455Y-60451426D01*
X98668637Y-60455458D01*
X98654313Y-60469782D01*
X98639281Y-60482621D01*
X98622893Y-60494528D01*
X98594712Y-60528593D01*
X98586722Y-60537373D01*
X97019500Y-62104595D01*
X96957188Y-62138621D01*
X96930405Y-62141500D01*
X95621866Y-62141500D01*
X95559684Y-62148255D01*
X95423295Y-62199385D01*
X95306739Y-62286739D01*
X95219385Y-62403295D01*
X95168255Y-62539684D01*
X95161500Y-62601866D01*
X95161500Y-64398134D01*
X95168255Y-64460316D01*
X95219385Y-64596705D01*
X95306739Y-64713261D01*
X95423295Y-64800615D01*
X95431704Y-64803767D01*
X95431705Y-64803768D01*
X95540451Y-64844535D01*
X95597216Y-64887176D01*
X95621916Y-64953738D01*
X95606709Y-65023087D01*
X95587316Y-65049568D01*
X95460629Y-65182138D01*
X95334743Y-65366680D01*
X95240688Y-65569305D01*
X95180989Y-65784570D01*
X95157251Y-66006695D01*
X95157548Y-66011848D01*
X95157548Y-66011851D01*
X95163011Y-66106590D01*
X95170110Y-66229715D01*
X95171247Y-66234761D01*
X95171248Y-66234767D01*
X95191119Y-66322939D01*
X95219222Y-66447639D01*
X95303266Y-66654616D01*
X95351707Y-66733665D01*
X95417291Y-66840688D01*
X95419987Y-66845088D01*
X95566250Y-67013938D01*
X95738126Y-67156632D01*
X95808595Y-67197811D01*
X95811445Y-67199476D01*
X95860169Y-67251114D01*
X95873240Y-67320897D01*
X95846509Y-67386669D01*
X95806055Y-67420027D01*
X95793607Y-67426507D01*
X95789474Y-67429610D01*
X95789471Y-67429612D01*
X95765247Y-67447800D01*
X95614965Y-67560635D01*
X95460629Y-67722138D01*
X95334743Y-67906680D01*
X95240688Y-68109305D01*
X95180989Y-68324570D01*
X95157251Y-68546695D01*
X95170110Y-68769715D01*
X95171247Y-68774761D01*
X95171248Y-68774767D01*
X95184597Y-68834000D01*
X95219222Y-68987639D01*
X95303266Y-69194616D01*
X95337199Y-69249989D01*
X95413110Y-69373865D01*
X95419987Y-69385088D01*
X95566250Y-69553938D01*
X95738126Y-69696632D01*
X95808595Y-69737811D01*
X95811445Y-69739476D01*
X95860169Y-69791114D01*
X95873240Y-69860897D01*
X95846509Y-69926669D01*
X95806055Y-69960027D01*
X95793607Y-69966507D01*
X95789474Y-69969610D01*
X95789471Y-69969612D01*
X95619100Y-70097530D01*
X95614965Y-70100635D01*
X95611393Y-70104373D01*
X95503729Y-70217037D01*
X95460629Y-70262138D01*
X95334743Y-70446680D01*
X95294219Y-70533982D01*
X95268252Y-70589924D01*
X95240688Y-70649305D01*
X95180989Y-70864570D01*
X95157251Y-71086695D01*
X95157548Y-71091848D01*
X95157548Y-71091851D01*
X95163011Y-71186590D01*
X95170110Y-71309715D01*
X95171247Y-71314761D01*
X95171248Y-71314767D01*
X95203453Y-71457668D01*
X95198917Y-71528520D01*
X95169631Y-71574464D01*
X89777747Y-76966348D01*
X89769461Y-76973888D01*
X89762982Y-76978000D01*
X89757557Y-76983777D01*
X89716357Y-77027651D01*
X89713602Y-77030493D01*
X89693865Y-77050230D01*
X89691385Y-77053427D01*
X89683682Y-77062447D01*
X89653414Y-77094679D01*
X89649595Y-77101625D01*
X89649593Y-77101628D01*
X89644914Y-77110139D01*
X89594568Y-77160197D01*
X89525151Y-77175090D01*
X89458702Y-77150088D01*
X89416319Y-77093131D01*
X89408500Y-77049437D01*
X89408500Y-59054500D01*
X89428502Y-58986379D01*
X89482158Y-58939886D01*
X89534500Y-58928500D01*
X139065500Y-58928500D01*
X139133621Y-58948502D01*
G37*
%TD.AperFunction*%
%TA.AperFunction,Conductor*%
G36*
X121088321Y-102253502D02*
G01*
X121134814Y-102307158D01*
X121144918Y-102377432D01*
X121129319Y-102422500D01*
X121085473Y-102498444D01*
X121026458Y-102680072D01*
X121025768Y-102686633D01*
X121025768Y-102686635D01*
X121013841Y-102800116D01*
X121006496Y-102870000D01*
X121007186Y-102876565D01*
X121021024Y-103008222D01*
X121026458Y-103059928D01*
X121085473Y-103241556D01*
X121088776Y-103247278D01*
X121088777Y-103247279D01*
X121106928Y-103278717D01*
X121180960Y-103406944D01*
X121185378Y-103411851D01*
X121185379Y-103411852D01*
X121251310Y-103485076D01*
X121308747Y-103548866D01*
X121407843Y-103620864D01*
X121449881Y-103651406D01*
X121463248Y-103661118D01*
X121469276Y-103663802D01*
X121469278Y-103663803D01*
X121563426Y-103705720D01*
X121637712Y-103738794D01*
X121731112Y-103758647D01*
X121818056Y-103777128D01*
X121818061Y-103777128D01*
X121824513Y-103778500D01*
X121880406Y-103778500D01*
X121948527Y-103798502D01*
X121969501Y-103815405D01*
X126919777Y-108765682D01*
X126953803Y-108827994D01*
X126952100Y-108888446D01*
X126930989Y-108964570D01*
X126907251Y-109186695D01*
X126907548Y-109191848D01*
X126907548Y-109191851D01*
X126913011Y-109286590D01*
X126920110Y-109409715D01*
X126921247Y-109414761D01*
X126921248Y-109414767D01*
X126941119Y-109502939D01*
X126969222Y-109627639D01*
X127029014Y-109774890D01*
X127046662Y-109818351D01*
X127053266Y-109834616D01*
X127102285Y-109914608D01*
X127167291Y-110020688D01*
X127169987Y-110025088D01*
X127316250Y-110193938D01*
X127320230Y-110197242D01*
X127324981Y-110201187D01*
X127364616Y-110260090D01*
X127366113Y-110331071D01*
X127328997Y-110391593D01*
X127288725Y-110416112D01*
X127211696Y-110444989D01*
X127173295Y-110459385D01*
X127056739Y-110546739D01*
X126969385Y-110663295D01*
X126918255Y-110799684D01*
X126911500Y-110861866D01*
X126911500Y-112170406D01*
X126891498Y-112238527D01*
X126874595Y-112259501D01*
X124234500Y-114899595D01*
X124172188Y-114933621D01*
X124145405Y-114936500D01*
X95564595Y-114936500D01*
X95496474Y-114916498D01*
X95475500Y-114899595D01*
X94650405Y-114074500D01*
X94616379Y-114012188D01*
X94613500Y-113985405D01*
X94613500Y-112027966D01*
X95188257Y-112027966D01*
X95218565Y-112162446D01*
X95221645Y-112172275D01*
X95301770Y-112369603D01*
X95306413Y-112378794D01*
X95417694Y-112560388D01*
X95423777Y-112568699D01*
X95563213Y-112729667D01*
X95570580Y-112736883D01*
X95734434Y-112872916D01*
X95742881Y-112878831D01*
X95926756Y-112986279D01*
X95936042Y-112990729D01*
X96135001Y-113066703D01*
X96144899Y-113069579D01*
X96248250Y-113090606D01*
X96262299Y-113089410D01*
X96266000Y-113079065D01*
X96266000Y-112032115D01*
X96261525Y-112016876D01*
X96260135Y-112015671D01*
X96252452Y-112014000D01*
X95203225Y-112014000D01*
X95189694Y-112017973D01*
X95188257Y-112027966D01*
X94613500Y-112027966D01*
X94613500Y-106994594D01*
X94633502Y-106926473D01*
X94650405Y-106905499D01*
X94945019Y-106610885D01*
X95007331Y-106576859D01*
X95078146Y-106581924D01*
X95134982Y-106624471D01*
X95159905Y-106692727D01*
X95170110Y-106869715D01*
X95171247Y-106874761D01*
X95171248Y-106874767D01*
X95178174Y-106905499D01*
X95219222Y-107087639D01*
X95249907Y-107163207D01*
X95297167Y-107279595D01*
X95303266Y-107294616D01*
X95419987Y-107485088D01*
X95566250Y-107653938D01*
X95738126Y-107796632D01*
X95805416Y-107835953D01*
X95811445Y-107839476D01*
X95860169Y-107891114D01*
X95873240Y-107960897D01*
X95846509Y-108026669D01*
X95806055Y-108060027D01*
X95793607Y-108066507D01*
X95789474Y-108069610D01*
X95789471Y-108069612D01*
X95765247Y-108087800D01*
X95614965Y-108200635D01*
X95460629Y-108362138D01*
X95334743Y-108546680D01*
X95240688Y-108749305D01*
X95180989Y-108964570D01*
X95157251Y-109186695D01*
X95157548Y-109191848D01*
X95157548Y-109191851D01*
X95163011Y-109286590D01*
X95170110Y-109409715D01*
X95171247Y-109414761D01*
X95171248Y-109414767D01*
X95191119Y-109502939D01*
X95219222Y-109627639D01*
X95279014Y-109774890D01*
X95296662Y-109818351D01*
X95303266Y-109834616D01*
X95352285Y-109914608D01*
X95417291Y-110020688D01*
X95419987Y-110025088D01*
X95566250Y-110193938D01*
X95738126Y-110336632D01*
X95799196Y-110372318D01*
X95811955Y-110379774D01*
X95860679Y-110431412D01*
X95873750Y-110501195D01*
X95847019Y-110566967D01*
X95806562Y-110600327D01*
X95798457Y-110604546D01*
X95789738Y-110610036D01*
X95619433Y-110737905D01*
X95611726Y-110744748D01*
X95464590Y-110898717D01*
X95458104Y-110906727D01*
X95338098Y-111082649D01*
X95333000Y-111091623D01*
X95243338Y-111284783D01*
X95239775Y-111294470D01*
X95184389Y-111494183D01*
X95185912Y-111502607D01*
X95198292Y-111506000D01*
X96648000Y-111506000D01*
X96716121Y-111526002D01*
X96762614Y-111579658D01*
X96774000Y-111632000D01*
X96774000Y-113078517D01*
X96778064Y-113092359D01*
X96791478Y-113094393D01*
X96798184Y-113093534D01*
X96808262Y-113091392D01*
X97012255Y-113030191D01*
X97021842Y-113026433D01*
X97213095Y-112932739D01*
X97221945Y-112927464D01*
X97395328Y-112803792D01*
X97403200Y-112797139D01*
X97554052Y-112646812D01*
X97560730Y-112638965D01*
X97688022Y-112461819D01*
X97689279Y-112462722D01*
X97736373Y-112419362D01*
X97806311Y-112407145D01*
X97871751Y-112434678D01*
X97899579Y-112466511D01*
X97959987Y-112565088D01*
X98106250Y-112733938D01*
X98278126Y-112876632D01*
X98471000Y-112989338D01*
X98679692Y-113069030D01*
X98684760Y-113070061D01*
X98684763Y-113070062D01*
X98779862Y-113089410D01*
X98898597Y-113113567D01*
X98903772Y-113113757D01*
X98903774Y-113113757D01*
X99116673Y-113121564D01*
X99116677Y-113121564D01*
X99121837Y-113121753D01*
X99126957Y-113121097D01*
X99126959Y-113121097D01*
X99338288Y-113094025D01*
X99338289Y-113094025D01*
X99343416Y-113093368D01*
X99348366Y-113091883D01*
X99552429Y-113030661D01*
X99552434Y-113030659D01*
X99557384Y-113029174D01*
X99757994Y-112930896D01*
X99939860Y-112801173D01*
X100098096Y-112643489D01*
X100228453Y-112462077D01*
X100230746Y-112457437D01*
X100232446Y-112454608D01*
X100284674Y-112406518D01*
X100340451Y-112393500D01*
X106601233Y-112393500D01*
X106612416Y-112394027D01*
X106619909Y-112395702D01*
X106627835Y-112395453D01*
X106627836Y-112395453D01*
X106687986Y-112393562D01*
X106691945Y-112393500D01*
X106719856Y-112393500D01*
X106723791Y-112393003D01*
X106723856Y-112392995D01*
X106735693Y-112392062D01*
X106767951Y-112391048D01*
X106771970Y-112390922D01*
X106779889Y-112390673D01*
X106799343Y-112385021D01*
X106818700Y-112381013D01*
X106830930Y-112379468D01*
X106830931Y-112379468D01*
X106838797Y-112378474D01*
X106846168Y-112375555D01*
X106846170Y-112375555D01*
X106879912Y-112362196D01*
X106891142Y-112358351D01*
X106925983Y-112348229D01*
X106925984Y-112348229D01*
X106933593Y-112346018D01*
X106940412Y-112341985D01*
X106940417Y-112341983D01*
X106951028Y-112335707D01*
X106968776Y-112327012D01*
X106987617Y-112319552D01*
X107023387Y-112293564D01*
X107033307Y-112287048D01*
X107064535Y-112268580D01*
X107064538Y-112268578D01*
X107071362Y-112264542D01*
X107085683Y-112250221D01*
X107100717Y-112237380D01*
X107110694Y-112230131D01*
X107117107Y-112225472D01*
X107145298Y-112191395D01*
X107153288Y-112182616D01*
X107307938Y-112027966D01*
X110428257Y-112027966D01*
X110458565Y-112162446D01*
X110461645Y-112172275D01*
X110541770Y-112369603D01*
X110546413Y-112378794D01*
X110657694Y-112560388D01*
X110663777Y-112568699D01*
X110803213Y-112729667D01*
X110810580Y-112736883D01*
X110974434Y-112872916D01*
X110982881Y-112878831D01*
X111166756Y-112986279D01*
X111176042Y-112990729D01*
X111375001Y-113066703D01*
X111384899Y-113069579D01*
X111488250Y-113090606D01*
X111502299Y-113089410D01*
X111506000Y-113079065D01*
X111506000Y-113078517D01*
X112014000Y-113078517D01*
X112018064Y-113092359D01*
X112031478Y-113094393D01*
X112038184Y-113093534D01*
X112048262Y-113091392D01*
X112252255Y-113030191D01*
X112261842Y-113026433D01*
X112453095Y-112932739D01*
X112461945Y-112927464D01*
X112635328Y-112803792D01*
X112643200Y-112797139D01*
X112794052Y-112646812D01*
X112800730Y-112638965D01*
X112928022Y-112461819D01*
X112929147Y-112462627D01*
X112976669Y-112418876D01*
X113046607Y-112406661D01*
X113112046Y-112434197D01*
X113139870Y-112466028D01*
X113197690Y-112560383D01*
X113203777Y-112568699D01*
X113343213Y-112729667D01*
X113350580Y-112736883D01*
X113514434Y-112872916D01*
X113522881Y-112878831D01*
X113706756Y-112986279D01*
X113716042Y-112990729D01*
X113915001Y-113066703D01*
X113924899Y-113069579D01*
X114028250Y-113090606D01*
X114042299Y-113089410D01*
X114046000Y-113079065D01*
X114046000Y-113078517D01*
X114554000Y-113078517D01*
X114558064Y-113092359D01*
X114571478Y-113094393D01*
X114578184Y-113093534D01*
X114588262Y-113091392D01*
X114792255Y-113030191D01*
X114801842Y-113026433D01*
X114993095Y-112932739D01*
X115001945Y-112927464D01*
X115175328Y-112803792D01*
X115183200Y-112797139D01*
X115334052Y-112646812D01*
X115340730Y-112638965D01*
X115468022Y-112461819D01*
X115469147Y-112462627D01*
X115516669Y-112418876D01*
X115586607Y-112406661D01*
X115652046Y-112434197D01*
X115679870Y-112466028D01*
X115737690Y-112560383D01*
X115743777Y-112568699D01*
X115883213Y-112729667D01*
X115890580Y-112736883D01*
X116054434Y-112872916D01*
X116062881Y-112878831D01*
X116246756Y-112986279D01*
X116256042Y-112990729D01*
X116455001Y-113066703D01*
X116464899Y-113069579D01*
X116568250Y-113090606D01*
X116582299Y-113089410D01*
X116586000Y-113079065D01*
X116586000Y-113078517D01*
X117094000Y-113078517D01*
X117098064Y-113092359D01*
X117111478Y-113094393D01*
X117118184Y-113093534D01*
X117128262Y-113091392D01*
X117332255Y-113030191D01*
X117341842Y-113026433D01*
X117533095Y-112932739D01*
X117541945Y-112927464D01*
X117715328Y-112803792D01*
X117723200Y-112797139D01*
X117828286Y-112692418D01*
X117890657Y-112658501D01*
X117961464Y-112663689D01*
X118018226Y-112706335D01*
X118035208Y-112737439D01*
X118076675Y-112848052D01*
X118085214Y-112863649D01*
X118161715Y-112965724D01*
X118174276Y-112978285D01*
X118276351Y-113054786D01*
X118291946Y-113063324D01*
X118412394Y-113108478D01*
X118427649Y-113112105D01*
X118478514Y-113117631D01*
X118485328Y-113118000D01*
X119107885Y-113118000D01*
X119123124Y-113113525D01*
X119124329Y-113112135D01*
X119126000Y-113104452D01*
X119126000Y-113099884D01*
X119634000Y-113099884D01*
X119638475Y-113115123D01*
X119639865Y-113116328D01*
X119647548Y-113117999D01*
X120274669Y-113117999D01*
X120281490Y-113117629D01*
X120332352Y-113112105D01*
X120347604Y-113108479D01*
X120468054Y-113063324D01*
X120483649Y-113054786D01*
X120585724Y-112978285D01*
X120598285Y-112965724D01*
X120674786Y-112863649D01*
X120683324Y-112848054D01*
X120728478Y-112727606D01*
X120732105Y-112712351D01*
X120737631Y-112661486D01*
X120738000Y-112654672D01*
X120738000Y-112032115D01*
X120733525Y-112016876D01*
X120732135Y-112015671D01*
X120724452Y-112014000D01*
X119652115Y-112014000D01*
X119636876Y-112018475D01*
X119635671Y-112019865D01*
X119634000Y-112027548D01*
X119634000Y-113099884D01*
X119126000Y-113099884D01*
X119126000Y-112032115D01*
X119121525Y-112016876D01*
X119120135Y-112015671D01*
X119112452Y-112014000D01*
X117112115Y-112014000D01*
X117096876Y-112018475D01*
X117095671Y-112019865D01*
X117094000Y-112027548D01*
X117094000Y-113078517D01*
X116586000Y-113078517D01*
X116586000Y-112032115D01*
X116581525Y-112016876D01*
X116580135Y-112015671D01*
X116572452Y-112014000D01*
X114572115Y-112014000D01*
X114556876Y-112018475D01*
X114555671Y-112019865D01*
X114554000Y-112027548D01*
X114554000Y-113078517D01*
X114046000Y-113078517D01*
X114046000Y-112032115D01*
X114041525Y-112016876D01*
X114040135Y-112015671D01*
X114032452Y-112014000D01*
X112032115Y-112014000D01*
X112016876Y-112018475D01*
X112015671Y-112019865D01*
X112014000Y-112027548D01*
X112014000Y-113078517D01*
X111506000Y-113078517D01*
X111506000Y-112032115D01*
X111501525Y-112016876D01*
X111500135Y-112015671D01*
X111492452Y-112014000D01*
X110443225Y-112014000D01*
X110429694Y-112017973D01*
X110428257Y-112027966D01*
X107307938Y-112027966D01*
X107841721Y-111494183D01*
X110424389Y-111494183D01*
X110425912Y-111502607D01*
X110438292Y-111506000D01*
X111487885Y-111506000D01*
X111503124Y-111501525D01*
X111504329Y-111500135D01*
X111506000Y-111492452D01*
X111506000Y-111487885D01*
X112014000Y-111487885D01*
X112018475Y-111503124D01*
X112019865Y-111504329D01*
X112027548Y-111506000D01*
X114027885Y-111506000D01*
X114043124Y-111501525D01*
X114044329Y-111500135D01*
X114046000Y-111492452D01*
X114046000Y-111487885D01*
X114554000Y-111487885D01*
X114558475Y-111503124D01*
X114559865Y-111504329D01*
X114567548Y-111506000D01*
X116567885Y-111506000D01*
X116583124Y-111501525D01*
X116584329Y-111500135D01*
X116586000Y-111492452D01*
X116586000Y-111487885D01*
X117094000Y-111487885D01*
X117098475Y-111503124D01*
X117099865Y-111504329D01*
X117107548Y-111506000D01*
X119107885Y-111506000D01*
X119123124Y-111501525D01*
X119124329Y-111500135D01*
X119126000Y-111492452D01*
X119126000Y-111487885D01*
X119634000Y-111487885D01*
X119638475Y-111503124D01*
X119639865Y-111504329D01*
X119647548Y-111506000D01*
X120719884Y-111506000D01*
X120735123Y-111501525D01*
X120736328Y-111500135D01*
X120737999Y-111492452D01*
X120737999Y-110865331D01*
X120737629Y-110858510D01*
X120732105Y-110807648D01*
X120728479Y-110792396D01*
X120683324Y-110671946D01*
X120674786Y-110656351D01*
X120598285Y-110554276D01*
X120585724Y-110541715D01*
X120483649Y-110465214D01*
X120468054Y-110456676D01*
X120347606Y-110411522D01*
X120332351Y-110407895D01*
X120281486Y-110402369D01*
X120274672Y-110402000D01*
X119652115Y-110402000D01*
X119636876Y-110406475D01*
X119635671Y-110407865D01*
X119634000Y-110415548D01*
X119634000Y-111487885D01*
X119126000Y-111487885D01*
X119126000Y-110420116D01*
X119121525Y-110404877D01*
X119120135Y-110403672D01*
X119112452Y-110402001D01*
X118485331Y-110402001D01*
X118478510Y-110402371D01*
X118427648Y-110407895D01*
X118412396Y-110411521D01*
X118291946Y-110456676D01*
X118276351Y-110465214D01*
X118174276Y-110541715D01*
X118161715Y-110554276D01*
X118085214Y-110656351D01*
X118076676Y-110671946D01*
X118035100Y-110782849D01*
X117992458Y-110839613D01*
X117925897Y-110864313D01*
X117856548Y-110849105D01*
X117823925Y-110823419D01*
X117772806Y-110767240D01*
X117765273Y-110760215D01*
X117598139Y-110628222D01*
X117589552Y-110622517D01*
X117403117Y-110519599D01*
X117393705Y-110515369D01*
X117192959Y-110444280D01*
X117182988Y-110441646D01*
X117111837Y-110428972D01*
X117098540Y-110430432D01*
X117094000Y-110444989D01*
X117094000Y-111487885D01*
X116586000Y-111487885D01*
X116586000Y-110443102D01*
X116582082Y-110429758D01*
X116567806Y-110427771D01*
X116529324Y-110433660D01*
X116519288Y-110436051D01*
X116316868Y-110502212D01*
X116307359Y-110506209D01*
X116118463Y-110604542D01*
X116109738Y-110610036D01*
X115939433Y-110737905D01*
X115931726Y-110744748D01*
X115784590Y-110898717D01*
X115778104Y-110906727D01*
X115673193Y-111060521D01*
X115618282Y-111105524D01*
X115547757Y-111113695D01*
X115484010Y-111082441D01*
X115463313Y-111057957D01*
X115382427Y-110932926D01*
X115376136Y-110924757D01*
X115232806Y-110767240D01*
X115225273Y-110760215D01*
X115058139Y-110628222D01*
X115049552Y-110622517D01*
X114863117Y-110519599D01*
X114853705Y-110515369D01*
X114652959Y-110444280D01*
X114642988Y-110441646D01*
X114571837Y-110428972D01*
X114558540Y-110430432D01*
X114554000Y-110444989D01*
X114554000Y-111487885D01*
X114046000Y-111487885D01*
X114046000Y-110443102D01*
X114042082Y-110429758D01*
X114027806Y-110427771D01*
X113989324Y-110433660D01*
X113979288Y-110436051D01*
X113776868Y-110502212D01*
X113767359Y-110506209D01*
X113578463Y-110604542D01*
X113569738Y-110610036D01*
X113399433Y-110737905D01*
X113391726Y-110744748D01*
X113244590Y-110898717D01*
X113238104Y-110906727D01*
X113133193Y-111060521D01*
X113078282Y-111105524D01*
X113007757Y-111113695D01*
X112944010Y-111082441D01*
X112923313Y-111057957D01*
X112842427Y-110932926D01*
X112836136Y-110924757D01*
X112692806Y-110767240D01*
X112685273Y-110760215D01*
X112518139Y-110628222D01*
X112509552Y-110622517D01*
X112323117Y-110519599D01*
X112313705Y-110515369D01*
X112112959Y-110444280D01*
X112102988Y-110441646D01*
X112031837Y-110428972D01*
X112018540Y-110430432D01*
X112014000Y-110444989D01*
X112014000Y-111487885D01*
X111506000Y-111487885D01*
X111506000Y-110443102D01*
X111502082Y-110429758D01*
X111487806Y-110427771D01*
X111449324Y-110433660D01*
X111439288Y-110436051D01*
X111236868Y-110502212D01*
X111227359Y-110506209D01*
X111038463Y-110604542D01*
X111029738Y-110610036D01*
X110859433Y-110737905D01*
X110851726Y-110744748D01*
X110704590Y-110898717D01*
X110698104Y-110906727D01*
X110578098Y-111082649D01*
X110573000Y-111091623D01*
X110483338Y-111284783D01*
X110479775Y-111294470D01*
X110424389Y-111494183D01*
X107841721Y-111494183D01*
X110715499Y-108620405D01*
X110777811Y-108586379D01*
X110804594Y-108583500D01*
X115491233Y-108583500D01*
X115502416Y-108584027D01*
X115509909Y-108585702D01*
X115517835Y-108585453D01*
X115517836Y-108585453D01*
X115577986Y-108583562D01*
X115581945Y-108583500D01*
X115609856Y-108583500D01*
X115613791Y-108583003D01*
X115613856Y-108582995D01*
X115625693Y-108582062D01*
X115657951Y-108581048D01*
X115661970Y-108580922D01*
X115669889Y-108580673D01*
X115689343Y-108575021D01*
X115708700Y-108571013D01*
X115720930Y-108569468D01*
X115720931Y-108569468D01*
X115728797Y-108568474D01*
X115736168Y-108565555D01*
X115736170Y-108565555D01*
X115769912Y-108552196D01*
X115781142Y-108548351D01*
X115815983Y-108538229D01*
X115815984Y-108538229D01*
X115823593Y-108536018D01*
X115830412Y-108531985D01*
X115830417Y-108531983D01*
X115841028Y-108525707D01*
X115858776Y-108517012D01*
X115877617Y-108509552D01*
X115913387Y-108483564D01*
X115923307Y-108477048D01*
X115954535Y-108458580D01*
X115954538Y-108458578D01*
X115961362Y-108454542D01*
X115975683Y-108440221D01*
X115990717Y-108427380D01*
X116000694Y-108420131D01*
X116007107Y-108415472D01*
X116035298Y-108381395D01*
X116043288Y-108372616D01*
X118924549Y-105491355D01*
X118986861Y-105457329D01*
X119038762Y-105456979D01*
X119218597Y-105493567D01*
X119223772Y-105493757D01*
X119223774Y-105493757D01*
X119436673Y-105501564D01*
X119436677Y-105501564D01*
X119441837Y-105501753D01*
X119446957Y-105501097D01*
X119446959Y-105501097D01*
X119658288Y-105474025D01*
X119658289Y-105474025D01*
X119663416Y-105473368D01*
X119702434Y-105461662D01*
X119872429Y-105410661D01*
X119872434Y-105410659D01*
X119877384Y-105409174D01*
X120077994Y-105310896D01*
X120259860Y-105181173D01*
X120418096Y-105023489D01*
X120436326Y-104998120D01*
X120545435Y-104846277D01*
X120548453Y-104842077D01*
X120558489Y-104821772D01*
X120645136Y-104646453D01*
X120645137Y-104646451D01*
X120647430Y-104641811D01*
X120712370Y-104428069D01*
X120741529Y-104206590D01*
X120743156Y-104140000D01*
X120724852Y-103917361D01*
X120670431Y-103700702D01*
X120581354Y-103495840D01*
X120523845Y-103406944D01*
X120462822Y-103312617D01*
X120462820Y-103312614D01*
X120460014Y-103308277D01*
X120309670Y-103143051D01*
X120305619Y-103139852D01*
X120305615Y-103139848D01*
X120138414Y-103007800D01*
X120138410Y-103007798D01*
X120134359Y-103004598D01*
X119938789Y-102896638D01*
X119933920Y-102894914D01*
X119933916Y-102894912D01*
X119733087Y-102823795D01*
X119733083Y-102823794D01*
X119728212Y-102822069D01*
X119723119Y-102821162D01*
X119723116Y-102821161D01*
X119513373Y-102783800D01*
X119513367Y-102783799D01*
X119508284Y-102782894D01*
X119434452Y-102781992D01*
X119290081Y-102780228D01*
X119290079Y-102780228D01*
X119284911Y-102780165D01*
X119064091Y-102813955D01*
X118851756Y-102883357D01*
X118821443Y-102899137D01*
X118665479Y-102980327D01*
X118653607Y-102986507D01*
X118649474Y-102989610D01*
X118649471Y-102989612D01*
X118479100Y-103117530D01*
X118474965Y-103120635D01*
X118320629Y-103282138D01*
X118213201Y-103439621D01*
X118158293Y-103484621D01*
X118087768Y-103492792D01*
X118024021Y-103461538D01*
X118003324Y-103437054D01*
X117922822Y-103312617D01*
X117922820Y-103312614D01*
X117920014Y-103308277D01*
X117769670Y-103143051D01*
X117765619Y-103139852D01*
X117765615Y-103139848D01*
X117598414Y-103007800D01*
X117598410Y-103007798D01*
X117594359Y-103004598D01*
X117398789Y-102896638D01*
X117393920Y-102894914D01*
X117393916Y-102894912D01*
X117193087Y-102823795D01*
X117193083Y-102823794D01*
X117188212Y-102822069D01*
X117183119Y-102821162D01*
X117183116Y-102821161D01*
X116973373Y-102783800D01*
X116973367Y-102783799D01*
X116968284Y-102782894D01*
X116894452Y-102781992D01*
X116750081Y-102780228D01*
X116750079Y-102780228D01*
X116744911Y-102780165D01*
X116524091Y-102813955D01*
X116311756Y-102883357D01*
X116281443Y-102899137D01*
X116125479Y-102980327D01*
X116113607Y-102986507D01*
X116109474Y-102989610D01*
X116109471Y-102989612D01*
X115939100Y-103117530D01*
X115934965Y-103120635D01*
X115780629Y-103282138D01*
X115673201Y-103439621D01*
X115618293Y-103484621D01*
X115547768Y-103492792D01*
X115484021Y-103461538D01*
X115463324Y-103437054D01*
X115382822Y-103312617D01*
X115382820Y-103312614D01*
X115380014Y-103308277D01*
X115229670Y-103143051D01*
X115225619Y-103139852D01*
X115225615Y-103139848D01*
X115058414Y-103007800D01*
X115058410Y-103007798D01*
X115054359Y-103004598D01*
X114858789Y-102896638D01*
X114853920Y-102894914D01*
X114853916Y-102894912D01*
X114653087Y-102823795D01*
X114653083Y-102823794D01*
X114648212Y-102822069D01*
X114643119Y-102821162D01*
X114643116Y-102821161D01*
X114433373Y-102783800D01*
X114433367Y-102783799D01*
X114428284Y-102782894D01*
X114354452Y-102781992D01*
X114210081Y-102780228D01*
X114210079Y-102780228D01*
X114204911Y-102780165D01*
X113984091Y-102813955D01*
X113771756Y-102883357D01*
X113741443Y-102899137D01*
X113585479Y-102980327D01*
X113573607Y-102986507D01*
X113569474Y-102989610D01*
X113569471Y-102989612D01*
X113399100Y-103117530D01*
X113394965Y-103120635D01*
X113391393Y-103124373D01*
X113313898Y-103205466D01*
X113252374Y-103240895D01*
X113181462Y-103237438D01*
X113123676Y-103196192D01*
X113104823Y-103162644D01*
X113063324Y-103051946D01*
X113054786Y-103036351D01*
X112978285Y-102934276D01*
X112965724Y-102921715D01*
X112863649Y-102845214D01*
X112848054Y-102836676D01*
X112727606Y-102791522D01*
X112712351Y-102787895D01*
X112661486Y-102782369D01*
X112654672Y-102782000D01*
X112032115Y-102782000D01*
X112016876Y-102786475D01*
X112015671Y-102787865D01*
X112014000Y-102795548D01*
X112014000Y-104268000D01*
X111993998Y-104336121D01*
X111940342Y-104382614D01*
X111888000Y-104394000D01*
X110420116Y-104394000D01*
X110404877Y-104398475D01*
X110403672Y-104399865D01*
X110402001Y-104407548D01*
X110402001Y-104650500D01*
X110381999Y-104718621D01*
X110328343Y-104765114D01*
X110276001Y-104776500D01*
X108028767Y-104776500D01*
X108017584Y-104775973D01*
X108010091Y-104774298D01*
X108002165Y-104774547D01*
X108002164Y-104774547D01*
X107942014Y-104776438D01*
X107938055Y-104776500D01*
X107910144Y-104776500D01*
X107906210Y-104776997D01*
X107906209Y-104776997D01*
X107906144Y-104777005D01*
X107894307Y-104777938D01*
X107862490Y-104778938D01*
X107858029Y-104779078D01*
X107850110Y-104779327D01*
X107832454Y-104784456D01*
X107830658Y-104784978D01*
X107811306Y-104788986D01*
X107804235Y-104789880D01*
X107791203Y-104791526D01*
X107783834Y-104794443D01*
X107783832Y-104794444D01*
X107750097Y-104807800D01*
X107738869Y-104811645D01*
X107696407Y-104823982D01*
X107689585Y-104828016D01*
X107689579Y-104828019D01*
X107678968Y-104834294D01*
X107661218Y-104842990D01*
X107649756Y-104847528D01*
X107649751Y-104847531D01*
X107642383Y-104850448D01*
X107635968Y-104855109D01*
X107606625Y-104876427D01*
X107596707Y-104882943D01*
X107578019Y-104893995D01*
X107558637Y-104905458D01*
X107544313Y-104919782D01*
X107529281Y-104932621D01*
X107512893Y-104944528D01*
X107497186Y-104963515D01*
X107484712Y-104978593D01*
X107476722Y-104987373D01*
X105184500Y-107279595D01*
X105122188Y-107313621D01*
X105095405Y-107316500D01*
X100456477Y-107316500D01*
X100388356Y-107296498D01*
X100341863Y-107242842D01*
X100331759Y-107172568D01*
X100335917Y-107153879D01*
X100392370Y-106968069D01*
X100421529Y-106746590D01*
X100423156Y-106680000D01*
X100404852Y-106457361D01*
X100350431Y-106240702D01*
X100261354Y-106035840D01*
X100182883Y-105914542D01*
X100142822Y-105852617D01*
X100142820Y-105852614D01*
X100140014Y-105848277D01*
X99989670Y-105683051D01*
X99985619Y-105679852D01*
X99985615Y-105679848D01*
X99818414Y-105547800D01*
X99818410Y-105547798D01*
X99814359Y-105544598D01*
X99772569Y-105521529D01*
X99722598Y-105471097D01*
X99707826Y-105401654D01*
X99732942Y-105335248D01*
X99760294Y-105308641D01*
X99935328Y-105183792D01*
X99943200Y-105177139D01*
X100094052Y-105026812D01*
X100100730Y-105018965D01*
X100225003Y-104846020D01*
X100230313Y-104837183D01*
X100324670Y-104646267D01*
X100328469Y-104636672D01*
X100390377Y-104432910D01*
X100392555Y-104422837D01*
X100393986Y-104411962D01*
X100391775Y-104397778D01*
X100378617Y-104394000D01*
X98932000Y-104394000D01*
X98863879Y-104373998D01*
X98817386Y-104320342D01*
X98806000Y-104268000D01*
X98806000Y-104012000D01*
X98826002Y-103943879D01*
X98879658Y-103897386D01*
X98932000Y-103886000D01*
X100378344Y-103886000D01*
X100391875Y-103882027D01*
X100393180Y-103872947D01*
X100391909Y-103867885D01*
X110402000Y-103867885D01*
X110406475Y-103883124D01*
X110407865Y-103884329D01*
X110415548Y-103886000D01*
X111487885Y-103886000D01*
X111503124Y-103881525D01*
X111504329Y-103880135D01*
X111506000Y-103872452D01*
X111506000Y-102800116D01*
X111501525Y-102784877D01*
X111500135Y-102783672D01*
X111492452Y-102782001D01*
X110865331Y-102782001D01*
X110858510Y-102782371D01*
X110807648Y-102787895D01*
X110792396Y-102791521D01*
X110671946Y-102836676D01*
X110656351Y-102845214D01*
X110554276Y-102921715D01*
X110541715Y-102934276D01*
X110465214Y-103036351D01*
X110456676Y-103051946D01*
X110411522Y-103172394D01*
X110407895Y-103187649D01*
X110402369Y-103238514D01*
X110402000Y-103245328D01*
X110402000Y-103867885D01*
X100391909Y-103867885D01*
X100351214Y-103705875D01*
X100347894Y-103696124D01*
X100262972Y-103500814D01*
X100258105Y-103491739D01*
X100142426Y-103312926D01*
X100136136Y-103304757D01*
X99992806Y-103147240D01*
X99985273Y-103140215D01*
X99818139Y-103008222D01*
X99809556Y-103002520D01*
X99772602Y-102982120D01*
X99722631Y-102931687D01*
X99707859Y-102862245D01*
X99732975Y-102795839D01*
X99760327Y-102769232D01*
X99783797Y-102752491D01*
X99939860Y-102641173D01*
X100098096Y-102483489D01*
X100228453Y-102302077D01*
X100230746Y-102297437D01*
X100232446Y-102294608D01*
X100284674Y-102246518D01*
X100340451Y-102233500D01*
X121020200Y-102233500D01*
X121088321Y-102253502D01*
G37*
%TD.AperFunction*%
%TA.AperFunction,Conductor*%
G36*
X92252730Y-83342282D02*
G01*
X92253248Y-83341118D01*
X92342156Y-83380702D01*
X92427712Y-83418794D01*
X92521112Y-83438647D01*
X92608056Y-83457128D01*
X92608061Y-83457128D01*
X92614513Y-83458500D01*
X92670406Y-83458500D01*
X92738527Y-83478502D01*
X92759501Y-83495405D01*
X93476343Y-84212247D01*
X93483887Y-84220537D01*
X93488000Y-84227018D01*
X93493777Y-84232443D01*
X93537667Y-84273658D01*
X93540494Y-84276398D01*
X93560230Y-84296134D01*
X93563420Y-84298608D01*
X93572447Y-84306318D01*
X93604679Y-84336586D01*
X93615858Y-84342732D01*
X93622432Y-84346346D01*
X93638956Y-84357199D01*
X93654959Y-84369613D01*
X93695539Y-84387174D01*
X93706173Y-84392383D01*
X93744940Y-84413695D01*
X93752617Y-84415666D01*
X93752622Y-84415668D01*
X93764558Y-84418732D01*
X93783266Y-84425137D01*
X93801855Y-84433181D01*
X93809683Y-84434421D01*
X93809690Y-84434423D01*
X93845524Y-84440099D01*
X93857144Y-84442505D01*
X93892289Y-84451528D01*
X93899970Y-84453500D01*
X93920224Y-84453500D01*
X93939934Y-84455051D01*
X93959943Y-84458220D01*
X93967835Y-84457474D01*
X94003961Y-84454059D01*
X94015819Y-84453500D01*
X95244274Y-84453500D01*
X95312395Y-84473502D01*
X95351707Y-84513665D01*
X95419987Y-84625088D01*
X95566250Y-84793938D01*
X95738126Y-84936632D01*
X95808595Y-84977811D01*
X95811445Y-84979476D01*
X95860169Y-85031114D01*
X95873240Y-85100897D01*
X95846509Y-85166669D01*
X95806055Y-85200027D01*
X95793607Y-85206507D01*
X95789474Y-85209610D01*
X95789471Y-85209612D01*
X95765247Y-85227800D01*
X95614965Y-85340635D01*
X95460629Y-85502138D01*
X95334743Y-85686680D01*
X95240688Y-85889305D01*
X95180989Y-86104570D01*
X95157251Y-86326695D01*
X95157548Y-86331848D01*
X95157548Y-86331851D01*
X95166255Y-86482860D01*
X95170110Y-86549715D01*
X95171247Y-86554761D01*
X95171248Y-86554767D01*
X95190235Y-86639017D01*
X95219222Y-86767639D01*
X95303266Y-86974616D01*
X95337982Y-87031267D01*
X95413110Y-87153865D01*
X95419987Y-87165088D01*
X95566250Y-87333938D01*
X95738126Y-87476632D01*
X95808595Y-87517811D01*
X95811445Y-87519476D01*
X95860169Y-87571114D01*
X95873240Y-87640897D01*
X95846509Y-87706669D01*
X95806055Y-87740027D01*
X95793607Y-87746507D01*
X95789474Y-87749610D01*
X95789471Y-87749612D01*
X95619100Y-87877530D01*
X95614965Y-87880635D01*
X95460629Y-88042138D01*
X95334743Y-88226680D01*
X95240688Y-88429305D01*
X95180989Y-88644570D01*
X95157251Y-88866695D01*
X95157548Y-88871848D01*
X95157548Y-88871851D01*
X95162877Y-88964276D01*
X95170110Y-89089715D01*
X95171247Y-89094761D01*
X95171248Y-89094767D01*
X95189753Y-89176876D01*
X95219222Y-89307639D01*
X95274900Y-89444758D01*
X95297167Y-89499595D01*
X95303266Y-89514616D01*
X95353863Y-89597183D01*
X95417291Y-89700688D01*
X95419987Y-89705088D01*
X95566250Y-89873938D01*
X95738126Y-90016632D01*
X95808595Y-90057811D01*
X95811445Y-90059476D01*
X95860169Y-90111114D01*
X95873240Y-90180897D01*
X95846509Y-90246669D01*
X95806055Y-90280027D01*
X95793607Y-90286507D01*
X95789474Y-90289610D01*
X95789471Y-90289612D01*
X95637123Y-90403998D01*
X95614965Y-90420635D01*
X95609001Y-90426876D01*
X95473667Y-90568495D01*
X95460629Y-90582138D01*
X95457720Y-90586403D01*
X95457714Y-90586411D01*
X95399458Y-90671811D01*
X95334743Y-90766680D01*
X95240688Y-90969305D01*
X95180989Y-91184570D01*
X95157251Y-91406695D01*
X95157548Y-91411848D01*
X95157548Y-91411851D01*
X95159171Y-91440000D01*
X95170110Y-91629715D01*
X95171247Y-91634761D01*
X95171248Y-91634767D01*
X95190271Y-91719175D01*
X95219222Y-91847639D01*
X95303266Y-92054616D01*
X95323200Y-92087145D01*
X95405475Y-92221406D01*
X95419987Y-92245088D01*
X95566250Y-92413938D01*
X95738126Y-92556632D01*
X95811445Y-92599476D01*
X95811955Y-92599774D01*
X95860679Y-92651412D01*
X95873750Y-92721195D01*
X95847019Y-92786967D01*
X95806562Y-92820327D01*
X95798457Y-92824546D01*
X95789738Y-92830036D01*
X95619433Y-92957905D01*
X95611726Y-92964748D01*
X95464590Y-93118717D01*
X95458104Y-93126727D01*
X95338098Y-93302649D01*
X95333000Y-93311623D01*
X95243338Y-93504783D01*
X95239775Y-93514470D01*
X95184389Y-93714183D01*
X95185912Y-93722607D01*
X95198292Y-93726000D01*
X96648000Y-93726000D01*
X96716121Y-93746002D01*
X96762614Y-93799658D01*
X96774000Y-93852000D01*
X96774000Y-94108000D01*
X96753998Y-94176121D01*
X96700342Y-94222614D01*
X96648000Y-94234000D01*
X95203225Y-94234000D01*
X95189694Y-94237973D01*
X95188257Y-94247966D01*
X95218565Y-94382446D01*
X95221645Y-94392275D01*
X95301770Y-94589603D01*
X95306413Y-94598794D01*
X95417694Y-94780388D01*
X95423777Y-94788699D01*
X95563213Y-94949667D01*
X95570580Y-94956883D01*
X95734434Y-95092916D01*
X95742881Y-95098831D01*
X95811969Y-95139203D01*
X95860693Y-95190842D01*
X95873764Y-95260625D01*
X95847033Y-95326396D01*
X95806584Y-95359752D01*
X95793607Y-95366507D01*
X95789474Y-95369610D01*
X95789471Y-95369612D01*
X95619100Y-95497530D01*
X95614965Y-95500635D01*
X95460629Y-95662138D01*
X95334743Y-95846680D01*
X95240688Y-96049305D01*
X95180989Y-96264570D01*
X95157251Y-96486695D01*
X95157548Y-96491848D01*
X95157548Y-96491851D01*
X95159941Y-96533357D01*
X95170110Y-96709715D01*
X95171247Y-96714761D01*
X95171248Y-96714767D01*
X95195304Y-96821508D01*
X95219222Y-96927639D01*
X95230112Y-96954457D01*
X95297167Y-97119595D01*
X95303266Y-97134616D01*
X95341070Y-97196307D01*
X95417291Y-97320688D01*
X95419987Y-97325088D01*
X95566250Y-97493938D01*
X95738126Y-97636632D01*
X95808595Y-97677811D01*
X95811445Y-97679476D01*
X95860169Y-97731114D01*
X95873240Y-97800897D01*
X95846509Y-97866669D01*
X95806055Y-97900027D01*
X95793607Y-97906507D01*
X95789474Y-97909610D01*
X95789471Y-97909612D01*
X95765247Y-97927800D01*
X95614965Y-98040635D01*
X95611393Y-98044373D01*
X95473667Y-98188495D01*
X95460629Y-98202138D01*
X95457715Y-98206410D01*
X95457714Y-98206411D01*
X95410027Y-98276318D01*
X95334743Y-98386680D01*
X95240688Y-98589305D01*
X95180989Y-98804570D01*
X95157251Y-99026695D01*
X95170110Y-99249715D01*
X95171247Y-99254761D01*
X95171248Y-99254767D01*
X95184597Y-99314000D01*
X95219222Y-99467639D01*
X95280673Y-99618976D01*
X95297167Y-99659595D01*
X95303266Y-99674616D01*
X95419987Y-99865088D01*
X95566250Y-100033938D01*
X95738126Y-100176632D01*
X95808595Y-100217811D01*
X95811445Y-100219476D01*
X95860169Y-100271114D01*
X95873240Y-100340897D01*
X95846509Y-100406669D01*
X95806055Y-100440027D01*
X95793607Y-100446507D01*
X95789474Y-100449610D01*
X95789471Y-100449612D01*
X95619100Y-100577530D01*
X95614965Y-100580635D01*
X95460629Y-100742138D01*
X95334743Y-100926680D01*
X95296011Y-101010121D01*
X95259471Y-101088841D01*
X95240688Y-101129305D01*
X95180989Y-101344570D01*
X95157251Y-101566695D01*
X95170110Y-101789715D01*
X95171247Y-101794761D01*
X95171248Y-101794767D01*
X95203453Y-101937668D01*
X95198917Y-102008520D01*
X95169631Y-102054464D01*
X92317747Y-104906348D01*
X92309461Y-104913888D01*
X92302982Y-104918000D01*
X92297557Y-104923777D01*
X92291351Y-104930386D01*
X92230138Y-104966352D01*
X92159198Y-104963515D01*
X92101054Y-104922775D01*
X92074165Y-104857067D01*
X92073500Y-104844134D01*
X92073500Y-83454782D01*
X92093502Y-83386661D01*
X92147158Y-83340168D01*
X92217432Y-83330064D01*
X92252730Y-83342282D01*
G37*
%TD.AperFunction*%
%TA.AperFunction,Conductor*%
G36*
X115323527Y-97173502D02*
G01*
X115344501Y-97190405D01*
X116336343Y-98182247D01*
X116343887Y-98190537D01*
X116348000Y-98197018D01*
X116353777Y-98202443D01*
X116397667Y-98243658D01*
X116400509Y-98246413D01*
X116420230Y-98266134D01*
X116423425Y-98268612D01*
X116432447Y-98276318D01*
X116464679Y-98306586D01*
X116471628Y-98310406D01*
X116482432Y-98316346D01*
X116498956Y-98327199D01*
X116514959Y-98339613D01*
X116555543Y-98357176D01*
X116566173Y-98362383D01*
X116604940Y-98383695D01*
X116612617Y-98385666D01*
X116612622Y-98385668D01*
X116624558Y-98388732D01*
X116643266Y-98395137D01*
X116661855Y-98403181D01*
X116669683Y-98404421D01*
X116669690Y-98404423D01*
X116705524Y-98410099D01*
X116717144Y-98412505D01*
X116749508Y-98420814D01*
X116759970Y-98423500D01*
X116780224Y-98423500D01*
X116799934Y-98425051D01*
X116819943Y-98428220D01*
X116827835Y-98427474D01*
X116863961Y-98424059D01*
X116875819Y-98423500D01*
X118104274Y-98423500D01*
X118172395Y-98443502D01*
X118211707Y-98483665D01*
X118279987Y-98595088D01*
X118426250Y-98763938D01*
X118598126Y-98906632D01*
X118729178Y-98983213D01*
X118777901Y-99034849D01*
X118790972Y-99104632D01*
X118764241Y-99170404D01*
X118754702Y-99181094D01*
X118276201Y-99659595D01*
X118213889Y-99693621D01*
X118187106Y-99696500D01*
X104848200Y-99696500D01*
X104780079Y-99676498D01*
X104760853Y-99660157D01*
X104760580Y-99660460D01*
X104755668Y-99656037D01*
X104751253Y-99651134D01*
X104596752Y-99538882D01*
X104590724Y-99536198D01*
X104590722Y-99536197D01*
X104428319Y-99463891D01*
X104428318Y-99463891D01*
X104422288Y-99461206D01*
X104328887Y-99441353D01*
X104241944Y-99422872D01*
X104241939Y-99422872D01*
X104235487Y-99421500D01*
X104044513Y-99421500D01*
X104038061Y-99422872D01*
X104038056Y-99422872D01*
X103951113Y-99441353D01*
X103857712Y-99461206D01*
X103851682Y-99463891D01*
X103851681Y-99463891D01*
X103689278Y-99536197D01*
X103689276Y-99536198D01*
X103683248Y-99538882D01*
X103528747Y-99651134D01*
X103524326Y-99656044D01*
X103524325Y-99656045D01*
X103428086Y-99762930D01*
X103400960Y-99793056D01*
X103305473Y-99958444D01*
X103246458Y-100140072D01*
X103226496Y-100330000D01*
X103227186Y-100336565D01*
X103240381Y-100462104D01*
X103246458Y-100519928D01*
X103305473Y-100701556D01*
X103308776Y-100707278D01*
X103308777Y-100707279D01*
X103349319Y-100777500D01*
X103366057Y-100846496D01*
X103342836Y-100913587D01*
X103287029Y-100957474D01*
X103240200Y-100966500D01*
X100336805Y-100966500D01*
X100268684Y-100946498D01*
X100231013Y-100908940D01*
X100142822Y-100772617D01*
X100142820Y-100772614D01*
X100140014Y-100768277D01*
X99989670Y-100603051D01*
X99985619Y-100599852D01*
X99985615Y-100599848D01*
X99818414Y-100467800D01*
X99818410Y-100467798D01*
X99814359Y-100464598D01*
X99772569Y-100441529D01*
X99722598Y-100391097D01*
X99707826Y-100321654D01*
X99732942Y-100255248D01*
X99760294Y-100228641D01*
X99935328Y-100103792D01*
X99943200Y-100097139D01*
X100094052Y-99946812D01*
X100100730Y-99938965D01*
X100225003Y-99766020D01*
X100230313Y-99757183D01*
X100324670Y-99566267D01*
X100328469Y-99556672D01*
X100390377Y-99352910D01*
X100392555Y-99342837D01*
X100393986Y-99331962D01*
X100391775Y-99317778D01*
X100378617Y-99314000D01*
X98932000Y-99314000D01*
X98863879Y-99293998D01*
X98817386Y-99240342D01*
X98806000Y-99188000D01*
X98806000Y-98932000D01*
X98826002Y-98863879D01*
X98879658Y-98817386D01*
X98932000Y-98806000D01*
X100378344Y-98806000D01*
X100391875Y-98802027D01*
X100393180Y-98792947D01*
X100351214Y-98625875D01*
X100347894Y-98616124D01*
X100262972Y-98420814D01*
X100258105Y-98411739D01*
X100142426Y-98232926D01*
X100136136Y-98224757D01*
X99992806Y-98067240D01*
X99985273Y-98060215D01*
X99818139Y-97928222D01*
X99809556Y-97922520D01*
X99772602Y-97902120D01*
X99722631Y-97851687D01*
X99707859Y-97782245D01*
X99732975Y-97715839D01*
X99760327Y-97689232D01*
X99783797Y-97672491D01*
X99939860Y-97561173D01*
X100098096Y-97403489D01*
X100157594Y-97320689D01*
X100225435Y-97226277D01*
X100228453Y-97222077D01*
X100230746Y-97217437D01*
X100232446Y-97214608D01*
X100284674Y-97166518D01*
X100340451Y-97153500D01*
X115255406Y-97153500D01*
X115323527Y-97173502D01*
G37*
%TD.AperFunction*%
%TA.AperFunction,Conductor*%
G36*
X96716121Y-73426002D02*
G01*
X96762614Y-73479658D01*
X96774000Y-73532000D01*
X96774000Y-73788000D01*
X96753998Y-73856121D01*
X96700342Y-73902614D01*
X96648000Y-73914000D01*
X95203225Y-73914000D01*
X95189694Y-73917973D01*
X95188257Y-73927966D01*
X95218565Y-74062446D01*
X95221645Y-74072275D01*
X95301770Y-74269603D01*
X95306413Y-74278794D01*
X95417694Y-74460388D01*
X95423777Y-74468699D01*
X95563213Y-74629667D01*
X95570580Y-74636883D01*
X95734434Y-74772916D01*
X95742881Y-74778831D01*
X95811969Y-74819203D01*
X95860693Y-74870842D01*
X95873764Y-74940625D01*
X95847033Y-75006396D01*
X95806584Y-75039752D01*
X95793607Y-75046507D01*
X95789474Y-75049610D01*
X95789471Y-75049612D01*
X95765247Y-75067800D01*
X95614965Y-75180635D01*
X95460629Y-75342138D01*
X95334743Y-75526680D01*
X95240688Y-75729305D01*
X95180989Y-75944570D01*
X95157251Y-76166695D01*
X95157548Y-76171848D01*
X95157548Y-76171851D01*
X95163011Y-76266590D01*
X95170110Y-76389715D01*
X95171247Y-76394761D01*
X95171248Y-76394767D01*
X95203453Y-76537668D01*
X95198917Y-76608520D01*
X95169631Y-76654464D01*
X91047747Y-80776348D01*
X91039461Y-80783888D01*
X91032982Y-80788000D01*
X91027557Y-80793777D01*
X91021351Y-80800386D01*
X90960138Y-80836352D01*
X90889198Y-80833515D01*
X90831054Y-80792775D01*
X90804165Y-80727067D01*
X90803500Y-80714134D01*
X90803500Y-77784594D01*
X90823502Y-77716473D01*
X90840405Y-77695499D01*
X95093000Y-73442905D01*
X95155312Y-73408879D01*
X95182095Y-73406000D01*
X96648000Y-73406000D01*
X96716121Y-73426002D01*
G37*
%TD.AperFunction*%
%TA.AperFunction,Conductor*%
G36*
X101104526Y-78123502D02*
G01*
X101151019Y-78177158D01*
X101161123Y-78247432D01*
X101131629Y-78312012D01*
X101125500Y-78318595D01*
X100486653Y-78957442D01*
X100424341Y-78991468D01*
X100396351Y-78990547D01*
X100396351Y-78994000D01*
X98932000Y-78994000D01*
X98863879Y-78973998D01*
X98817386Y-78920342D01*
X98806000Y-78868000D01*
X98806000Y-78612000D01*
X98826002Y-78543879D01*
X98879658Y-78497386D01*
X98932000Y-78486000D01*
X100378344Y-78486000D01*
X100391875Y-78482027D01*
X100393180Y-78472947D01*
X100351214Y-78305875D01*
X100347894Y-78296123D01*
X100340772Y-78279744D01*
X100331951Y-78209297D01*
X100362617Y-78145265D01*
X100423033Y-78107977D01*
X100456321Y-78103500D01*
X101036405Y-78103500D01*
X101104526Y-78123502D01*
G37*
%TD.AperFunction*%
%TD*%
M02*
