%TF.GenerationSoftware,KiCad,Pcbnew,6.0.9-8da3e8f707~117~ubuntu22.04.1*%
%TF.CreationDate,2022-12-18T22:44:04+01:00*%
%TF.ProjectId,rpi-dev-board,7270692d-6465-4762-9d62-6f6172642e6b,rev?*%
%TF.SameCoordinates,Original*%
%TF.FileFunction,Soldermask,Top*%
%TF.FilePolarity,Negative*%
%FSLAX46Y46*%
G04 Gerber Fmt 4.6, Leading zero omitted, Abs format (unit mm)*
G04 Created by KiCad (PCBNEW 6.0.9-8da3e8f707~117~ubuntu22.04.1) date 2022-12-18 22:44:04*
%MOMM*%
%LPD*%
G01*
G04 APERTURE LIST*
%ADD10C,0.000000*%
%ADD11C,0.150000*%
%ADD12C,0.100000*%
%ADD13R,1.700000X1.700000*%
%ADD14O,1.700000X1.700000*%
G04 APERTURE END LIST*
D10*
G36*
X127932058Y-65222678D02*
G01*
X127732070Y-65222678D01*
X127732070Y-65022690D01*
X127932058Y-65022690D01*
X127932058Y-65222678D01*
G37*
G36*
X127388837Y-62307817D02*
G01*
X127188745Y-62307817D01*
X127188745Y-62107830D01*
X127388837Y-62107830D01*
X127388837Y-62307817D01*
G37*
D11*
X135890000Y-72390000D02*
X137160000Y-73660000D01*
D10*
G36*
X126436129Y-67941893D02*
G01*
X126236141Y-67941893D01*
X126236141Y-67741905D01*
X126436129Y-67741905D01*
X126436129Y-67941893D01*
G37*
D11*
X137160000Y-73660000D02*
X137160000Y-92710000D01*
D10*
G36*
X127038781Y-61575254D02*
G01*
X127038781Y-61775241D01*
X126838793Y-61775241D01*
X126838793Y-61575253D01*
X127038781Y-61575254D01*
G37*
D11*
X137160000Y-93980000D02*
X135890000Y-95250000D01*
D10*
G36*
X127845243Y-63301659D02*
G01*
X127645255Y-63301659D01*
X127645255Y-63101671D01*
X127845243Y-63101671D01*
X127845243Y-63301659D01*
G37*
G36*
X126997542Y-67322603D02*
G01*
X126797554Y-67322603D01*
X126797554Y-67122615D01*
X126997542Y-67122614D01*
X126997542Y-67322603D01*
G37*
G36*
X127684424Y-64344695D02*
G01*
X127484436Y-64344695D01*
X127484436Y-64144707D01*
X127684424Y-64144707D01*
X127684424Y-64344695D01*
G37*
D11*
X137160000Y-92710000D02*
X137160000Y-93980000D01*
D10*
G36*
X126491735Y-61127630D02*
G01*
X126291747Y-61127630D01*
X126291747Y-60927642D01*
X126491735Y-60927642D01*
X126491735Y-61127630D01*
G37*
G36*
X123154367Y-60848784D02*
G01*
X123328516Y-60852634D01*
X123497901Y-60864185D01*
X123662523Y-60883436D01*
X123822382Y-60910387D01*
X123977479Y-60945039D01*
X124127813Y-60987390D01*
X124273384Y-61037440D01*
X124414193Y-61095191D01*
X124550239Y-61160640D01*
X124681523Y-61233789D01*
X124808044Y-61314637D01*
X124929803Y-61403184D01*
X125046800Y-61499429D01*
X125159035Y-61603374D01*
X125266508Y-61715016D01*
X125369219Y-61834357D01*
X125466413Y-61960444D01*
X125557337Y-62092325D01*
X125641990Y-62230000D01*
X125720373Y-62373469D01*
X125792485Y-62522733D01*
X125858326Y-62677791D01*
X125917897Y-62838643D01*
X125971197Y-63005289D01*
X126018227Y-63177730D01*
X126058986Y-63355965D01*
X126093474Y-63539994D01*
X126121692Y-63729818D01*
X126143639Y-63925437D01*
X126159316Y-64126850D01*
X126168722Y-64334058D01*
X126171857Y-64547060D01*
X126168682Y-64760102D01*
X126159158Y-64967428D01*
X126143285Y-65169038D01*
X126121062Y-65364932D01*
X126092489Y-65555111D01*
X126057567Y-65739575D01*
X126016295Y-65918323D01*
X125968673Y-66091356D01*
X125914701Y-66258674D01*
X125854379Y-66420277D01*
X125787707Y-66576165D01*
X125714684Y-66726339D01*
X125635312Y-66870799D01*
X125549588Y-67009544D01*
X125457514Y-67142575D01*
X125359090Y-67269892D01*
X125282967Y-67359614D01*
X125204235Y-67445051D01*
X125122896Y-67526203D01*
X125038949Y-67603070D01*
X124952395Y-67675653D01*
X124863235Y-67743952D01*
X124771470Y-67807969D01*
X124677100Y-67867703D01*
X124580125Y-67923156D01*
X124480547Y-67974328D01*
X124378366Y-68021219D01*
X124273582Y-68063831D01*
X124166196Y-68102163D01*
X124056209Y-68136216D01*
X123943621Y-68165991D01*
X123828434Y-68191489D01*
X123972458Y-68175316D01*
X124112874Y-68153210D01*
X124249681Y-68125171D01*
X124382880Y-68091198D01*
X124500221Y-68055065D01*
X125167783Y-68055065D01*
X125367771Y-68055065D01*
X125367771Y-67855077D01*
X125167783Y-67855077D01*
X125167783Y-68055065D01*
X124500221Y-68055065D01*
X124512470Y-68051293D01*
X124638451Y-68005454D01*
X124760823Y-67953681D01*
X124879586Y-67895975D01*
X124994739Y-67832335D01*
X125106283Y-67762761D01*
X125214217Y-67687253D01*
X125318542Y-67605810D01*
X125419257Y-67518434D01*
X125516362Y-67425122D01*
X125609856Y-67325876D01*
X125682341Y-67241057D01*
X126008351Y-67241057D01*
X126208339Y-67241057D01*
X126208339Y-67041069D01*
X126008351Y-67041069D01*
X126008351Y-67241057D01*
X125682341Y-67241057D01*
X125699741Y-67220696D01*
X125798167Y-67093379D01*
X125885592Y-66967069D01*
X126542479Y-66967069D01*
X126742467Y-66967069D01*
X126742467Y-66767081D01*
X126542479Y-66767081D01*
X126542479Y-66967069D01*
X125885592Y-66967069D01*
X125890244Y-66960349D01*
X125975972Y-66821603D01*
X126055351Y-66677144D01*
X126128382Y-66526970D01*
X126195063Y-66371081D01*
X126243080Y-66242462D01*
X126387760Y-66242462D01*
X126587748Y-66242462D01*
X126587748Y-66042475D01*
X126387760Y-66042475D01*
X126387760Y-66242462D01*
X126243080Y-66242462D01*
X126255394Y-66209477D01*
X126309376Y-66042159D01*
X126357008Y-65869125D01*
X126365356Y-65832978D01*
X126877549Y-65832978D01*
X127077536Y-65832978D01*
X127077536Y-65632990D01*
X126877549Y-65632990D01*
X126877549Y-65832978D01*
X126365356Y-65832978D01*
X126398289Y-65690377D01*
X126433220Y-65505913D01*
X126455267Y-65359207D01*
X127045290Y-65359207D01*
X127245278Y-65359207D01*
X127245278Y-65159220D01*
X127045290Y-65159220D01*
X127045290Y-65359207D01*
X126455267Y-65359207D01*
X126461800Y-65315734D01*
X126484030Y-65119840D01*
X126499909Y-64918230D01*
X126509436Y-64710905D01*
X126509811Y-64685759D01*
X126657407Y-64685759D01*
X126857395Y-64685759D01*
X126857395Y-64485771D01*
X126657407Y-64485771D01*
X126657407Y-64685759D01*
X126509811Y-64685759D01*
X126512612Y-64497864D01*
X126509639Y-64295912D01*
X127031545Y-64295912D01*
X127231533Y-64295912D01*
X127231533Y-64095925D01*
X127031545Y-64095925D01*
X127031545Y-64295912D01*
X126509639Y-64295912D01*
X126509476Y-64284862D01*
X126500070Y-64077655D01*
X126492129Y-63975623D01*
X126654927Y-63975623D01*
X126854915Y-63975623D01*
X126854915Y-63775635D01*
X126654927Y-63775635D01*
X126654927Y-63975623D01*
X126492129Y-63975623D01*
X126484394Y-63876242D01*
X126462447Y-63680624D01*
X126434229Y-63490800D01*
X126408196Y-63351888D01*
X126908039Y-63351888D01*
X126908040Y-63551876D01*
X127108026Y-63551876D01*
X127108026Y-63351888D01*
X126908039Y-63351888D01*
X126408196Y-63351888D01*
X126399740Y-63306770D01*
X126358981Y-63128535D01*
X126319521Y-62983849D01*
X126486772Y-62983849D01*
X126686864Y-62983849D01*
X126686864Y-62783861D01*
X126486772Y-62783861D01*
X126486772Y-62983849D01*
X126319521Y-62983849D01*
X126311952Y-62956094D01*
X126258651Y-62789447D01*
X126199080Y-62628595D01*
X126133239Y-62473537D01*
X126061127Y-62324273D01*
X126012498Y-62235263D01*
X126274900Y-62235263D01*
X126474887Y-62235263D01*
X126474887Y-62035275D01*
X126274900Y-62035275D01*
X126274900Y-62235263D01*
X126012498Y-62235263D01*
X125982744Y-62180803D01*
X125898091Y-62043128D01*
X125807168Y-61911248D01*
X125709973Y-61785161D01*
X125695298Y-61768109D01*
X126019928Y-61768109D01*
X126219916Y-61768109D01*
X126219916Y-61568121D01*
X126019928Y-61568121D01*
X126019928Y-61768109D01*
X125695298Y-61768109D01*
X125607262Y-61665821D01*
X125499786Y-61554179D01*
X125387546Y-61450235D01*
X125270542Y-61353989D01*
X125148775Y-61265443D01*
X125089507Y-61227573D01*
X125118175Y-61227573D01*
X125318163Y-61227573D01*
X125318163Y-61027585D01*
X125118175Y-61027585D01*
X125118175Y-61227573D01*
X125089507Y-61227573D01*
X125022245Y-61184595D01*
X124890951Y-61111446D01*
X124754895Y-61045996D01*
X124614077Y-60988246D01*
X124468496Y-60938195D01*
X124318153Y-60895843D01*
X124163048Y-60861192D01*
X124003182Y-60834241D01*
X123838555Y-60814989D01*
X123669167Y-60803439D01*
X123495018Y-60799588D01*
X124391088Y-60799588D01*
X124498331Y-60801036D01*
X124603784Y-60805378D01*
X124707448Y-60812615D01*
X124809321Y-60822744D01*
X124909406Y-60835766D01*
X125007702Y-60851680D01*
X125104210Y-60870484D01*
X125198930Y-60892179D01*
X125291864Y-60916764D01*
X125383010Y-60944237D01*
X125472370Y-60974597D01*
X125559944Y-61007846D01*
X125645733Y-61043980D01*
X125729736Y-61083000D01*
X125811956Y-61124905D01*
X125892391Y-61169695D01*
X125783251Y-61169695D01*
X125783251Y-61369683D01*
X125983239Y-61369683D01*
X125983239Y-61224782D01*
X126046103Y-61266370D01*
X126107756Y-61309914D01*
X126168202Y-61355410D01*
X126227444Y-61402851D01*
X126285487Y-61452231D01*
X126342335Y-61503544D01*
X126397991Y-61556783D01*
X126452460Y-61611942D01*
X126599842Y-61611942D01*
X126599842Y-61777927D01*
X126605939Y-61785161D01*
X126645990Y-61835458D01*
X126685001Y-61886715D01*
X126722977Y-61938927D01*
X126759922Y-61992090D01*
X126795842Y-62046201D01*
X126830742Y-62101255D01*
X126864625Y-62157249D01*
X126897498Y-62214179D01*
X126705056Y-62214179D01*
X126705056Y-62414168D01*
X126905043Y-62414168D01*
X126905043Y-62227616D01*
X126940383Y-62292724D01*
X126974447Y-62359014D01*
X127007231Y-62426488D01*
X127038732Y-62495148D01*
X127068948Y-62564996D01*
X127097875Y-62636034D01*
X127125510Y-62708264D01*
X127151850Y-62781690D01*
X127012531Y-62781690D01*
X127012531Y-62981677D01*
X127212519Y-62981677D01*
X127212519Y-62972376D01*
X127232154Y-63042053D01*
X127250740Y-63112700D01*
X127268281Y-63184313D01*
X127284781Y-63256888D01*
X127300246Y-63330421D01*
X127314679Y-63404909D01*
X127328085Y-63480347D01*
X127340468Y-63556732D01*
X127428939Y-63556732D01*
X127428939Y-63756722D01*
X127367546Y-63756722D01*
X127377133Y-63845247D01*
X127385453Y-63934943D01*
X127392504Y-64025813D01*
X127398280Y-64117859D01*
X127402780Y-64211085D01*
X127405998Y-64305493D01*
X127407932Y-64401085D01*
X127408577Y-64497866D01*
X127408329Y-64556126D01*
X127407597Y-64613943D01*
X127406400Y-64671340D01*
X127404753Y-64728342D01*
X127250138Y-64728342D01*
X127250138Y-64928330D01*
X127395143Y-64928330D01*
X127382199Y-65095251D01*
X127364900Y-65258251D01*
X127343249Y-65417333D01*
X127317249Y-65572501D01*
X127286904Y-65723758D01*
X127252218Y-65871107D01*
X127213193Y-66014551D01*
X127169834Y-66154094D01*
X127262542Y-66154094D01*
X127262542Y-66354082D01*
X127097383Y-66354082D01*
X127084191Y-66387331D01*
X127077504Y-66403877D01*
X127070719Y-66420331D01*
X126910935Y-66420331D01*
X126910935Y-66620319D01*
X126979869Y-66620319D01*
X126938516Y-66701356D01*
X126895270Y-66780688D01*
X126850127Y-66858311D01*
X126803083Y-66934224D01*
X126754133Y-67008421D01*
X126703274Y-67080901D01*
X126650501Y-67151660D01*
X126595810Y-67220696D01*
X126583665Y-67235497D01*
X126571451Y-67250169D01*
X126559170Y-67264730D01*
X126546820Y-67279193D01*
X126407708Y-67279193D01*
X126407708Y-67429572D01*
X126365103Y-67471477D01*
X126321795Y-67512222D01*
X126277783Y-67551806D01*
X126233065Y-67590229D01*
X126187640Y-67627490D01*
X126141507Y-67663588D01*
X126094664Y-67698523D01*
X126047110Y-67732292D01*
X126047110Y-67598348D01*
X125847123Y-67598348D01*
X125847123Y-67798335D01*
X125946445Y-67798335D01*
X125926602Y-67810578D01*
X125906641Y-67822633D01*
X125886565Y-67834500D01*
X125866375Y-67846181D01*
X125825655Y-67868983D01*
X125784491Y-67891043D01*
X125784491Y-68085967D01*
X125584503Y-68085967D01*
X125584503Y-67984680D01*
X125517786Y-68011475D01*
X125450023Y-68036549D01*
X125381213Y-68059900D01*
X125311356Y-68081528D01*
X125240450Y-68101431D01*
X125168496Y-68119609D01*
X125095491Y-68136061D01*
X125021437Y-68150785D01*
X124946331Y-68163781D01*
X124870172Y-68175047D01*
X124792962Y-68184583D01*
X124714697Y-68192387D01*
X124635378Y-68198459D01*
X124555004Y-68202797D01*
X124473574Y-68205400D01*
X124391088Y-68206269D01*
X123744615Y-68206269D01*
X123673991Y-68217610D01*
X123602493Y-68227514D01*
X123530108Y-68235958D01*
X123456822Y-68242918D01*
X123382619Y-68248372D01*
X123307486Y-68252297D01*
X123231406Y-68254669D01*
X123154367Y-68255464D01*
X120299348Y-68255464D01*
X120299348Y-67422338D01*
X121244303Y-67422338D01*
X122991793Y-67422338D01*
X123126889Y-67419480D01*
X123257858Y-67410907D01*
X123384700Y-67396619D01*
X123507415Y-67376616D01*
X123626003Y-67350898D01*
X123740463Y-67319464D01*
X123850795Y-67282316D01*
X123957000Y-67239452D01*
X124059078Y-67190874D01*
X124157028Y-67136580D01*
X124250851Y-67076572D01*
X124340546Y-67010849D01*
X124426113Y-66939410D01*
X124507552Y-66862257D01*
X124584864Y-66779389D01*
X124658048Y-66690807D01*
X124726945Y-66596747D01*
X124791398Y-66497449D01*
X124851405Y-66392911D01*
X124906967Y-66283134D01*
X124958084Y-66168118D01*
X125004757Y-66047864D01*
X125046984Y-65922370D01*
X125084766Y-65791638D01*
X125118104Y-65655667D01*
X125146996Y-65514457D01*
X125171443Y-65368009D01*
X125191446Y-65216322D01*
X125207003Y-65059397D01*
X125218115Y-64897233D01*
X125224783Y-64729831D01*
X125227005Y-64557190D01*
X125224783Y-64383319D01*
X125218115Y-64214767D01*
X125207003Y-64051533D01*
X125191446Y-63893617D01*
X125171443Y-63741020D01*
X125146996Y-63593741D01*
X125118104Y-63451780D01*
X125084766Y-63315138D01*
X125046984Y-63183813D01*
X125004757Y-63057806D01*
X124958084Y-62937118D01*
X124906967Y-62821748D01*
X124851405Y-62711695D01*
X124791398Y-62606960D01*
X124726945Y-62507544D01*
X124658048Y-62413445D01*
X124584864Y-62324862D01*
X124507552Y-62241994D01*
X124426113Y-62164841D01*
X124340545Y-62093403D01*
X124250851Y-62027679D01*
X124157028Y-61967671D01*
X124059078Y-61913377D01*
X123957000Y-61864799D01*
X123850795Y-61821935D01*
X123740462Y-61784786D01*
X123626002Y-61753353D01*
X123507414Y-61727634D01*
X123384700Y-61707631D01*
X123257858Y-61693343D01*
X123126889Y-61684770D01*
X122991793Y-61681912D01*
X121244303Y-61681912D01*
X121244303Y-67422338D01*
X120299348Y-67422338D01*
X120299348Y-60848784D01*
X123154367Y-60848784D01*
G37*
G36*
X127572184Y-65921861D02*
G01*
X127372196Y-65921861D01*
X127372196Y-65721874D01*
X127572184Y-65721874D01*
X127572184Y-65921861D01*
G37*
G36*
X128114786Y-64197728D02*
G01*
X127914798Y-64197728D01*
X127914798Y-63997637D01*
X128114786Y-63997637D01*
X128114786Y-64197728D01*
G37*
D11*
X108354761Y-96839404D02*
X108402380Y-96696547D01*
X108402380Y-96458452D01*
X108354761Y-96363214D01*
X108307142Y-96315595D01*
X108211904Y-96267976D01*
X108116666Y-96267976D01*
X108021428Y-96315595D01*
X107973809Y-96363214D01*
X107926190Y-96458452D01*
X107878571Y-96648928D01*
X107830952Y-96744166D01*
X107783333Y-96791785D01*
X107688095Y-96839404D01*
X107592857Y-96839404D01*
X107497619Y-96791785D01*
X107450000Y-96744166D01*
X107402380Y-96648928D01*
X107402380Y-96410833D01*
X107450000Y-96267976D01*
X108307142Y-95267976D02*
X108354761Y-95315595D01*
X108402380Y-95458452D01*
X108402380Y-95553690D01*
X108354761Y-95696547D01*
X108259523Y-95791785D01*
X108164285Y-95839404D01*
X107973809Y-95887023D01*
X107830952Y-95887023D01*
X107640476Y-95839404D01*
X107545238Y-95791785D01*
X107450000Y-95696547D01*
X107402380Y-95553690D01*
X107402380Y-95458452D01*
X107450000Y-95315595D01*
X107497619Y-95267976D01*
X108402380Y-94839404D02*
X107402380Y-94839404D01*
X108402380Y-94267976D02*
X107830952Y-94696547D01*
X107402380Y-94267976D02*
X107973809Y-94839404D01*
X115268571Y-102052380D02*
X115268571Y-101052380D01*
X115601904Y-101766666D01*
X115935238Y-101052380D01*
X115935238Y-102052380D01*
X116601904Y-101052380D02*
X116792380Y-101052380D01*
X116887619Y-101100000D01*
X116982857Y-101195238D01*
X117030476Y-101385714D01*
X117030476Y-101719047D01*
X116982857Y-101909523D01*
X116887619Y-102004761D01*
X116792380Y-102052380D01*
X116601904Y-102052380D01*
X116506666Y-102004761D01*
X116411428Y-101909523D01*
X116363809Y-101719047D01*
X116363809Y-101385714D01*
X116411428Y-101195238D01*
X116506666Y-101100000D01*
X116601904Y-101052380D01*
X117411428Y-102004761D02*
X117554285Y-102052380D01*
X117792380Y-102052380D01*
X117887619Y-102004761D01*
X117935238Y-101957142D01*
X117982857Y-101861904D01*
X117982857Y-101766666D01*
X117935238Y-101671428D01*
X117887619Y-101623809D01*
X117792380Y-101576190D01*
X117601904Y-101528571D01*
X117506666Y-101480952D01*
X117459047Y-101433333D01*
X117411428Y-101338095D01*
X117411428Y-101242857D01*
X117459047Y-101147619D01*
X117506666Y-101100000D01*
X117601904Y-101052380D01*
X117840000Y-101052380D01*
X117982857Y-101100000D01*
X118411428Y-102052380D02*
X118411428Y-101052380D01*
X128045833Y-80732380D02*
X128617261Y-80732380D01*
X128331547Y-81732380D02*
X128331547Y-80732380D01*
X129522023Y-81637142D02*
X129474404Y-81684761D01*
X129331547Y-81732380D01*
X129236309Y-81732380D01*
X129093452Y-81684761D01*
X128998214Y-81589523D01*
X128950595Y-81494285D01*
X128902976Y-81303809D01*
X128902976Y-81160952D01*
X128950595Y-80970476D01*
X128998214Y-80875238D01*
X129093452Y-80780000D01*
X129236309Y-80732380D01*
X129331547Y-80732380D01*
X129474404Y-80780000D01*
X129522023Y-80827619D01*
X129950595Y-81732380D02*
X129950595Y-80732380D01*
X130522023Y-81732380D02*
X130093452Y-81160952D01*
X130522023Y-80732380D02*
X129950595Y-81303809D01*
X128183095Y-62512380D02*
X128183095Y-61512380D01*
X128421190Y-61512380D01*
X128564047Y-61560000D01*
X128659285Y-61655238D01*
X128706904Y-61750476D01*
X128754523Y-61940952D01*
X128754523Y-62083809D01*
X128706904Y-62274285D01*
X128659285Y-62369523D01*
X128564047Y-62464761D01*
X128421190Y-62512380D01*
X128183095Y-62512380D01*
X129183095Y-62512380D02*
X129183095Y-61512380D01*
X129611666Y-62464761D02*
X129754523Y-62512380D01*
X129992619Y-62512380D01*
X130087857Y-62464761D01*
X130135476Y-62417142D01*
X130183095Y-62321904D01*
X130183095Y-62226666D01*
X130135476Y-62131428D01*
X130087857Y-62083809D01*
X129992619Y-62036190D01*
X129802142Y-61988571D01*
X129706904Y-61940952D01*
X129659285Y-61893333D01*
X129611666Y-61798095D01*
X129611666Y-61702857D01*
X129659285Y-61607619D01*
X129706904Y-61560000D01*
X129802142Y-61512380D01*
X130040238Y-61512380D01*
X130183095Y-61560000D01*
X131183095Y-62417142D02*
X131135476Y-62464761D01*
X130992619Y-62512380D01*
X130897380Y-62512380D01*
X130754523Y-62464761D01*
X130659285Y-62369523D01*
X130611666Y-62274285D01*
X130564047Y-62083809D01*
X130564047Y-61940952D01*
X130611666Y-61750476D01*
X130659285Y-61655238D01*
X130754523Y-61560000D01*
X130897380Y-61512380D01*
X130992619Y-61512380D01*
X131135476Y-61560000D01*
X131183095Y-61607619D01*
X132183095Y-62512380D02*
X131849761Y-62036190D01*
X131611666Y-62512380D02*
X131611666Y-61512380D01*
X131992619Y-61512380D01*
X132087857Y-61560000D01*
X132135476Y-61607619D01*
X132183095Y-61702857D01*
X132183095Y-61845714D01*
X132135476Y-61940952D01*
X132087857Y-61988571D01*
X131992619Y-62036190D01*
X131611666Y-62036190D01*
X132611666Y-61988571D02*
X132945000Y-61988571D01*
X133087857Y-62512380D02*
X132611666Y-62512380D01*
X132611666Y-61512380D01*
X133087857Y-61512380D01*
X133373571Y-61512380D02*
X133945000Y-61512380D01*
X133659285Y-62512380D02*
X133659285Y-61512380D01*
X134278333Y-61988571D02*
X134611666Y-61988571D01*
X134754523Y-62512380D02*
X134278333Y-62512380D01*
X134278333Y-61512380D01*
X134754523Y-61512380D01*
X128635476Y-64122380D02*
X128635476Y-63122380D01*
X128873571Y-63122380D01*
X129016428Y-63170000D01*
X129111666Y-63265238D01*
X129159285Y-63360476D01*
X129206904Y-63550952D01*
X129206904Y-63693809D01*
X129159285Y-63884285D01*
X129111666Y-63979523D01*
X129016428Y-64074761D01*
X128873571Y-64122380D01*
X128635476Y-64122380D01*
X129635476Y-63598571D02*
X129968809Y-63598571D01*
X130111666Y-64122380D02*
X129635476Y-64122380D01*
X129635476Y-63122380D01*
X130111666Y-63122380D01*
X130397380Y-63122380D02*
X130730714Y-64122380D01*
X131064047Y-63122380D01*
X131397380Y-64122380D02*
X131397380Y-63122380D01*
X132445000Y-64027142D02*
X132397380Y-64074761D01*
X132254523Y-64122380D01*
X132159285Y-64122380D01*
X132016428Y-64074761D01*
X131921190Y-63979523D01*
X131873571Y-63884285D01*
X131825952Y-63693809D01*
X131825952Y-63550952D01*
X131873571Y-63360476D01*
X131921190Y-63265238D01*
X132016428Y-63170000D01*
X132159285Y-63122380D01*
X132254523Y-63122380D01*
X132397380Y-63170000D01*
X132445000Y-63217619D01*
X132873571Y-63598571D02*
X133206904Y-63598571D01*
X133349761Y-64122380D02*
X132873571Y-64122380D01*
X132873571Y-63122380D01*
X133349761Y-63122380D01*
X133730714Y-64074761D02*
X133873571Y-64122380D01*
X134111666Y-64122380D01*
X134206904Y-64074761D01*
X134254523Y-64027142D01*
X134302142Y-63931904D01*
X134302142Y-63836666D01*
X134254523Y-63741428D01*
X134206904Y-63693809D01*
X134111666Y-63646190D01*
X133921190Y-63598571D01*
X133825952Y-63550952D01*
X133778333Y-63503333D01*
X133730714Y-63408095D01*
X133730714Y-63312857D01*
X133778333Y-63217619D01*
X133825952Y-63170000D01*
X133921190Y-63122380D01*
X134159285Y-63122380D01*
X134302142Y-63170000D01*
X133159523Y-107132380D02*
X132588095Y-107132380D01*
X132873809Y-107132380D02*
X132873809Y-106132380D01*
X132778571Y-106275238D01*
X132683333Y-106370476D01*
X132588095Y-106418095D01*
X134016666Y-106132380D02*
X133826190Y-106132380D01*
X133730952Y-106180000D01*
X133683333Y-106227619D01*
X133588095Y-106370476D01*
X133540476Y-106560952D01*
X133540476Y-106941904D01*
X133588095Y-107037142D01*
X133635714Y-107084761D01*
X133730952Y-107132380D01*
X133921428Y-107132380D01*
X134016666Y-107084761D01*
X134064285Y-107037142D01*
X134111904Y-106941904D01*
X134111904Y-106703809D01*
X134064285Y-106608571D01*
X134016666Y-106560952D01*
X133921428Y-106513333D01*
X133730952Y-106513333D01*
X133635714Y-106560952D01*
X133588095Y-106608571D01*
X133540476Y-106703809D01*
X128508095Y-106132380D02*
X128031904Y-106132380D01*
X127984285Y-106608571D01*
X128031904Y-106560952D01*
X128127142Y-106513333D01*
X128365238Y-106513333D01*
X128460476Y-106560952D01*
X128508095Y-106608571D01*
X128555714Y-106703809D01*
X128555714Y-106941904D01*
X128508095Y-107037142D01*
X128460476Y-107084761D01*
X128365238Y-107132380D01*
X128127142Y-107132380D01*
X128031904Y-107084761D01*
X127984285Y-107037142D01*
X130602663Y-107132380D02*
X130031235Y-107132380D01*
X130316949Y-107132380D02*
X130316949Y-106132380D01*
X130221711Y-106275238D01*
X130126473Y-106370476D01*
X130031235Y-106418095D01*
X130983616Y-106227619D02*
X131031235Y-106180000D01*
X131126473Y-106132380D01*
X131364568Y-106132380D01*
X131459806Y-106180000D01*
X131507425Y-106227619D01*
X131555044Y-106322857D01*
X131555044Y-106418095D01*
X131507425Y-106560952D01*
X130935997Y-107132380D01*
X131555044Y-107132380D01*
X127760119Y-84272380D02*
X127426785Y-83796190D01*
X127188690Y-84272380D02*
X127188690Y-83272380D01*
X127569642Y-83272380D01*
X127664880Y-83320000D01*
X127712500Y-83367619D01*
X127760119Y-83462857D01*
X127760119Y-83605714D01*
X127712500Y-83700952D01*
X127664880Y-83748571D01*
X127569642Y-83796190D01*
X127188690Y-83796190D01*
X128045833Y-83272380D02*
X128617261Y-83272380D01*
X128331547Y-84272380D02*
X128331547Y-83272380D01*
X129522023Y-84177142D02*
X129474404Y-84224761D01*
X129331547Y-84272380D01*
X129236309Y-84272380D01*
X129093452Y-84224761D01*
X128998214Y-84129523D01*
X128950595Y-84034285D01*
X128902976Y-83843809D01*
X128902976Y-83700952D01*
X128950595Y-83510476D01*
X128998214Y-83415238D01*
X129093452Y-83320000D01*
X129236309Y-83272380D01*
X129331547Y-83272380D01*
X129474404Y-83320000D01*
X129522023Y-83367619D01*
X129950595Y-84272380D02*
X129950595Y-83272380D01*
X130522023Y-84272380D02*
X130093452Y-83700952D01*
X130522023Y-83272380D02*
X129950595Y-83843809D01*
X120985595Y-95702380D02*
X120985595Y-94702380D01*
X121461785Y-95702380D02*
X121461785Y-94702380D01*
X121699880Y-94702380D01*
X121842738Y-94750000D01*
X121937976Y-94845238D01*
X121985595Y-94940476D01*
X122033214Y-95130952D01*
X122033214Y-95273809D01*
X121985595Y-95464285D01*
X121937976Y-95559523D01*
X121842738Y-95654761D01*
X121699880Y-95702380D01*
X121461785Y-95702380D01*
X122223690Y-95797619D02*
X122985595Y-95797619D01*
X123176071Y-95654761D02*
X123318928Y-95702380D01*
X123557023Y-95702380D01*
X123652261Y-95654761D01*
X123699880Y-95607142D01*
X123747500Y-95511904D01*
X123747500Y-95416666D01*
X123699880Y-95321428D01*
X123652261Y-95273809D01*
X123557023Y-95226190D01*
X123366547Y-95178571D01*
X123271309Y-95130952D01*
X123223690Y-95083333D01*
X123176071Y-94988095D01*
X123176071Y-94892857D01*
X123223690Y-94797619D01*
X123271309Y-94750000D01*
X123366547Y-94702380D01*
X123604642Y-94702380D01*
X123747500Y-94750000D01*
X124747500Y-95607142D02*
X124699880Y-95654761D01*
X124557023Y-95702380D01*
X124461785Y-95702380D01*
X124318928Y-95654761D01*
X124223690Y-95559523D01*
X124176071Y-95464285D01*
X124128452Y-95273809D01*
X124128452Y-95130952D01*
X124176071Y-94940476D01*
X124223690Y-94845238D01*
X124318928Y-94750000D01*
X124461785Y-94702380D01*
X124557023Y-94702380D01*
X124699880Y-94750000D01*
X124747500Y-94797619D01*
X114133333Y-76652380D02*
X113800000Y-76176190D01*
X113561904Y-76652380D02*
X113561904Y-75652380D01*
X113942857Y-75652380D01*
X114038095Y-75700000D01*
X114085714Y-75747619D01*
X114133333Y-75842857D01*
X114133333Y-75985714D01*
X114085714Y-76080952D01*
X114038095Y-76128571D01*
X113942857Y-76176190D01*
X113561904Y-76176190D01*
X114466666Y-75652380D02*
X115133333Y-76652380D01*
X115133333Y-75652380D02*
X114466666Y-76652380D01*
X136374285Y-71572380D02*
X136374285Y-70572380D01*
X136945714Y-71572380D01*
X136945714Y-70572380D01*
X137993333Y-71477142D02*
X137945714Y-71524761D01*
X137802857Y-71572380D01*
X137707619Y-71572380D01*
X137564761Y-71524761D01*
X137469523Y-71429523D01*
X137421904Y-71334285D01*
X137374285Y-71143809D01*
X137374285Y-71000952D01*
X137421904Y-70810476D01*
X137469523Y-70715238D01*
X137564761Y-70620000D01*
X137707619Y-70572380D01*
X137802857Y-70572380D01*
X137945714Y-70620000D01*
X137993333Y-70667619D01*
X135699523Y-107132380D02*
X135128095Y-107132380D01*
X135413809Y-107132380D02*
X135413809Y-106132380D01*
X135318571Y-106275238D01*
X135223333Y-106370476D01*
X135128095Y-106418095D01*
X136270952Y-106560952D02*
X136175714Y-106513333D01*
X136128095Y-106465714D01*
X136080476Y-106370476D01*
X136080476Y-106322857D01*
X136128095Y-106227619D01*
X136175714Y-106180000D01*
X136270952Y-106132380D01*
X136461428Y-106132380D01*
X136556666Y-106180000D01*
X136604285Y-106227619D01*
X136651904Y-106322857D01*
X136651904Y-106370476D01*
X136604285Y-106465714D01*
X136556666Y-106513333D01*
X136461428Y-106560952D01*
X136270952Y-106560952D01*
X136175714Y-106608571D01*
X136128095Y-106656190D01*
X136080476Y-106751428D01*
X136080476Y-106941904D01*
X136128095Y-107037142D01*
X136175714Y-107084761D01*
X136270952Y-107132380D01*
X136461428Y-107132380D01*
X136556666Y-107084761D01*
X136604285Y-107037142D01*
X136651904Y-106941904D01*
X136651904Y-106751428D01*
X136604285Y-106656190D01*
X136556666Y-106608571D01*
X136461428Y-106560952D01*
X128754285Y-89352380D02*
X128754285Y-88352380D01*
X129325714Y-89352380D01*
X129325714Y-88352380D01*
X130373333Y-89257142D02*
X130325714Y-89304761D01*
X130182857Y-89352380D01*
X130087619Y-89352380D01*
X129944761Y-89304761D01*
X129849523Y-89209523D01*
X129801904Y-89114285D01*
X129754285Y-88923809D01*
X129754285Y-88780952D01*
X129801904Y-88590476D01*
X129849523Y-88495238D01*
X129944761Y-88400000D01*
X130087619Y-88352380D01*
X130182857Y-88352380D01*
X130325714Y-88400000D01*
X130373333Y-88447619D01*
X120937976Y-84224761D02*
X121080833Y-84272380D01*
X121318928Y-84272380D01*
X121414166Y-84224761D01*
X121461785Y-84177142D01*
X121509404Y-84081904D01*
X121509404Y-83986666D01*
X121461785Y-83891428D01*
X121414166Y-83843809D01*
X121318928Y-83796190D01*
X121128452Y-83748571D01*
X121033214Y-83700952D01*
X120985595Y-83653333D01*
X120937976Y-83558095D01*
X120937976Y-83462857D01*
X120985595Y-83367619D01*
X121033214Y-83320000D01*
X121128452Y-83272380D01*
X121366547Y-83272380D01*
X121509404Y-83320000D01*
X121937976Y-84272380D02*
X121937976Y-83272380D01*
X122176071Y-83272380D01*
X122318928Y-83320000D01*
X122414166Y-83415238D01*
X122461785Y-83510476D01*
X122509404Y-83700952D01*
X122509404Y-83843809D01*
X122461785Y-84034285D01*
X122414166Y-84129523D01*
X122318928Y-84224761D01*
X122176071Y-84272380D01*
X121937976Y-84272380D01*
X122890357Y-83986666D02*
X123366547Y-83986666D01*
X122795119Y-84272380D02*
X123128452Y-83272380D01*
X123461785Y-84272380D01*
X136080476Y-114085714D02*
X136080476Y-114752380D01*
X135842380Y-113704761D02*
X135604285Y-114419047D01*
X136223333Y-114419047D01*
X128754285Y-91892380D02*
X128754285Y-90892380D01*
X129325714Y-91892380D01*
X129325714Y-90892380D01*
X130373333Y-91797142D02*
X130325714Y-91844761D01*
X130182857Y-91892380D01*
X130087619Y-91892380D01*
X129944761Y-91844761D01*
X129849523Y-91749523D01*
X129801904Y-91654285D01*
X129754285Y-91463809D01*
X129754285Y-91320952D01*
X129801904Y-91130476D01*
X129849523Y-91035238D01*
X129944761Y-90940000D01*
X130087619Y-90892380D01*
X130182857Y-90892380D01*
X130325714Y-90940000D01*
X130373333Y-90987619D01*
X127998214Y-85812380D02*
X128569642Y-85812380D01*
X128283928Y-86812380D02*
X128283928Y-85812380D01*
X128902976Y-86812380D02*
X128902976Y-85812380D01*
X129141071Y-85812380D01*
X129283928Y-85860000D01*
X129379166Y-85955238D01*
X129426785Y-86050476D01*
X129474404Y-86240952D01*
X129474404Y-86383809D01*
X129426785Y-86574285D01*
X129379166Y-86669523D01*
X129283928Y-86764761D01*
X129141071Y-86812380D01*
X128902976Y-86812380D01*
X130093452Y-85812380D02*
X130283928Y-85812380D01*
X130379166Y-85860000D01*
X130474404Y-85955238D01*
X130522023Y-86145714D01*
X130522023Y-86479047D01*
X130474404Y-86669523D01*
X130379166Y-86764761D01*
X130283928Y-86812380D01*
X130093452Y-86812380D01*
X129998214Y-86764761D01*
X129902976Y-86669523D01*
X129855357Y-86479047D01*
X129855357Y-86145714D01*
X129902976Y-85955238D01*
X129998214Y-85860000D01*
X130093452Y-85812380D01*
X113101428Y-97553690D02*
X113053809Y-97506071D01*
X113006190Y-97410833D01*
X113101428Y-97220357D01*
X113053809Y-97125119D01*
X113006190Y-97077500D01*
X113387142Y-96125119D02*
X113434761Y-96172738D01*
X113482380Y-96315595D01*
X113482380Y-96410833D01*
X113434761Y-96553690D01*
X113339523Y-96648928D01*
X113244285Y-96696547D01*
X113053809Y-96744166D01*
X112910952Y-96744166D01*
X112720476Y-96696547D01*
X112625238Y-96648928D01*
X112530000Y-96553690D01*
X112482380Y-96410833D01*
X112482380Y-96315595D01*
X112530000Y-96172738D01*
X112577619Y-96125119D01*
X112958571Y-95696547D02*
X112958571Y-95363214D01*
X113482380Y-95220357D02*
X113482380Y-95696547D01*
X112482380Y-95696547D01*
X112482380Y-95220357D01*
X113482380Y-94267976D02*
X113482380Y-94839404D01*
X113482380Y-94553690D02*
X112482380Y-94553690D01*
X112625238Y-94648928D01*
X112720476Y-94744166D01*
X112768095Y-94839404D01*
X128754285Y-94432380D02*
X128754285Y-93432380D01*
X129325714Y-94432380D01*
X129325714Y-93432380D01*
X130373333Y-94337142D02*
X130325714Y-94384761D01*
X130182857Y-94432380D01*
X130087619Y-94432380D01*
X129944761Y-94384761D01*
X129849523Y-94289523D01*
X129801904Y-94194285D01*
X129754285Y-94003809D01*
X129754285Y-93860952D01*
X129801904Y-93670476D01*
X129849523Y-93575238D01*
X129944761Y-93480000D01*
X130087619Y-93432380D01*
X130182857Y-93432380D01*
X130325714Y-93480000D01*
X130373333Y-93527619D01*
X127950595Y-78192380D02*
X128522023Y-78192380D01*
X128236309Y-79192380D02*
X128236309Y-78192380D01*
X128855357Y-79192380D02*
X128855357Y-78192380D01*
X129188690Y-78906666D01*
X129522023Y-78192380D01*
X129522023Y-79192380D01*
X129950595Y-79144761D02*
X130093452Y-79192380D01*
X130331547Y-79192380D01*
X130426785Y-79144761D01*
X130474404Y-79097142D01*
X130522023Y-79001904D01*
X130522023Y-78906666D01*
X130474404Y-78811428D01*
X130426785Y-78763809D01*
X130331547Y-78716190D01*
X130141071Y-78668571D01*
X130045833Y-78620952D01*
X129998214Y-78573333D01*
X129950595Y-78478095D01*
X129950595Y-78382857D01*
X129998214Y-78287619D01*
X130045833Y-78240000D01*
X130141071Y-78192380D01*
X130379166Y-78192380D01*
X130522023Y-78240000D01*
X128569642Y-75652380D02*
X129141071Y-75652380D01*
X128855357Y-76652380D02*
X128855357Y-75652380D01*
X129474404Y-76652380D02*
X129474404Y-75652380D01*
X129712500Y-75652380D01*
X129855357Y-75700000D01*
X129950595Y-75795238D01*
X129998214Y-75890476D01*
X130045833Y-76080952D01*
X130045833Y-76223809D01*
X129998214Y-76414285D01*
X129950595Y-76509523D01*
X129855357Y-76604761D01*
X129712500Y-76652380D01*
X129474404Y-76652380D01*
X130474404Y-76652380D02*
X130474404Y-75652380D01*
X128079523Y-114752380D02*
X127508095Y-114752380D01*
X127793809Y-114752380D02*
X127793809Y-113752380D01*
X127698571Y-113895238D01*
X127603333Y-113990476D01*
X127508095Y-114038095D01*
X128412857Y-113752380D02*
X129031904Y-113752380D01*
X128698571Y-114133333D01*
X128841428Y-114133333D01*
X128936666Y-114180952D01*
X128984285Y-114228571D01*
X129031904Y-114323809D01*
X129031904Y-114561904D01*
X128984285Y-114657142D01*
X128936666Y-114704761D01*
X128841428Y-114752380D01*
X128555714Y-114752380D01*
X128460476Y-114704761D01*
X128412857Y-114657142D01*
X128754285Y-71572380D02*
X128754285Y-70572380D01*
X129325714Y-71572380D01*
X129325714Y-70572380D01*
X130373333Y-71477142D02*
X130325714Y-71524761D01*
X130182857Y-71572380D01*
X130087619Y-71572380D01*
X129944761Y-71524761D01*
X129849523Y-71429523D01*
X129801904Y-71334285D01*
X129754285Y-71143809D01*
X129754285Y-71000952D01*
X129801904Y-70810476D01*
X129849523Y-70715238D01*
X129944761Y-70620000D01*
X130087619Y-70572380D01*
X130182857Y-70572380D01*
X130325714Y-70620000D01*
X130373333Y-70667619D01*
X131000476Y-113752380D02*
X130810000Y-113752380D01*
X130714761Y-113800000D01*
X130667142Y-113847619D01*
X130571904Y-113990476D01*
X130524285Y-114180952D01*
X130524285Y-114561904D01*
X130571904Y-114657142D01*
X130619523Y-114704761D01*
X130714761Y-114752380D01*
X130905238Y-114752380D01*
X131000476Y-114704761D01*
X131048095Y-114657142D01*
X131095714Y-114561904D01*
X131095714Y-114323809D01*
X131048095Y-114228571D01*
X131000476Y-114180952D01*
X130905238Y-114133333D01*
X130714761Y-114133333D01*
X130619523Y-114180952D01*
X130571904Y-114228571D01*
X130524285Y-114323809D01*
X110942380Y-97458452D02*
X109942380Y-97458452D01*
X110656666Y-97125119D01*
X109942380Y-96791785D01*
X110942380Y-96791785D01*
X110942380Y-96315595D02*
X109942380Y-96315595D01*
X110894761Y-95887023D02*
X110942380Y-95744166D01*
X110942380Y-95506071D01*
X110894761Y-95410833D01*
X110847142Y-95363214D01*
X110751904Y-95315595D01*
X110656666Y-95315595D01*
X110561428Y-95363214D01*
X110513809Y-95410833D01*
X110466190Y-95506071D01*
X110418571Y-95696547D01*
X110370952Y-95791785D01*
X110323333Y-95839404D01*
X110228095Y-95887023D01*
X110132857Y-95887023D01*
X110037619Y-95839404D01*
X109990000Y-95791785D01*
X109942380Y-95696547D01*
X109942380Y-95458452D01*
X109990000Y-95315595D01*
X109942380Y-94696547D02*
X109942380Y-94506071D01*
X109990000Y-94410833D01*
X110085238Y-94315595D01*
X110275714Y-94267976D01*
X110609047Y-94267976D01*
X110799523Y-94315595D01*
X110894761Y-94410833D01*
X110942380Y-94506071D01*
X110942380Y-94696547D01*
X110894761Y-94791785D01*
X110799523Y-94887023D01*
X110609047Y-94934642D01*
X110275714Y-94934642D01*
X110085238Y-94887023D01*
X109990000Y-94791785D01*
X109942380Y-94696547D01*
X127192738Y-73112380D02*
X127764166Y-73112380D01*
X127478452Y-74112380D02*
X127478452Y-73112380D01*
X128668928Y-74112380D02*
X128335595Y-73636190D01*
X128097500Y-74112380D02*
X128097500Y-73112380D01*
X128478452Y-73112380D01*
X128573690Y-73160000D01*
X128621309Y-73207619D01*
X128668928Y-73302857D01*
X128668928Y-73445714D01*
X128621309Y-73540952D01*
X128573690Y-73588571D01*
X128478452Y-73636190D01*
X128097500Y-73636190D01*
X129049880Y-74064761D02*
X129192738Y-74112380D01*
X129430833Y-74112380D01*
X129526071Y-74064761D01*
X129573690Y-74017142D01*
X129621309Y-73921904D01*
X129621309Y-73826666D01*
X129573690Y-73731428D01*
X129526071Y-73683809D01*
X129430833Y-73636190D01*
X129240357Y-73588571D01*
X129145119Y-73540952D01*
X129097500Y-73493333D01*
X129049880Y-73398095D01*
X129049880Y-73302857D01*
X129097500Y-73207619D01*
X129145119Y-73160000D01*
X129240357Y-73112380D01*
X129478452Y-73112380D01*
X129621309Y-73160000D01*
X129907023Y-73112380D02*
X130478452Y-73112380D01*
X130192738Y-74112380D02*
X130192738Y-73112380D01*
X120985595Y-98242380D02*
X120985595Y-97242380D01*
X121461785Y-98242380D02*
X121461785Y-97242380D01*
X121699880Y-97242380D01*
X121842738Y-97290000D01*
X121937976Y-97385238D01*
X121985595Y-97480476D01*
X122033214Y-97670952D01*
X122033214Y-97813809D01*
X121985595Y-98004285D01*
X121937976Y-98099523D01*
X121842738Y-98194761D01*
X121699880Y-98242380D01*
X121461785Y-98242380D01*
X122223690Y-98337619D02*
X122985595Y-98337619D01*
X123176071Y-98194761D02*
X123318928Y-98242380D01*
X123557023Y-98242380D01*
X123652261Y-98194761D01*
X123699880Y-98147142D01*
X123747500Y-98051904D01*
X123747500Y-97956666D01*
X123699880Y-97861428D01*
X123652261Y-97813809D01*
X123557023Y-97766190D01*
X123366547Y-97718571D01*
X123271309Y-97670952D01*
X123223690Y-97623333D01*
X123176071Y-97528095D01*
X123176071Y-97432857D01*
X123223690Y-97337619D01*
X123271309Y-97290000D01*
X123366547Y-97242380D01*
X123604642Y-97242380D01*
X123747500Y-97290000D01*
X124176071Y-98242380D02*
X124176071Y-97242380D01*
X124414166Y-97242380D01*
X124557023Y-97290000D01*
X124652261Y-97385238D01*
X124699880Y-97480476D01*
X124747500Y-97670952D01*
X124747500Y-97813809D01*
X124699880Y-98004285D01*
X124652261Y-98099523D01*
X124557023Y-98194761D01*
X124414166Y-98242380D01*
X124176071Y-98242380D01*
X118094285Y-107084761D02*
X118237142Y-107132380D01*
X118475238Y-107132380D01*
X118570476Y-107084761D01*
X118618095Y-107037142D01*
X118665714Y-106941904D01*
X118665714Y-106846666D01*
X118618095Y-106751428D01*
X118570476Y-106703809D01*
X118475238Y-106656190D01*
X118284761Y-106608571D01*
X118189523Y-106560952D01*
X118141904Y-106513333D01*
X118094285Y-106418095D01*
X118094285Y-106322857D01*
X118141904Y-106227619D01*
X118189523Y-106180000D01*
X118284761Y-106132380D01*
X118522857Y-106132380D01*
X118665714Y-106180000D01*
X119665714Y-107037142D02*
X119618095Y-107084761D01*
X119475238Y-107132380D01*
X119380000Y-107132380D01*
X119237142Y-107084761D01*
X119141904Y-106989523D01*
X119094285Y-106894285D01*
X119046666Y-106703809D01*
X119046666Y-106560952D01*
X119094285Y-106370476D01*
X119141904Y-106275238D01*
X119237142Y-106180000D01*
X119380000Y-106132380D01*
X119475238Y-106132380D01*
X119618095Y-106180000D01*
X119665714Y-106227619D01*
X120094285Y-107132380D02*
X120094285Y-106132380D01*
X120665714Y-107132380D02*
X120237142Y-106560952D01*
X120665714Y-106132380D02*
X120094285Y-106703809D01*
X102752380Y-117292380D02*
X102419047Y-116816190D01*
X102180952Y-117292380D02*
X102180952Y-116292380D01*
X102561904Y-116292380D01*
X102657142Y-116340000D01*
X102704761Y-116387619D01*
X102752380Y-116482857D01*
X102752380Y-116625714D01*
X102704761Y-116720952D01*
X102657142Y-116768571D01*
X102561904Y-116816190D01*
X102180952Y-116816190D01*
X103609523Y-117292380D02*
X103609523Y-116768571D01*
X103561904Y-116673333D01*
X103466666Y-116625714D01*
X103276190Y-116625714D01*
X103180952Y-116673333D01*
X103609523Y-117244761D02*
X103514285Y-117292380D01*
X103276190Y-117292380D01*
X103180952Y-117244761D01*
X103133333Y-117149523D01*
X103133333Y-117054285D01*
X103180952Y-116959047D01*
X103276190Y-116911428D01*
X103514285Y-116911428D01*
X103609523Y-116863809D01*
X104038095Y-117244761D02*
X104133333Y-117292380D01*
X104323809Y-117292380D01*
X104419047Y-117244761D01*
X104466666Y-117149523D01*
X104466666Y-117101904D01*
X104419047Y-117006666D01*
X104323809Y-116959047D01*
X104180952Y-116959047D01*
X104085714Y-116911428D01*
X104038095Y-116816190D01*
X104038095Y-116768571D01*
X104085714Y-116673333D01*
X104180952Y-116625714D01*
X104323809Y-116625714D01*
X104419047Y-116673333D01*
X104895238Y-116625714D02*
X104895238Y-117625714D01*
X104895238Y-116673333D02*
X104990476Y-116625714D01*
X105180952Y-116625714D01*
X105276190Y-116673333D01*
X105323809Y-116720952D01*
X105371428Y-116816190D01*
X105371428Y-117101904D01*
X105323809Y-117197142D01*
X105276190Y-117244761D01*
X105180952Y-117292380D01*
X104990476Y-117292380D01*
X104895238Y-117244761D01*
X105799999Y-117292380D02*
X105799999Y-116292380D01*
X105799999Y-116673333D02*
X105895238Y-116625714D01*
X106085714Y-116625714D01*
X106180952Y-116673333D01*
X106228571Y-116720952D01*
X106276190Y-116816190D01*
X106276190Y-117101904D01*
X106228571Y-117197142D01*
X106180952Y-117244761D01*
X106085714Y-117292380D01*
X105895238Y-117292380D01*
X105799999Y-117244761D01*
X107085714Y-117244761D02*
X106990476Y-117292380D01*
X106799999Y-117292380D01*
X106704761Y-117244761D01*
X106657142Y-117149523D01*
X106657142Y-116768571D01*
X106704761Y-116673333D01*
X106799999Y-116625714D01*
X106990476Y-116625714D01*
X107085714Y-116673333D01*
X107133333Y-116768571D01*
X107133333Y-116863809D01*
X106657142Y-116959047D01*
X107561904Y-117292380D02*
X107561904Y-116625714D01*
X107561904Y-116816190D02*
X107609523Y-116720952D01*
X107657142Y-116673333D01*
X107752380Y-116625714D01*
X107847619Y-116625714D01*
X108180952Y-117292380D02*
X108180952Y-116625714D01*
X108180952Y-116816190D02*
X108228571Y-116720952D01*
X108276190Y-116673333D01*
X108371428Y-116625714D01*
X108466666Y-116625714D01*
X108704761Y-116625714D02*
X108942857Y-117292380D01*
X109180952Y-116625714D02*
X108942857Y-117292380D01*
X108847619Y-117530476D01*
X108799999Y-117578095D01*
X108704761Y-117625714D01*
X110323809Y-117292380D02*
X110323809Y-116292380D01*
X110704761Y-116292380D01*
X110800000Y-116340000D01*
X110847619Y-116387619D01*
X110895238Y-116482857D01*
X110895238Y-116625714D01*
X110847619Y-116720952D01*
X110800000Y-116768571D01*
X110704761Y-116816190D01*
X110323809Y-116816190D01*
X111323809Y-117292380D02*
X111323809Y-116625714D01*
X111323809Y-116292380D02*
X111276190Y-116340000D01*
X111323809Y-116387619D01*
X111371428Y-116340000D01*
X111323809Y-116292380D01*
X111323809Y-116387619D01*
X112561904Y-117292380D02*
X112561904Y-116292380D01*
X112799999Y-116292380D01*
X112942857Y-116340000D01*
X113038095Y-116435238D01*
X113085714Y-116530476D01*
X113133333Y-116720952D01*
X113133333Y-116863809D01*
X113085714Y-117054285D01*
X113038095Y-117149523D01*
X112942857Y-117244761D01*
X112799999Y-117292380D01*
X112561904Y-117292380D01*
X113942857Y-117244761D02*
X113847619Y-117292380D01*
X113657142Y-117292380D01*
X113561904Y-117244761D01*
X113514285Y-117149523D01*
X113514285Y-116768571D01*
X113561904Y-116673333D01*
X113657142Y-116625714D01*
X113847619Y-116625714D01*
X113942857Y-116673333D01*
X113990476Y-116768571D01*
X113990476Y-116863809D01*
X113514285Y-116959047D01*
X114323809Y-116625714D02*
X114561904Y-117292380D01*
X114799999Y-116625714D01*
X115561904Y-117244761D02*
X115466666Y-117292380D01*
X115276190Y-117292380D01*
X115180952Y-117244761D01*
X115133333Y-117149523D01*
X115133333Y-116768571D01*
X115180952Y-116673333D01*
X115276190Y-116625714D01*
X115466666Y-116625714D01*
X115561904Y-116673333D01*
X115609523Y-116768571D01*
X115609523Y-116863809D01*
X115133333Y-116959047D01*
X116180952Y-117292380D02*
X116085714Y-117244761D01*
X116038095Y-117149523D01*
X116038095Y-116292380D01*
X116704761Y-117292380D02*
X116609523Y-117244761D01*
X116561904Y-117197142D01*
X116514285Y-117101904D01*
X116514285Y-116816190D01*
X116561904Y-116720952D01*
X116609523Y-116673333D01*
X116704761Y-116625714D01*
X116847619Y-116625714D01*
X116942857Y-116673333D01*
X116990476Y-116720952D01*
X117038095Y-116816190D01*
X117038095Y-117101904D01*
X116990476Y-117197142D01*
X116942857Y-117244761D01*
X116847619Y-117292380D01*
X116704761Y-117292380D01*
X117466666Y-116625714D02*
X117466666Y-117625714D01*
X117466666Y-116673333D02*
X117561904Y-116625714D01*
X117752380Y-116625714D01*
X117847619Y-116673333D01*
X117895238Y-116720952D01*
X117942857Y-116816190D01*
X117942857Y-117101904D01*
X117895238Y-117197142D01*
X117847619Y-117244761D01*
X117752380Y-117292380D01*
X117561904Y-117292380D01*
X117466666Y-117244761D01*
X119466666Y-116768571D02*
X119609523Y-116816190D01*
X119657142Y-116863809D01*
X119704761Y-116959047D01*
X119704761Y-117101904D01*
X119657142Y-117197142D01*
X119609523Y-117244761D01*
X119514285Y-117292380D01*
X119133333Y-117292380D01*
X119133333Y-116292380D01*
X119466666Y-116292380D01*
X119561904Y-116340000D01*
X119609523Y-116387619D01*
X119657142Y-116482857D01*
X119657142Y-116578095D01*
X119609523Y-116673333D01*
X119561904Y-116720952D01*
X119466666Y-116768571D01*
X119133333Y-116768571D01*
X120276190Y-117292380D02*
X120180952Y-117244761D01*
X120133333Y-117197142D01*
X120085714Y-117101904D01*
X120085714Y-116816190D01*
X120133333Y-116720952D01*
X120180952Y-116673333D01*
X120276190Y-116625714D01*
X120419047Y-116625714D01*
X120514285Y-116673333D01*
X120561904Y-116720952D01*
X120609523Y-116816190D01*
X120609523Y-117101904D01*
X120561904Y-117197142D01*
X120514285Y-117244761D01*
X120419047Y-117292380D01*
X120276190Y-117292380D01*
X121466666Y-117292380D02*
X121466666Y-116768571D01*
X121419047Y-116673333D01*
X121323809Y-116625714D01*
X121133333Y-116625714D01*
X121038095Y-116673333D01*
X121466666Y-117244761D02*
X121371428Y-117292380D01*
X121133333Y-117292380D01*
X121038095Y-117244761D01*
X120990476Y-117149523D01*
X120990476Y-117054285D01*
X121038095Y-116959047D01*
X121133333Y-116911428D01*
X121371428Y-116911428D01*
X121466666Y-116863809D01*
X121942857Y-117292380D02*
X121942857Y-116625714D01*
X121942857Y-116816190D02*
X121990476Y-116720952D01*
X122038095Y-116673333D01*
X122133333Y-116625714D01*
X122228571Y-116625714D01*
X122990476Y-117292380D02*
X122990476Y-116292380D01*
X122990476Y-117244761D02*
X122895238Y-117292380D01*
X122704761Y-117292380D01*
X122609523Y-117244761D01*
X122561904Y-117197142D01*
X122514285Y-117101904D01*
X122514285Y-116816190D01*
X122561904Y-116720952D01*
X122609523Y-116673333D01*
X122704761Y-116625714D01*
X122895238Y-116625714D01*
X122990476Y-116673333D01*
X124752380Y-117292380D02*
X124180952Y-117292380D01*
X124466666Y-117292380D02*
X124466666Y-116292380D01*
X124371428Y-116435238D01*
X124276190Y-116530476D01*
X124180952Y-116578095D01*
X125085714Y-116625714D02*
X125323809Y-117292380D01*
X125561904Y-116625714D01*
X126133333Y-116292380D02*
X126228571Y-116292380D01*
X126323809Y-116340000D01*
X126371428Y-116387619D01*
X126419047Y-116482857D01*
X126466666Y-116673333D01*
X126466666Y-116911428D01*
X126419047Y-117101904D01*
X126371428Y-117197142D01*
X126323809Y-117244761D01*
X126228571Y-117292380D01*
X126133333Y-117292380D01*
X126038095Y-117244761D01*
X125990476Y-117197142D01*
X125942857Y-117101904D01*
X125895238Y-116911428D01*
X125895238Y-116673333D01*
X125942857Y-116482857D01*
X125990476Y-116387619D01*
X126038095Y-116340000D01*
X126133333Y-116292380D01*
X110561428Y-88663690D02*
X110513809Y-88616071D01*
X110466190Y-88520833D01*
X110561428Y-88330357D01*
X110513809Y-88235119D01*
X110466190Y-88187500D01*
X110847142Y-87235119D02*
X110894761Y-87282738D01*
X110942380Y-87425595D01*
X110942380Y-87520833D01*
X110894761Y-87663690D01*
X110799523Y-87758928D01*
X110704285Y-87806547D01*
X110513809Y-87854166D01*
X110370952Y-87854166D01*
X110180476Y-87806547D01*
X110085238Y-87758928D01*
X109990000Y-87663690D01*
X109942380Y-87520833D01*
X109942380Y-87425595D01*
X109990000Y-87282738D01*
X110037619Y-87235119D01*
X110418571Y-86806547D02*
X110418571Y-86473214D01*
X110942380Y-86330357D02*
X110942380Y-86806547D01*
X109942380Y-86806547D01*
X109942380Y-86330357D01*
X109942380Y-85711309D02*
X109942380Y-85616071D01*
X109990000Y-85520833D01*
X110037619Y-85473214D01*
X110132857Y-85425595D01*
X110323333Y-85377976D01*
X110561428Y-85377976D01*
X110751904Y-85425595D01*
X110847142Y-85473214D01*
X110894761Y-85520833D01*
X110942380Y-85616071D01*
X110942380Y-85711309D01*
X110894761Y-85806547D01*
X110847142Y-85854166D01*
X110751904Y-85901785D01*
X110561428Y-85949404D01*
X110323333Y-85949404D01*
X110132857Y-85901785D01*
X110037619Y-85854166D01*
X109990000Y-85806547D01*
X109942380Y-85711309D01*
X108402380Y-88568452D02*
X107402380Y-88568452D01*
X108116666Y-88235119D01*
X107402380Y-87901785D01*
X108402380Y-87901785D01*
X107402380Y-87235119D02*
X107402380Y-87044642D01*
X107450000Y-86949404D01*
X107545238Y-86854166D01*
X107735714Y-86806547D01*
X108069047Y-86806547D01*
X108259523Y-86854166D01*
X108354761Y-86949404D01*
X108402380Y-87044642D01*
X108402380Y-87235119D01*
X108354761Y-87330357D01*
X108259523Y-87425595D01*
X108069047Y-87473214D01*
X107735714Y-87473214D01*
X107545238Y-87425595D01*
X107450000Y-87330357D01*
X107402380Y-87235119D01*
X108354761Y-86425595D02*
X108402380Y-86282738D01*
X108402380Y-86044642D01*
X108354761Y-85949404D01*
X108307142Y-85901785D01*
X108211904Y-85854166D01*
X108116666Y-85854166D01*
X108021428Y-85901785D01*
X107973809Y-85949404D01*
X107926190Y-86044642D01*
X107878571Y-86235119D01*
X107830952Y-86330357D01*
X107783333Y-86377976D01*
X107688095Y-86425595D01*
X107592857Y-86425595D01*
X107497619Y-86377976D01*
X107450000Y-86330357D01*
X107402380Y-86235119D01*
X107402380Y-85997023D01*
X107450000Y-85854166D01*
X108402380Y-85425595D02*
X107402380Y-85425595D01*
X120937976Y-86764761D02*
X121080833Y-86812380D01*
X121318928Y-86812380D01*
X121414166Y-86764761D01*
X121461785Y-86717142D01*
X121509404Y-86621904D01*
X121509404Y-86526666D01*
X121461785Y-86431428D01*
X121414166Y-86383809D01*
X121318928Y-86336190D01*
X121128452Y-86288571D01*
X121033214Y-86240952D01*
X120985595Y-86193333D01*
X120937976Y-86098095D01*
X120937976Y-86002857D01*
X120985595Y-85907619D01*
X121033214Y-85860000D01*
X121128452Y-85812380D01*
X121366547Y-85812380D01*
X121509404Y-85860000D01*
X122509404Y-86717142D02*
X122461785Y-86764761D01*
X122318928Y-86812380D01*
X122223690Y-86812380D01*
X122080833Y-86764761D01*
X121985595Y-86669523D01*
X121937976Y-86574285D01*
X121890357Y-86383809D01*
X121890357Y-86240952D01*
X121937976Y-86050476D01*
X121985595Y-85955238D01*
X122080833Y-85860000D01*
X122223690Y-85812380D01*
X122318928Y-85812380D01*
X122461785Y-85860000D01*
X122509404Y-85907619D01*
X123414166Y-86812380D02*
X122937976Y-86812380D01*
X122937976Y-85812380D01*
X116078095Y-75652380D02*
X116649523Y-75652380D01*
X116363809Y-76652380D02*
X116363809Y-75652380D01*
X116887619Y-75652380D02*
X117554285Y-76652380D01*
X117554285Y-75652380D02*
X116887619Y-76652380D01*
X137930000Y-84581904D02*
X137882380Y-84677142D01*
X137882380Y-84820000D01*
X137930000Y-84962857D01*
X138025238Y-85058095D01*
X138120476Y-85105714D01*
X138310952Y-85153333D01*
X138453809Y-85153333D01*
X138644285Y-85105714D01*
X138739523Y-85058095D01*
X138834761Y-84962857D01*
X138882380Y-84820000D01*
X138882380Y-84724761D01*
X138834761Y-84581904D01*
X138787142Y-84534285D01*
X138453809Y-84534285D01*
X138453809Y-84724761D01*
X138882380Y-84105714D02*
X137882380Y-84105714D01*
X138882380Y-83534285D01*
X137882380Y-83534285D01*
X138882380Y-83058095D02*
X137882380Y-83058095D01*
X137882380Y-82820000D01*
X137930000Y-82677142D01*
X138025238Y-82581904D01*
X138120476Y-82534285D01*
X138310952Y-82486666D01*
X138453809Y-82486666D01*
X138644285Y-82534285D01*
X138739523Y-82581904D01*
X138834761Y-82677142D01*
X138882380Y-82820000D01*
X138882380Y-83058095D01*
X133159523Y-114752380D02*
X132588095Y-114752380D01*
X132873809Y-114752380D02*
X132873809Y-113752380D01*
X132778571Y-113895238D01*
X132683333Y-113990476D01*
X132588095Y-114038095D01*
X133492857Y-113752380D02*
X134159523Y-113752380D01*
X133730952Y-114752380D01*
X112728571Y-107132380D02*
X112728571Y-106132380D01*
X113061904Y-106846666D01*
X113395238Y-106132380D01*
X113395238Y-107132380D01*
X113871428Y-107132380D02*
X113871428Y-106132380D01*
X114300000Y-107084761D02*
X114442857Y-107132380D01*
X114680952Y-107132380D01*
X114776190Y-107084761D01*
X114823809Y-107037142D01*
X114871428Y-106941904D01*
X114871428Y-106846666D01*
X114823809Y-106751428D01*
X114776190Y-106703809D01*
X114680952Y-106656190D01*
X114490476Y-106608571D01*
X114395238Y-106560952D01*
X114347619Y-106513333D01*
X114300000Y-106418095D01*
X114300000Y-106322857D01*
X114347619Y-106227619D01*
X114395238Y-106180000D01*
X114490476Y-106132380D01*
X114728571Y-106132380D01*
X114871428Y-106180000D01*
X115490476Y-106132380D02*
X115680952Y-106132380D01*
X115776190Y-106180000D01*
X115871428Y-106275238D01*
X115919047Y-106465714D01*
X115919047Y-106799047D01*
X115871428Y-106989523D01*
X115776190Y-107084761D01*
X115680952Y-107132380D01*
X115490476Y-107132380D01*
X115395238Y-107084761D01*
X115300000Y-106989523D01*
X115252380Y-106799047D01*
X115252380Y-106465714D01*
X115300000Y-106275238D01*
X115395238Y-106180000D01*
X115490476Y-106132380D01*
%TO.C,J7*%
X109029523Y-60412380D02*
X108553333Y-60412380D01*
X108505714Y-60888571D01*
X108553333Y-60840952D01*
X108648571Y-60793333D01*
X108886666Y-60793333D01*
X108981904Y-60840952D01*
X109029523Y-60888571D01*
X109077142Y-60983809D01*
X109077142Y-61221904D01*
X109029523Y-61317142D01*
X108981904Y-61364761D01*
X108886666Y-61412380D01*
X108648571Y-61412380D01*
X108553333Y-61364761D01*
X108505714Y-61317142D01*
X109362857Y-60412380D02*
X109696190Y-61412380D01*
X110029523Y-60412380D01*
%TO.C,J6*%
X102640000Y-91844761D02*
X102782857Y-91892380D01*
X103020952Y-91892380D01*
X103116190Y-91844761D01*
X103163809Y-91797142D01*
X103211428Y-91701904D01*
X103211428Y-91606666D01*
X103163809Y-91511428D01*
X103116190Y-91463809D01*
X103020952Y-91416190D01*
X102830476Y-91368571D01*
X102735238Y-91320952D01*
X102687619Y-91273333D01*
X102640000Y-91178095D01*
X102640000Y-91082857D01*
X102687619Y-90987619D01*
X102735238Y-90940000D01*
X102830476Y-90892380D01*
X103068571Y-90892380D01*
X103211428Y-90940000D01*
X103640000Y-91892380D02*
X103640000Y-90892380D01*
X104020952Y-90892380D01*
X104116190Y-90940000D01*
X104163809Y-90987619D01*
X104211428Y-91082857D01*
X104211428Y-91225714D01*
X104163809Y-91320952D01*
X104116190Y-91368571D01*
X104020952Y-91416190D01*
X103640000Y-91416190D01*
X104640000Y-91892380D02*
X104640000Y-90892380D01*
X105306666Y-90892380D02*
X105401904Y-90892380D01*
X105497142Y-90940000D01*
X105544761Y-90987619D01*
X105592380Y-91082857D01*
X105640000Y-91273333D01*
X105640000Y-91511428D01*
X105592380Y-91701904D01*
X105544761Y-91797142D01*
X105497142Y-91844761D01*
X105401904Y-91892380D01*
X105306666Y-91892380D01*
X105211428Y-91844761D01*
X105163809Y-91797142D01*
X105116190Y-91701904D01*
X105068571Y-91511428D01*
X105068571Y-91273333D01*
X105116190Y-91082857D01*
X105163809Y-90987619D01*
X105211428Y-90940000D01*
X105306666Y-90892380D01*
%TO.C,J9*%
X114490595Y-108720000D02*
X114395357Y-108672380D01*
X114252500Y-108672380D01*
X114109642Y-108720000D01*
X114014404Y-108815238D01*
X113966785Y-108910476D01*
X113919166Y-109100952D01*
X113919166Y-109243809D01*
X113966785Y-109434285D01*
X114014404Y-109529523D01*
X114109642Y-109624761D01*
X114252500Y-109672380D01*
X114347738Y-109672380D01*
X114490595Y-109624761D01*
X114538214Y-109577142D01*
X114538214Y-109243809D01*
X114347738Y-109243809D01*
X114966785Y-109672380D02*
X114966785Y-108672380D01*
X115538214Y-109672380D01*
X115538214Y-108672380D01*
X116014404Y-109672380D02*
X116014404Y-108672380D01*
X116252500Y-108672380D01*
X116395357Y-108720000D01*
X116490595Y-108815238D01*
X116538214Y-108910476D01*
X116585833Y-109100952D01*
X116585833Y-109243809D01*
X116538214Y-109434285D01*
X116490595Y-109529523D01*
X116395357Y-109624761D01*
X116252500Y-109672380D01*
X116014404Y-109672380D01*
%TO.C,J8*%
X115601904Y-60412380D02*
X116220952Y-60412380D01*
X115887619Y-60793333D01*
X116030476Y-60793333D01*
X116125714Y-60840952D01*
X116173333Y-60888571D01*
X116220952Y-60983809D01*
X116220952Y-61221904D01*
X116173333Y-61317142D01*
X116125714Y-61364761D01*
X116030476Y-61412380D01*
X115744761Y-61412380D01*
X115649523Y-61364761D01*
X115601904Y-61317142D01*
X116506666Y-60412380D02*
X116840000Y-61412380D01*
X117173333Y-60412380D01*
X117411428Y-60412380D02*
X118030476Y-60412380D01*
X117697142Y-60793333D01*
X117840000Y-60793333D01*
X117935238Y-60840952D01*
X117982857Y-60888571D01*
X118030476Y-60983809D01*
X118030476Y-61221904D01*
X117982857Y-61317142D01*
X117935238Y-61364761D01*
X117840000Y-61412380D01*
X117554285Y-61412380D01*
X117459047Y-61364761D01*
X117411428Y-61317142D01*
%TO.C,J4*%
X117927619Y-79192380D02*
X117927619Y-78192380D01*
X118356190Y-78287619D02*
X118403809Y-78240000D01*
X118499047Y-78192380D01*
X118737142Y-78192380D01*
X118832380Y-78240000D01*
X118880000Y-78287619D01*
X118927619Y-78382857D01*
X118927619Y-78478095D01*
X118880000Y-78620952D01*
X118308571Y-79192380D01*
X118927619Y-79192380D01*
X119927619Y-79097142D02*
X119880000Y-79144761D01*
X119737142Y-79192380D01*
X119641904Y-79192380D01*
X119499047Y-79144761D01*
X119403809Y-79049523D01*
X119356190Y-78954285D01*
X119308571Y-78763809D01*
X119308571Y-78620952D01*
X119356190Y-78430476D01*
X119403809Y-78335238D01*
X119499047Y-78240000D01*
X119641904Y-78192380D01*
X119737142Y-78192380D01*
X119880000Y-78240000D01*
X119927619Y-78287619D01*
X120880000Y-79192380D02*
X120308571Y-79192380D01*
X120594285Y-79192380D02*
X120594285Y-78192380D01*
X120499047Y-78335238D01*
X120403809Y-78430476D01*
X120308571Y-78478095D01*
%TO.C,J11*%
X123460000Y-109990000D02*
X123364761Y-109942380D01*
X123221904Y-109942380D01*
X123079047Y-109990000D01*
X122983809Y-110085238D01*
X122936190Y-110180476D01*
X122888571Y-110370952D01*
X122888571Y-110513809D01*
X122936190Y-110704285D01*
X122983809Y-110799523D01*
X123079047Y-110894761D01*
X123221904Y-110942380D01*
X123317142Y-110942380D01*
X123460000Y-110894761D01*
X123507619Y-110847142D01*
X123507619Y-110513809D01*
X123317142Y-110513809D01*
X123936190Y-110942380D02*
X123936190Y-109942380D01*
X124317142Y-109942380D01*
X124412380Y-109990000D01*
X124460000Y-110037619D01*
X124507619Y-110132857D01*
X124507619Y-110275714D01*
X124460000Y-110370952D01*
X124412380Y-110418571D01*
X124317142Y-110466190D01*
X123936190Y-110466190D01*
X124936190Y-110942380D02*
X124936190Y-109942380D01*
X125602857Y-109942380D02*
X125793333Y-109942380D01*
X125888571Y-109990000D01*
X125983809Y-110085238D01*
X126031428Y-110275714D01*
X126031428Y-110609047D01*
X125983809Y-110799523D01*
X125888571Y-110894761D01*
X125793333Y-110942380D01*
X125602857Y-110942380D01*
X125507619Y-110894761D01*
X125412380Y-110799523D01*
X125364761Y-110609047D01*
X125364761Y-110275714D01*
X125412380Y-110085238D01*
X125507619Y-109990000D01*
X125602857Y-109942380D01*
%TO.C,J5*%
X106450000Y-104544761D02*
X106592857Y-104592380D01*
X106830952Y-104592380D01*
X106926190Y-104544761D01*
X106973809Y-104497142D01*
X107021428Y-104401904D01*
X107021428Y-104306666D01*
X106973809Y-104211428D01*
X106926190Y-104163809D01*
X106830952Y-104116190D01*
X106640476Y-104068571D01*
X106545238Y-104020952D01*
X106497619Y-103973333D01*
X106450000Y-103878095D01*
X106450000Y-103782857D01*
X106497619Y-103687619D01*
X106545238Y-103640000D01*
X106640476Y-103592380D01*
X106878571Y-103592380D01*
X107021428Y-103640000D01*
X107450000Y-104592380D02*
X107450000Y-103592380D01*
X107830952Y-103592380D01*
X107926190Y-103640000D01*
X107973809Y-103687619D01*
X108021428Y-103782857D01*
X108021428Y-103925714D01*
X107973809Y-104020952D01*
X107926190Y-104068571D01*
X107830952Y-104116190D01*
X107450000Y-104116190D01*
X108450000Y-104592380D02*
X108450000Y-103592380D01*
X109450000Y-104592380D02*
X108878571Y-104592380D01*
X109164285Y-104592380D02*
X109164285Y-103592380D01*
X109069047Y-103735238D01*
X108973809Y-103830476D01*
X108878571Y-103878095D01*
%TO.C,J2*%
X112704761Y-70572380D02*
X112704761Y-71381904D01*
X112752380Y-71477142D01*
X112800000Y-71524761D01*
X112895238Y-71572380D01*
X113085714Y-71572380D01*
X113180952Y-71524761D01*
X113228571Y-71477142D01*
X113276190Y-71381904D01*
X113276190Y-70572380D01*
X113704761Y-71286666D02*
X114180952Y-71286666D01*
X113609523Y-71572380D02*
X113942857Y-70572380D01*
X114276190Y-71572380D01*
X115180952Y-71572380D02*
X114847619Y-71096190D01*
X114609523Y-71572380D02*
X114609523Y-70572380D01*
X114990476Y-70572380D01*
X115085714Y-70620000D01*
X115133333Y-70667619D01*
X115180952Y-70762857D01*
X115180952Y-70905714D01*
X115133333Y-71000952D01*
X115085714Y-71048571D01*
X114990476Y-71096190D01*
X114609523Y-71096190D01*
X115466666Y-70572380D02*
X116038095Y-70572380D01*
X115752380Y-71572380D02*
X115752380Y-70572380D01*
%TO.C,J0*%
X93790000Y-61412380D02*
X93456666Y-60936190D01*
X93218571Y-61412380D02*
X93218571Y-60412380D01*
X93599523Y-60412380D01*
X93694761Y-60460000D01*
X93742380Y-60507619D01*
X93790000Y-60602857D01*
X93790000Y-60745714D01*
X93742380Y-60840952D01*
X93694761Y-60888571D01*
X93599523Y-60936190D01*
X93218571Y-60936190D01*
X94647142Y-61412380D02*
X94647142Y-60888571D01*
X94599523Y-60793333D01*
X94504285Y-60745714D01*
X94313809Y-60745714D01*
X94218571Y-60793333D01*
X94647142Y-61364761D02*
X94551904Y-61412380D01*
X94313809Y-61412380D01*
X94218571Y-61364761D01*
X94170952Y-61269523D01*
X94170952Y-61174285D01*
X94218571Y-61079047D01*
X94313809Y-61031428D01*
X94551904Y-61031428D01*
X94647142Y-60983809D01*
X95075714Y-61364761D02*
X95170952Y-61412380D01*
X95361428Y-61412380D01*
X95456666Y-61364761D01*
X95504285Y-61269523D01*
X95504285Y-61221904D01*
X95456666Y-61126666D01*
X95361428Y-61079047D01*
X95218571Y-61079047D01*
X95123333Y-61031428D01*
X95075714Y-60936190D01*
X95075714Y-60888571D01*
X95123333Y-60793333D01*
X95218571Y-60745714D01*
X95361428Y-60745714D01*
X95456666Y-60793333D01*
X95932857Y-60745714D02*
X95932857Y-61745714D01*
X95932857Y-60793333D02*
X96028095Y-60745714D01*
X96218571Y-60745714D01*
X96313809Y-60793333D01*
X96361428Y-60840952D01*
X96409047Y-60936190D01*
X96409047Y-61221904D01*
X96361428Y-61317142D01*
X96313809Y-61364761D01*
X96218571Y-61412380D01*
X96028095Y-61412380D01*
X95932857Y-61364761D01*
X96837619Y-61412380D02*
X96837619Y-60412380D01*
X96837619Y-60793333D02*
X96932857Y-60745714D01*
X97123333Y-60745714D01*
X97218571Y-60793333D01*
X97266190Y-60840952D01*
X97313809Y-60936190D01*
X97313809Y-61221904D01*
X97266190Y-61317142D01*
X97218571Y-61364761D01*
X97123333Y-61412380D01*
X96932857Y-61412380D01*
X96837619Y-61364761D01*
X98123333Y-61364761D02*
X98028095Y-61412380D01*
X97837619Y-61412380D01*
X97742380Y-61364761D01*
X97694761Y-61269523D01*
X97694761Y-60888571D01*
X97742380Y-60793333D01*
X97837619Y-60745714D01*
X98028095Y-60745714D01*
X98123333Y-60793333D01*
X98170952Y-60888571D01*
X98170952Y-60983809D01*
X97694761Y-61079047D01*
X98599523Y-61412380D02*
X98599523Y-60745714D01*
X98599523Y-60936190D02*
X98647142Y-60840952D01*
X98694761Y-60793333D01*
X98790000Y-60745714D01*
X98885238Y-60745714D01*
X99218571Y-61412380D02*
X99218571Y-60745714D01*
X99218571Y-60936190D02*
X99266190Y-60840952D01*
X99313809Y-60793333D01*
X99409047Y-60745714D01*
X99504285Y-60745714D01*
X99742380Y-60745714D02*
X99980476Y-61412380D01*
X100218571Y-60745714D02*
X99980476Y-61412380D01*
X99885238Y-61650476D01*
X99837619Y-61698095D01*
X99742380Y-61745714D01*
X101361428Y-61412380D02*
X101361428Y-60412380D01*
X101742380Y-60412380D01*
X101837619Y-60460000D01*
X101885238Y-60507619D01*
X101932857Y-60602857D01*
X101932857Y-60745714D01*
X101885238Y-60840952D01*
X101837619Y-60888571D01*
X101742380Y-60936190D01*
X101361428Y-60936190D01*
X102361428Y-61412380D02*
X102361428Y-60745714D01*
X102361428Y-60412380D02*
X102313809Y-60460000D01*
X102361428Y-60507619D01*
X102409047Y-60460000D01*
X102361428Y-60412380D01*
X102361428Y-60507619D01*
%TO.C,J3*%
X117927619Y-90622380D02*
X117927619Y-89622380D01*
X118356190Y-89717619D02*
X118403809Y-89670000D01*
X118499047Y-89622380D01*
X118737142Y-89622380D01*
X118832380Y-89670000D01*
X118880000Y-89717619D01*
X118927619Y-89812857D01*
X118927619Y-89908095D01*
X118880000Y-90050952D01*
X118308571Y-90622380D01*
X118927619Y-90622380D01*
X119927619Y-90527142D02*
X119880000Y-90574761D01*
X119737142Y-90622380D01*
X119641904Y-90622380D01*
X119499047Y-90574761D01*
X119403809Y-90479523D01*
X119356190Y-90384285D01*
X119308571Y-90193809D01*
X119308571Y-90050952D01*
X119356190Y-89860476D01*
X119403809Y-89765238D01*
X119499047Y-89670000D01*
X119641904Y-89622380D01*
X119737142Y-89622380D01*
X119880000Y-89670000D01*
X119927619Y-89717619D01*
X120546666Y-89622380D02*
X120641904Y-89622380D01*
X120737142Y-89670000D01*
X120784761Y-89717619D01*
X120832380Y-89812857D01*
X120880000Y-90003333D01*
X120880000Y-90241428D01*
X120832380Y-90431904D01*
X120784761Y-90527142D01*
X120737142Y-90574761D01*
X120641904Y-90622380D01*
X120546666Y-90622380D01*
X120451428Y-90574761D01*
X120403809Y-90527142D01*
X120356190Y-90431904D01*
X120308571Y-90241428D01*
X120308571Y-90003333D01*
X120356190Y-89812857D01*
X120403809Y-89717619D01*
X120451428Y-89670000D01*
X120546666Y-89622380D01*
%TO.C,J1*%
X129350000Y-68032380D02*
X129350000Y-68746666D01*
X129302380Y-68889523D01*
X129207142Y-68984761D01*
X129064285Y-69032380D01*
X128969047Y-69032380D01*
X129683333Y-68032380D02*
X130254761Y-68032380D01*
X129969047Y-69032380D02*
X129969047Y-68032380D01*
X130540476Y-68746666D02*
X131016666Y-68746666D01*
X130445238Y-69032380D02*
X130778571Y-68032380D01*
X131111904Y-69032380D01*
X131969047Y-68080000D02*
X131873809Y-68032380D01*
X131730952Y-68032380D01*
X131588095Y-68080000D01*
X131492857Y-68175238D01*
X131445238Y-68270476D01*
X131397619Y-68460952D01*
X131397619Y-68603809D01*
X131445238Y-68794285D01*
X131492857Y-68889523D01*
X131588095Y-68984761D01*
X131730952Y-69032380D01*
X131826190Y-69032380D01*
X131969047Y-68984761D01*
X132016666Y-68937142D01*
X132016666Y-68603809D01*
X131826190Y-68603809D01*
X133159523Y-68746666D02*
X133635714Y-68746666D01*
X133064285Y-69032380D02*
X133397619Y-68032380D01*
X133730952Y-69032380D01*
X134635714Y-69032380D02*
X134302380Y-68556190D01*
X134064285Y-69032380D02*
X134064285Y-68032380D01*
X134445238Y-68032380D01*
X134540476Y-68080000D01*
X134588095Y-68127619D01*
X134635714Y-68222857D01*
X134635714Y-68365714D01*
X134588095Y-68460952D01*
X134540476Y-68508571D01*
X134445238Y-68556190D01*
X134064285Y-68556190D01*
X135064285Y-69032380D02*
X135064285Y-68032380D01*
X135397619Y-68746666D01*
X135730952Y-68032380D01*
X135730952Y-69032380D01*
X136159523Y-68127619D02*
X136207142Y-68080000D01*
X136302380Y-68032380D01*
X136540476Y-68032380D01*
X136635714Y-68080000D01*
X136683333Y-68127619D01*
X136730952Y-68222857D01*
X136730952Y-68318095D01*
X136683333Y-68460952D01*
X136111904Y-69032380D01*
X136730952Y-69032380D01*
X137350000Y-68032380D02*
X137445238Y-68032380D01*
X137540476Y-68080000D01*
X137588095Y-68127619D01*
X137635714Y-68222857D01*
X137683333Y-68413333D01*
X137683333Y-68651428D01*
X137635714Y-68841904D01*
X137588095Y-68937142D01*
X137540476Y-68984761D01*
X137445238Y-69032380D01*
X137350000Y-69032380D01*
X137254761Y-68984761D01*
X137207142Y-68937142D01*
X137159523Y-68841904D01*
X137111904Y-68651428D01*
X137111904Y-68413333D01*
X137159523Y-68222857D01*
X137207142Y-68127619D01*
X137254761Y-68080000D01*
X137350000Y-68032380D01*
D12*
%TO.C,J7*%
X110490000Y-67310000D02*
X107950000Y-67310000D01*
X110490000Y-62230000D02*
X110490000Y-67310000D01*
X107950000Y-62865000D02*
X108585000Y-62230000D01*
X108585000Y-62230000D02*
X110490000Y-62230000D01*
X107950000Y-67310000D02*
X107950000Y-62865000D01*
%TO.C,J6*%
X106680000Y-93980000D02*
X106680000Y-88900000D01*
X113030000Y-88900000D02*
X114300000Y-90170000D01*
X114300000Y-93980000D02*
X106680000Y-93980000D01*
X106680000Y-88900000D02*
X113030000Y-88900000D01*
X114300000Y-90170000D02*
X114300000Y-93980000D01*
%TO.C,J9*%
X120015000Y-110490000D02*
X120650000Y-111125000D01*
X120650000Y-111125000D02*
X120650000Y-113030000D01*
X110490000Y-113030000D02*
X110490000Y-110490000D01*
X110490000Y-110490000D02*
X120015000Y-110490000D01*
X120650000Y-113030000D02*
X110490000Y-113030000D01*
%TO.C,J8*%
X115570000Y-62865000D02*
X116205000Y-62230000D01*
X118110000Y-62230000D02*
X118110000Y-67310000D01*
X115570000Y-67310000D02*
X115570000Y-62865000D01*
X118110000Y-67310000D02*
X115570000Y-67310000D01*
X116205000Y-62230000D02*
X118110000Y-62230000D01*
%TO.C,J4*%
X118110000Y-87630000D02*
X118110000Y-80645000D01*
X118110000Y-80645000D02*
X118745000Y-80010000D01*
X118745000Y-80010000D02*
X120650000Y-80010000D01*
X120650000Y-87630000D02*
X118110000Y-87630000D01*
X120650000Y-80010000D02*
X120650000Y-87630000D01*
%TO.C,J11*%
X127000000Y-107950000D02*
X137160000Y-107950000D01*
X127000000Y-111760000D02*
X127000000Y-107950000D01*
X128270000Y-113030000D02*
X127000000Y-111760000D01*
X137160000Y-107950000D02*
X137160000Y-113030000D01*
X137160000Y-113030000D02*
X128270000Y-113030000D01*
%TO.C,J5*%
X120650000Y-105410000D02*
X111125000Y-105410000D01*
X110490000Y-102870000D02*
X120650000Y-102870000D01*
X110490000Y-104775000D02*
X110490000Y-102870000D01*
X111125000Y-105410000D02*
X110490000Y-104775000D01*
X120650000Y-102870000D02*
X120650000Y-105410000D01*
%TO.C,J2*%
X110490000Y-72390000D02*
X118110000Y-72390000D01*
X118110000Y-74930000D02*
X111125000Y-74930000D01*
X110490000Y-74295000D02*
X110490000Y-72390000D01*
X111125000Y-74930000D02*
X110490000Y-74295000D01*
X118110000Y-72390000D02*
X118110000Y-74930000D01*
%TO.C,J0*%
X95250000Y-63500000D02*
X96520000Y-62230000D01*
X96520000Y-62230000D02*
X100330000Y-62230000D01*
X95250000Y-113030000D02*
X95250000Y-63500000D01*
X100330000Y-62230000D02*
X100330000Y-113030000D01*
X100330000Y-113030000D02*
X95250000Y-113030000D01*
%TO.C,J3*%
X118110000Y-99060000D02*
X118110000Y-92075000D01*
X120650000Y-91440000D02*
X120650000Y-99060000D01*
X118110000Y-92075000D02*
X118745000Y-91440000D01*
X120650000Y-99060000D02*
X118110000Y-99060000D01*
X118745000Y-91440000D02*
X120650000Y-91440000D01*
%TO.C,J1*%
X130810000Y-95250000D02*
X130810000Y-71120000D01*
X132080000Y-69850000D02*
X135890000Y-69850000D01*
X135890000Y-69850000D02*
X135890000Y-95250000D01*
X135890000Y-95250000D02*
X130810000Y-95250000D01*
X130810000Y-71120000D02*
X132080000Y-69850000D01*
%TD*%
D13*
%TO.C,J7*%
X109220000Y-63500000D03*
D14*
X109220000Y-66040000D03*
%TD*%
D13*
%TO.C,J6*%
X113030000Y-90170000D03*
D14*
X113030000Y-92710000D03*
X110490000Y-90170000D03*
X110490000Y-92710000D03*
X107950000Y-90170000D03*
X107950000Y-92710000D03*
%TD*%
D13*
%TO.C,J9*%
X119380000Y-111760000D03*
D14*
X116840000Y-111760000D03*
X114300000Y-111760000D03*
X111760000Y-111760000D03*
%TD*%
D13*
%TO.C,J8*%
X116840000Y-63500000D03*
D14*
X116840000Y-66040000D03*
%TD*%
D13*
%TO.C,J4*%
X119380000Y-81280000D03*
D14*
X119380000Y-83820000D03*
X119380000Y-86360000D03*
%TD*%
D13*
%TO.C,J11*%
X128270000Y-111760000D03*
D14*
X128270000Y-109220000D03*
X130810000Y-111760000D03*
X130810000Y-109220000D03*
X133350000Y-111760000D03*
X133350000Y-109220000D03*
X135890000Y-111760000D03*
X135890000Y-109220000D03*
%TD*%
D13*
%TO.C,J5*%
X111760000Y-104140000D03*
D14*
X114300000Y-104140000D03*
X116840000Y-104140000D03*
X119380000Y-104140000D03*
%TD*%
D13*
%TO.C,J2*%
X111760000Y-73660000D03*
D14*
X114300000Y-73660000D03*
X116840000Y-73660000D03*
%TD*%
D13*
%TO.C,J0*%
X96520000Y-63500000D03*
D14*
X99060000Y-63500000D03*
X96520000Y-66040000D03*
X99060000Y-66040000D03*
X96520000Y-68580000D03*
X99060000Y-68580000D03*
X96520000Y-71120000D03*
X99060000Y-71120000D03*
X96520000Y-73660000D03*
X99060000Y-73660000D03*
X96520000Y-76200000D03*
X99060000Y-76200000D03*
X96520000Y-78740000D03*
X99060000Y-78740000D03*
X96520000Y-81280000D03*
X99060000Y-81280000D03*
X96520000Y-83820000D03*
X99060000Y-83820000D03*
X96520000Y-86360000D03*
X99060000Y-86360000D03*
X96520000Y-88900000D03*
X99060000Y-88900000D03*
X96520000Y-91440000D03*
X99060000Y-91440000D03*
X96520000Y-93980000D03*
X99060000Y-93980000D03*
X96520000Y-96520000D03*
X99060000Y-96520000D03*
X96520000Y-99060000D03*
X99060000Y-99060000D03*
X96520000Y-101600000D03*
X99060000Y-101600000D03*
X96520000Y-104140000D03*
X99060000Y-104140000D03*
X96520000Y-106680000D03*
X99060000Y-106680000D03*
X96520000Y-109220000D03*
X99060000Y-109220000D03*
X96520000Y-111760000D03*
X99060000Y-111760000D03*
%TD*%
D13*
%TO.C,J3*%
X119380000Y-92710000D03*
D14*
X119380000Y-95250000D03*
X119380000Y-97790000D03*
%TD*%
D13*
%TO.C,J1*%
X132080000Y-71120000D03*
D14*
X134620000Y-71120000D03*
X132080000Y-73660000D03*
X134620000Y-73660000D03*
X132080000Y-76200000D03*
X134620000Y-76200000D03*
X132080000Y-78740000D03*
X134620000Y-78740000D03*
X132080000Y-81280000D03*
X134620000Y-81280000D03*
X132080000Y-83820000D03*
X134620000Y-83820000D03*
X132080000Y-86360000D03*
X134620000Y-86360000D03*
X132080000Y-88900000D03*
X134620000Y-88900000D03*
X132080000Y-91440000D03*
X134620000Y-91440000D03*
X132080000Y-93980000D03*
X134620000Y-93980000D03*
%TD*%
M02*
