%TF.GenerationSoftware,KiCad,Pcbnew,6.0.9-8da3e8f707~117~ubuntu22.04.1*%
%TF.CreationDate,2022-12-18T22:44:04+01:00*%
%TF.ProjectId,rpi-dev-board,7270692d-6465-4762-9d62-6f6172642e6b,rev?*%
%TF.SameCoordinates,Original*%
%TF.FileFunction,Legend,Top*%
%TF.FilePolarity,Positive*%
%FSLAX46Y46*%
G04 Gerber Fmt 4.6, Leading zero omitted, Abs format (unit mm)*
G04 Created by KiCad (PCBNEW 6.0.9-8da3e8f707~117~ubuntu22.04.1) date 2022-12-18 22:44:04*
%MOMM*%
%LPD*%
G01*
G04 APERTURE LIST*
%ADD10C,0.120000*%
G04 APERTURE END LIST*
D10*
%TO.C,J7*%
X107890000Y-63500000D02*
X107890000Y-62170000D01*
X107890000Y-64770000D02*
X110550000Y-64770000D01*
X107890000Y-64770000D02*
X107890000Y-67370000D01*
X107890000Y-62170000D02*
X109220000Y-62170000D01*
X107890000Y-67370000D02*
X110550000Y-67370000D01*
X110550000Y-64770000D02*
X110550000Y-67370000D01*
%TO.C,J6*%
X111760000Y-88840000D02*
X106620000Y-88840000D01*
X111760000Y-91440000D02*
X114360000Y-91440000D01*
X114360000Y-91440000D02*
X114360000Y-94040000D01*
X106620000Y-88840000D02*
X106620000Y-94040000D01*
X114360000Y-94040000D02*
X106620000Y-94040000D01*
X113030000Y-88840000D02*
X114360000Y-88840000D01*
X111760000Y-88840000D02*
X111760000Y-91440000D01*
X114360000Y-88840000D02*
X114360000Y-90170000D01*
%TO.C,J9*%
X118110000Y-110430000D02*
X110430000Y-110430000D01*
X118110000Y-113090000D02*
X110430000Y-113090000D01*
X120710000Y-110430000D02*
X120710000Y-111760000D01*
X118110000Y-110430000D02*
X118110000Y-113090000D01*
X119380000Y-110430000D02*
X120710000Y-110430000D01*
X110430000Y-110430000D02*
X110430000Y-113090000D01*
%TO.C,J8*%
X115510000Y-62170000D02*
X116840000Y-62170000D01*
X115510000Y-64770000D02*
X118170000Y-64770000D01*
X115510000Y-63500000D02*
X115510000Y-62170000D01*
X118170000Y-64770000D02*
X118170000Y-67370000D01*
X115510000Y-67370000D02*
X118170000Y-67370000D01*
X115510000Y-64770000D02*
X115510000Y-67370000D01*
%TO.C,J4*%
X118050000Y-87690000D02*
X120710000Y-87690000D01*
X118050000Y-79950000D02*
X119380000Y-79950000D01*
X118050000Y-81280000D02*
X118050000Y-79950000D01*
X118050000Y-82550000D02*
X118050000Y-87690000D01*
X118050000Y-82550000D02*
X120710000Y-82550000D01*
X120710000Y-82550000D02*
X120710000Y-87690000D01*
%TO.C,J11*%
X126940000Y-113090000D02*
X126940000Y-111760000D01*
X129540000Y-110490000D02*
X126940000Y-110490000D01*
X128270000Y-113090000D02*
X126940000Y-113090000D01*
X129540000Y-113090000D02*
X129540000Y-110490000D01*
X129540000Y-113090000D02*
X137220000Y-113090000D01*
X126940000Y-107890000D02*
X137220000Y-107890000D01*
X126940000Y-110490000D02*
X126940000Y-107890000D01*
X137220000Y-113090000D02*
X137220000Y-107890000D01*
%TO.C,J5*%
X113030000Y-105470000D02*
X120710000Y-105470000D01*
X113030000Y-102810000D02*
X120710000Y-102810000D01*
X111760000Y-105470000D02*
X110430000Y-105470000D01*
X113030000Y-105470000D02*
X113030000Y-102810000D01*
X110430000Y-105470000D02*
X110430000Y-104140000D01*
X120710000Y-105470000D02*
X120710000Y-102810000D01*
%TO.C,J2*%
X113030000Y-72330000D02*
X118170000Y-72330000D01*
X118170000Y-74990000D02*
X118170000Y-72330000D01*
X113030000Y-74990000D02*
X118170000Y-74990000D01*
X110430000Y-74990000D02*
X110430000Y-73660000D01*
X111760000Y-74990000D02*
X110430000Y-74990000D01*
X113030000Y-74990000D02*
X113030000Y-72330000D01*
%TO.C,J0*%
X95190000Y-63500000D02*
X95190000Y-62170000D01*
X97790000Y-62170000D02*
X100390000Y-62170000D01*
X97790000Y-64770000D02*
X97790000Y-62170000D01*
X95190000Y-64770000D02*
X97790000Y-64770000D01*
X100390000Y-62170000D02*
X100390000Y-113090000D01*
X95190000Y-62170000D02*
X96520000Y-62170000D01*
X95190000Y-113090000D02*
X100390000Y-113090000D01*
X95190000Y-64770000D02*
X95190000Y-113090000D01*
%TO.C,J3*%
X118050000Y-99120000D02*
X120710000Y-99120000D01*
X118050000Y-93980000D02*
X118050000Y-99120000D01*
X118050000Y-93980000D02*
X120710000Y-93980000D01*
X118050000Y-92710000D02*
X118050000Y-91380000D01*
X118050000Y-91380000D02*
X119380000Y-91380000D01*
X120710000Y-93980000D02*
X120710000Y-99120000D01*
%TO.C,J1*%
X130750000Y-69790000D02*
X132080000Y-69790000D01*
X130750000Y-71120000D02*
X130750000Y-69790000D01*
X130750000Y-72390000D02*
X133350000Y-72390000D01*
X130750000Y-95310000D02*
X135950000Y-95310000D01*
X133350000Y-69790000D02*
X135950000Y-69790000D01*
X135950000Y-69790000D02*
X135950000Y-95310000D01*
X133350000Y-72390000D02*
X133350000Y-69790000D01*
X130750000Y-72390000D02*
X130750000Y-95310000D01*
%TD*%
M02*
