M48
; DRILL file {KiCad 6.0.9-8da3e8f707~117~ubuntu22.04.1} date lun 19 dic 2022 08:44:48
; FORMAT={-:-/ absolute / metric / decimal}
; #@! TF.CreationDate,2022-12-19T08:44:48+01:00
; #@! TF.GenerationSoftware,Kicad,Pcbnew,6.0.9-8da3e8f707~117~ubuntu22.04.1
; #@! TF.FileFunction,Plated,1,2,PTH
FMAT,2
METRIC
; #@! TA.AperFunction,Plated,PTH,ViaDrill
T1C0.400
; #@! TA.AperFunction,Plated,PTH,ComponentDrill
T2C1.000
%
G90
G05
T1
X92.71Y-82.55
X92.71Y-82.55
X104.14Y-100.33
X104.14Y-100.33
X104.14Y-100.33
X121.92Y-102.87
X121.92Y-102.87
X123.19Y-82.55
X123.19Y-82.55
X123.19Y-82.55
X124.46Y-87.63
X125.73Y-80.01
T2
X96.52Y-63.5
X96.52Y-66.04
X96.52Y-68.58
X96.52Y-71.12
X96.52Y-73.66
X96.52Y-76.2
X96.52Y-78.74
X96.52Y-81.28
X96.52Y-83.82
X96.52Y-86.36
X96.52Y-88.9
X96.52Y-91.44
X96.52Y-93.98
X96.52Y-96.52
X96.52Y-99.06
X96.52Y-101.6
X96.52Y-104.14
X96.52Y-106.68
X96.52Y-109.22
X96.52Y-111.76
X99.06Y-63.5
X99.06Y-66.04
X99.06Y-68.58
X99.06Y-71.12
X99.06Y-73.66
X99.06Y-76.2
X99.06Y-78.74
X99.06Y-81.28
X99.06Y-83.82
X99.06Y-86.36
X99.06Y-88.9
X99.06Y-91.44
X99.06Y-93.98
X99.06Y-96.52
X99.06Y-99.06
X99.06Y-101.6
X99.06Y-104.14
X99.06Y-106.68
X99.06Y-109.22
X99.06Y-111.76
X107.95Y-90.17
X107.95Y-92.71
X109.22Y-63.5
X109.22Y-66.04
X110.49Y-90.17
X110.49Y-92.71
X111.76Y-73.66
X111.76Y-104.14
X111.76Y-111.76
X113.03Y-90.17
X113.03Y-92.71
X114.3Y-73.66
X114.3Y-104.14
X114.3Y-111.76
X116.84Y-63.5
X116.84Y-66.04
X116.84Y-73.66
X116.84Y-104.14
X116.84Y-111.76
X119.38Y-81.28
X119.38Y-83.82
X119.38Y-86.36
X119.38Y-92.71
X119.38Y-95.25
X119.38Y-97.79
X119.38Y-104.14
X119.38Y-111.76
X128.27Y-109.22
X128.27Y-111.76
X130.81Y-109.22
X130.81Y-111.76
X132.08Y-71.12
X132.08Y-73.66
X132.08Y-76.2
X132.08Y-78.74
X132.08Y-81.28
X132.08Y-83.82
X132.08Y-86.36
X132.08Y-88.9
X132.08Y-91.44
X132.08Y-93.98
X133.35Y-109.22
X133.35Y-111.76
X134.62Y-71.12
X134.62Y-73.66
X134.62Y-76.2
X134.62Y-78.74
X134.62Y-81.28
X134.62Y-83.82
X134.62Y-86.36
X134.62Y-88.9
X134.62Y-91.44
X134.62Y-93.98
X135.89Y-109.22
X135.89Y-111.76
T0
M30
